<svg width="30" height="27" viewBox="0 0 30 27" fill="none" xmlns="http://www.w3.org/2000/svg">
<path d="M14.2969 3.67188L14.9414 4.375L15.6445 3.73047C17.5781 1.79688 20.332 0.917969 22.9688 1.38672C27.0117 2.03125 30 5.54688 30 9.64844V9.94141C30 12.4023 28.9453 14.7461 27.1875 16.3867L16.582 26.2891C16.1719 26.6992 15.5859 26.875 15 26.875C14.3555 26.875 13.7695 26.6992 13.3594 26.2891L2.75391 16.3867C0.996094 14.7461 0 12.4023 0 9.94141V9.64844C0 5.54688 2.92969 2.03125 6.97266 1.38672C9.60938 0.917969 12.3633 1.79688 14.2969 3.67188C14.2969 3.73047 14.2383 3.67188 14.2969 3.67188ZM14.9414 8.35938L12.3047 5.66406C11.0156 4.43359 9.19922 3.84766 7.44141 4.14062C4.74609 4.60938 2.8125 6.89453 2.8125 9.64844V9.94141C2.8125 11.6406 3.45703 13.2227 4.6875 14.3359L15 23.9453L25.2539 14.3359C26.4844 13.2227 27.1875 11.6406 27.1875 9.94141V9.64844C27.1875 6.89453 25.1953 4.60938 22.5 4.14062C20.7422 3.84766 18.9258 4.43359 17.6367 5.66406L14.9414 8.35938Z" fill="currentColor"/>
</svg>
