<svg width="34" height="31" viewBox="0 0 34 31" fill="none" xmlns="http://www.w3.org/2000/svg">
<path d="M33.8164 15.75C33.8164 16.8047 32.9375 17.625 31.9414 17.625H30.0664L30.125 27C30.125 27.1758 30.125 27.3516 30.125 27.4688V28.4062C30.125 29.7539 29.0703 30.75 27.7812 30.75H26.8438C26.7266 30.75 26.668 30.75 26.6094 30.75C26.5508 30.75 26.4336 30.75 26.375 30.75H24.5H23.0938C21.7461 30.75 20.75 29.7539 20.75 28.4062V27V23.25C20.75 22.2539 19.8711 21.375 18.875 21.375H15.125C14.0703 21.375 13.25 22.2539 13.25 23.25V27V28.4062C13.25 29.7539 12.1953 30.75 10.9062 30.75H9.5H7.625C7.50781 30.75 7.44922 30.75 7.33203 30.75C7.27344 30.75 7.21484 30.75 7.15625 30.75H6.21875C4.87109 30.75 3.875 29.7539 3.875 28.4062V21.8438C3.875 21.8438 3.875 21.7852 3.875 21.7266V17.625H2C0.945312 17.625 0.125 16.8047 0.125 15.75C0.125 15.2227 0.300781 14.7539 0.710938 14.3438L15.7109 1.21875C16.1211 0.808594 16.5898 0.75 17 0.75C17.4102 0.75 17.8789 0.867188 18.2305 1.16016L33.1719 14.3438C33.6406 14.7539 33.875 15.2227 33.8164 15.75Z" fill="currentColor"/>
</svg>
