<svg width="314" height="374" viewBox="0 0 314 374" fill="none" xmlns="http://www.w3.org/2000/svg">
<path fill-rule="evenodd" clip-rule="evenodd" d="M145.53 164.616C138.967 171.849 128.063 184.167 115.13 199.331C115.13 199.331 107.932 211.294 118.487 217.609C128.779 223.768 135.528 212.729 135.528 212.729C145.062 199.281 152.252 183.846 156.441 173.704C156.871 172.664 157.379 171.644 157.389 170.518C157.402 168.977 156.855 166.943 154.614 164.973C149.295 160.298 145.53 164.616 145.53 164.616Z" fill="#FFC2BD"/>
<path fill-rule="evenodd" clip-rule="evenodd" d="M85.9016 164.381C85.9016 164.381 99.7308 181.9 97.595 202.102C106.719 211.019 115.247 217.008 120.005 219.385C124.761 221.761 138.835 216.755 136.506 204.8C134.417 194.078 108.862 174.642 104.869 170.936C98.9089 165.405 88.6367 163.575 85.9016 164.381Z" fill="#FFC2BD"/>
<path fill-rule="evenodd" clip-rule="evenodd" d="M122.662 186.107C115.063 176.448 108.56 170.35 106.251 168.704C98.4837 163.167 89.4848 164.667 86.7676 165.532C86.7676 165.532 100.969 183.976 99.2657 204.219C103.215 207.917 102.809 207.605 106.278 210.208L122.662 186.107Z" fill="#B398FF"/>
<path d="M122.528 185.98C122.602 185.873 122.749 185.847 122.855 185.921C122.95 185.987 122.982 186.11 122.935 186.211L122.914 186.248L106.335 210.05C106.26 210.157 106.114 210.183 106.007 210.109C105.912 210.043 105.881 209.92 105.927 209.819L105.948 209.782L122.528 185.98Z" fill="#9C73FF"/>
<path fill-rule="evenodd" clip-rule="evenodd" d="M84.1704 327.148C90.3502 326.483 94.9204 321.091 94.5573 314.894L90.9875 253.926C90.498 245.575 83.113 239.331 74.7851 240.227C66.4567 241.125 60.5744 248.797 61.8791 257.06L71.4061 317.387C72.3752 323.519 77.9906 327.814 84.1704 327.148Z" fill="#3E1E00"/>
<path fill-rule="evenodd" clip-rule="evenodd" d="M24.7664 313.234L26.6408 330.873C31.1013 335.301 37.3792 330.098 37.3792 330.098L83.8369 327.557C90.4399 327.127 95.3574 321.296 94.6593 314.724C93.9607 308.153 87.9269 303.482 81.381 304.445L34.5313 311.228C34.5313 311.228 27.8492 307.883 24.7664 313.234Z" fill="#3E1E00"/>
<path fill-rule="evenodd" clip-rule="evenodd" d="M0.201487 337.945L6.07947 315.757L25.1273 313.458L26.9214 330.335L14.3693 329.728L2.14037 339.226C1.21356 339.946 -0.0990673 339.079 0.201487 337.945Z" fill="#3E1E00"/>
<path fill-rule="evenodd" clip-rule="evenodd" d="M50.1672 225.348C50.1672 225.348 37.1698 175.422 39.419 170.929C41.6689 166.436 55.2864 160.973 73.6141 161.615C103.146 162.65 106.255 169.894 106.255 169.894C106.255 169.894 102.256 206.984 94.9565 222.08C97.8192 227.185 92.6147 230.811 92.6147 230.811C92.6147 230.811 59.9444 229.302 52.1729 229.711C48.5436 228.157 50.1672 225.348 50.1672 225.348Z" fill="#B398FF"/>
<path fill-rule="evenodd" clip-rule="evenodd" d="M95.5619 257.714L81.9039 269.241L50.2997 262.515C50.2997 262.515 45.6362 252.684 51.4921 234.759C52.5293 231.911 52.9507 229.775 52.9507 229.775C52.9507 229.775 79.0002 230.598 93.8414 230.811L94.3603 235.471C94.3603 235.471 96.9292 243.982 95.5619 257.714Z" fill="#5A2E00"/>
<path fill-rule="evenodd" clip-rule="evenodd" d="M64.9841 158.315L66.3648 135.773L87.7527 135.855L87.6386 160.215L81.4588 171.841L64.9841 158.315Z" fill="#FFC2BD"/>
<path fill-rule="evenodd" clip-rule="evenodd" d="M73.6149 123.188C73.6149 123.188 85.6162 120.391 88.7113 126.039C91.7218 131.533 91.4322 151.103 85.1353 153.918C80.0032 156.213 69.6819 154.813 67.4652 145.302C67.4652 145.302 65.5803 138.002 66.5255 131.552C67.4707 125.101 73.6149 123.188 73.6149 123.188Z" fill="#FFC2BD"/>
<path fill-rule="evenodd" clip-rule="evenodd" d="M67.6131 139.608C67.6131 139.608 64.5346 133.313 61.9854 136.614C59.4362 139.915 63.4219 146.234 67.0562 146.069C70.6917 145.904 67.6131 139.608 67.6131 139.608Z" fill="#FFC2BD"/>
<path fill-rule="evenodd" clip-rule="evenodd" d="M90.4925 137.352C90.4925 137.352 92.2425 129.886 90.549 125.18C88.8561 120.475 86.6448 115.756 84.8961 118.17C84.6673 116.999 83.1725 114.63 82.0267 113.823C80.8809 113.016 77.1216 117.97 77.1216 117.97C77.1216 117.97 77.4411 115.647 75.9788 117.034C74.5165 118.42 65.7207 122.595 64.2345 124.888C62.7489 127.18 63.2844 135.763 63.2844 135.763C63.2844 135.763 66.0765 135.577 67.429 140.921C67.1511 136.64 68.9888 134.454 69.9248 133.628C70.28 133.315 70.4897 132.873 70.5382 132.403C70.6308 131.5 70.7725 129.984 70.8486 128.502C70.8823 127.848 71.3754 127.319 72.0232 127.224C78.6219 126.259 85.8174 127.467 88.3782 127.976C88.9579 128.091 89.3903 128.57 89.4535 129.156L89.9755 134.026C89.9755 134.026 90.2975 134.886 90.4925 137.352Z" fill="#330073"/>
<path d="M74.5204 135.209C74.5751 135.196 74.6314 135.192 74.6872 135.197L74.7426 135.205L78.9259 136.047C79.2063 136.103 79.3878 136.376 79.3313 136.656C79.2784 136.919 79.035 137.095 78.7737 137.069L78.7212 137.061L74.6499 136.242L72.5533 136.74C72.2924 136.802 72.0306 136.655 71.9443 136.407L71.9295 136.356C71.8674 136.096 72.0146 135.834 72.2626 135.748L72.3135 135.733L74.5204 135.209Z" fill="#330073"/>
<path d="M87.3068 135.086C87.3788 135.069 87.4535 135.067 87.5257 135.081L87.5794 135.095L89.187 135.59C89.4604 135.674 89.6137 135.963 89.5294 136.236C89.4504 136.492 89.1907 136.643 88.9332 136.591L88.8818 136.578L87.4084 136.125L83.3714 137.085C83.1105 137.147 82.8487 137 82.7625 136.752L82.7476 136.701C82.6855 136.441 82.8327 136.179 83.0807 136.093L83.1316 136.078L87.3068 135.086Z" fill="#330073"/>
<path fill-rule="evenodd" clip-rule="evenodd" d="M67.7428 142.105C67.7428 142.105 71.0237 144.802 72.7026 147.565C75.2106 144.619 77.8028 143.391 77.8028 143.391C77.8028 143.391 80.682 145.645 82.2547 145.005C82.7558 144.435 82.719 143.842 82.719 143.842C82.719 143.842 85.3172 144.88 87.0936 147.646C87.921 145.725 90.1771 143.268 90.1771 143.268C90.1771 143.268 90.3138 155.952 80.9794 155.905C71.5525 155.661 68.5457 150.371 67.5894 145.975C67.3784 144.6 67.0877 141.116 67.7428 142.105Z" fill="#EFADAB"/>
<path d="M75.5437 145.641C75.6331 145.431 75.8763 145.333 76.087 145.422L76.1933 145.465C76.2676 145.494 76.3668 145.532 76.4886 145.576C76.8164 145.694 77.184 145.812 77.5821 145.923C78.8635 146.279 80.152 146.472 81.343 146.417C81.8912 146.392 82.405 146.315 82.8786 146.18C83.0987 146.118 83.3279 146.245 83.3904 146.465C83.453 146.685 83.3253 146.914 83.1052 146.976C82.5668 147.129 81.9901 147.216 81.3807 147.244C80.0902 147.303 78.7191 147.098 77.3601 146.72C77.0109 146.623 76.6838 146.52 76.3839 146.417L76.2073 146.354C76.0854 146.31 75.977 146.269 75.8833 146.232L75.7634 146.184C75.5527 146.095 75.4544 145.852 75.5437 145.641Z" fill="#D18888"/>
<path d="M82.1681 136.648C82.2817 136.662 82.3662 136.755 82.3712 136.866L82.3698 136.903L82.2075 138.288L82.2791 138.678L82.2978 138.784C82.3702 139.197 82.4426 139.642 82.5102 140.1C82.5894 140.639 82.6568 141.161 82.7085 141.656L82.7404 141.976C82.9074 143.753 82.8403 144.86 82.3913 145.19C81.9595 145.508 81.1974 145.371 80.1527 144.928C79.8871 144.815 79.609 144.684 79.3224 144.538C78.9747 144.362 78.6323 144.172 78.3097 143.983L77.8906 143.73C77.7834 143.662 77.7517 143.52 77.8199 143.413C77.888 143.306 78.0302 143.274 78.1374 143.342L78.3852 143.494C78.4349 143.524 78.4874 143.555 78.5426 143.587C78.8577 143.772 79.1923 143.957 79.5311 144.129C79.8087 144.27 80.0774 144.397 80.3325 144.505C81.2222 144.882 81.8749 145 82.1184 144.821C82.3851 144.624 82.4313 143.428 82.251 141.704C82.2 141.216 82.1334 140.7 82.055 140.167C82.0149 139.895 81.973 139.627 81.9304 139.368L81.8085 138.66L81.7493 138.34L81.7467 138.27L81.9129 136.85C81.9262 136.736 82.0201 136.652 82.1307 136.647L82.1681 136.648Z" fill="#D18888"/>
<path d="M79.3313 148.944L81.5143 148.991C81.6572 148.994 81.7706 149.112 81.7675 149.255C81.7648 149.385 81.6667 149.49 81.5415 149.506L81.5032 149.508L79.3202 149.461C79.1773 149.458 79.0639 149.34 79.067 149.197C79.0697 149.068 79.1678 148.962 79.293 148.946L79.3313 148.944Z" fill="#D18888"/>
<path fill-rule="evenodd" clip-rule="evenodd" d="M77.0013 139.916C76.9817 140.667 76.5309 141.264 75.9942 141.25C75.4575 141.236 75.0379 140.616 75.0575 139.866C75.0772 139.116 75.528 138.518 76.0647 138.532C76.6014 138.546 77.021 139.166 77.0013 139.916Z" fill="#330073"/>
<path fill-rule="evenodd" clip-rule="evenodd" d="M87.2053 140.18C87.1857 140.931 86.7349 141.528 86.1981 141.514C85.6614 141.5 85.2425 140.881 85.2621 140.13C85.2812 139.38 85.732 138.783 86.2687 138.797C86.8054 138.81 87.2249 139.43 87.2053 140.18Z" fill="#330073"/>
<path d="M76.2596 144.559C76.3824 144.442 76.5766 144.447 76.6932 144.57C76.7992 144.682 76.8046 144.852 76.7125 144.969L76.6819 145.003L74.9534 146.642C74.8305 146.758 74.6364 146.753 74.5198 146.63C74.4138 146.519 74.4083 146.349 74.5005 146.231L74.5311 146.197L76.2596 144.559Z" fill="#D18888"/>
<path d="M67.6219 146.114C67.7615 146.083 67.8995 146.172 67.93 146.311L67.955 146.415C67.9699 146.473 67.9897 146.547 68.0149 146.635L68.0348 146.703C68.1286 147.022 68.2499 147.378 68.4014 147.762C68.8349 148.859 69.4233 149.957 70.1882 150.981C72.9074 154.619 77.0761 156.409 83.049 155.349C83.1898 155.324 83.3242 155.418 83.3492 155.558C83.3742 155.699 83.2804 155.833 83.1396 155.858C76.9679 156.953 72.6064 155.08 69.7734 151.29C68.979 150.227 68.3693 149.089 67.9199 147.951C67.7624 147.553 67.6362 147.182 67.5381 146.849L67.4908 146.683C67.4765 146.631 67.4636 146.582 67.4521 146.537L67.4242 146.421C67.3937 146.282 67.4822 146.144 67.6219 146.114Z" fill="#D18888"/>
<path d="M80.2484 151.646C80.3718 151.574 80.5304 151.616 80.6026 151.739L80.6513 151.827C80.7039 151.929 80.7671 152.068 80.8299 152.237C81.039 152.8 81.1208 153.382 80.9967 153.937C80.8665 154.519 80.5161 155.015 79.9204 155.387C79.7992 155.463 79.6395 155.426 79.5637 155.305C79.4878 155.184 79.5245 155.025 79.6457 154.949C80.1239 154.65 80.3914 154.271 80.4915 153.824C80.5904 153.382 80.5219 152.895 80.3445 152.417C80.3022 152.303 80.2569 152.199 80.2119 152.107L80.1559 152C80.0836 151.877 80.1251 151.718 80.2484 151.646Z" fill="#D18888"/>
<path d="M62.641 138.567C62.7752 137.956 63.2607 137.682 64.0322 138.002C65.1877 138.48 65.3348 139.32 64.9498 140.823L64.8897 141.047C64.6379 141.952 64.9394 142.473 65.7814 142.664C65.9209 142.696 66.0082 142.834 65.9765 142.974C65.9449 143.113 65.8062 143.2 65.6668 143.168C64.5331 142.911 64.0609 142.095 64.3909 140.909C64.7849 139.491 64.7107 138.843 63.8338 138.479C63.3681 138.286 63.2135 138.374 63.1466 138.678C63.1271 138.767 63.12 138.863 63.1216 138.956L63.1287 139.077C63.1291 139.081 63.1294 139.083 63.1296 139.085C63.1489 139.226 63.0497 139.356 62.9081 139.376C62.7665 139.395 62.636 139.296 62.6167 139.155L62.6123 139.115L62.6099 139.088C62.5968 138.923 62.6023 138.743 62.641 138.567Z" fill="#D18888"/>
<path fill-rule="evenodd" clip-rule="evenodd" d="M77.391 148.657C77.3652 148.789 77.2383 148.875 77.1064 148.85C76.9745 148.824 76.8886 148.697 76.9138 148.565C76.9389 148.434 77.0665 148.348 77.1984 148.373C77.3303 148.399 77.4168 148.526 77.391 148.657Z" fill="#D18888"/>
<path fill-rule="evenodd" clip-rule="evenodd" d="M73.7198 149.476C73.694 149.608 73.5671 149.694 73.4352 149.668C73.3033 149.643 73.2168 149.516 73.2426 149.384C73.2677 149.253 73.3953 149.167 73.5272 149.192C73.6591 149.217 73.7456 149.344 73.7198 149.476Z" fill="#D18888"/>
<path fill-rule="evenodd" clip-rule="evenodd" d="M85.4498 150.573C85.4933 150.7 85.4258 150.839 85.2989 150.881C85.1719 150.925 85.0333 150.858 84.9897 150.731C84.9468 150.604 85.0143 150.466 85.1412 150.423C85.2682 150.379 85.4062 150.447 85.4498 150.573Z" fill="#D18888"/>
<path fill-rule="evenodd" clip-rule="evenodd" d="M87.7603 149.472C87.8039 149.599 87.7358 149.737 87.6088 149.78C87.4818 149.824 87.3438 149.756 87.3003 149.63C87.2567 149.503 87.3248 149.365 87.4518 149.322C87.5788 149.278 87.7168 149.345 87.7603 149.472Z" fill="#D18888"/>
<path fill-rule="evenodd" clip-rule="evenodd" d="M83.4529 151.229C83.4965 151.356 83.4284 151.494 83.3014 151.537C83.1745 151.581 83.0364 151.513 82.9929 151.386C82.9493 151.26 83.0174 151.122 83.1444 151.078C83.2714 151.035 83.4094 151.102 83.4529 151.229Z" fill="#D18888"/>
<path fill-rule="evenodd" clip-rule="evenodd" d="M80.6319 150.599C80.6754 150.726 80.6074 150.864 80.4804 150.907C80.3534 150.951 80.2154 150.883 80.1719 150.756C80.1283 150.63 80.1964 150.492 80.3234 150.448C80.4503 150.405 80.5883 150.472 80.6319 150.599Z" fill="#D18888"/>
<path fill-rule="evenodd" clip-rule="evenodd" d="M70.9151 148.405C70.9586 148.532 70.8912 148.67 70.7642 148.713C70.6372 148.757 70.4986 148.689 70.4551 148.562C70.4121 148.436 70.4796 148.298 70.6066 148.254C70.7335 148.211 70.8715 148.278 70.9151 148.405Z" fill="#D18888"/>
<path fill-rule="evenodd" clip-rule="evenodd" d="M75.4698 152.015C75.444 152.147 75.3171 152.233 75.1852 152.208C75.0533 152.183 74.9668 152.055 74.9926 151.924C75.0177 151.792 75.1453 151.706 75.2772 151.731C75.4091 151.757 75.4956 151.884 75.4698 152.015Z" fill="#D18888"/>
<path fill-rule="evenodd" clip-rule="evenodd" d="M77.3644 151.688C77.3392 151.819 77.2117 151.905 77.0798 151.88C76.9479 151.855 76.862 151.728 76.8872 151.596C76.9123 151.464 77.0399 151.378 77.1718 151.404C77.3037 151.429 77.3902 151.556 77.3644 151.688Z" fill="#D18888"/>
<path fill-rule="evenodd" clip-rule="evenodd" d="M84.9608 152.538C84.9351 152.67 84.8081 152.756 84.6762 152.73C84.5443 152.705 84.4585 152.578 84.4836 152.446C84.5088 152.315 84.6364 152.229 84.7682 152.254C84.9001 152.28 84.9866 152.406 84.9608 152.538Z" fill="#D18888"/>
<path fill-rule="evenodd" clip-rule="evenodd" d="M83.8292 149.641C83.8034 149.772 83.6764 149.858 83.5446 149.833C83.4127 149.807 83.3262 149.68 83.352 149.549C83.3771 149.417 83.5047 149.331 83.6366 149.356C83.7684 149.382 83.8549 149.509 83.8292 149.641Z" fill="#D18888"/>
<path fill-rule="evenodd" clip-rule="evenodd" d="M84.7667 147.237C84.7416 147.368 84.614 147.454 84.4821 147.429C84.3502 147.404 84.2644 147.276 84.2895 147.145C84.3147 147.013 84.4423 146.927 84.5741 146.952C84.706 146.978 84.7925 147.105 84.7667 147.237Z" fill="#D18888"/>
<path fill-rule="evenodd" clip-rule="evenodd" d="M73.4415 150.982C73.4157 151.114 73.2881 151.2 73.1569 151.175C73.025 151.149 72.9385 151.022 72.9643 150.891C72.9894 150.759 73.117 150.673 73.2489 150.698C73.3801 150.723 73.4666 150.851 73.4415 150.982Z" fill="#D18888"/>
<path fill-rule="evenodd" clip-rule="evenodd" d="M90.2025 166.479L88.8114 158.199L83.8198 158.374L80.1045 167.592L75.4766 157.564L64.4794 156.23L61.1328 162.347C61.1328 162.347 67.0795 173.432 80.8099 172.005C87.5926 171.3 90.2025 166.479 90.2025 166.479Z" fill="#B398FF"/>
<path d="M101.925 182.68C102.054 182.667 102.169 182.762 102.181 182.891L102.21 183.238L102.237 183.628C102.249 183.813 102.261 184.014 102.272 184.23C102.446 187.565 102.397 191.633 101.965 196.151C101.347 202.611 100.03 208.953 97.8544 214.897C97.5055 215.85 97.1358 216.788 96.7447 217.711C96.694 217.831 96.556 217.887 96.4364 217.836C96.3167 217.786 96.2608 217.648 96.3114 217.528C96.6994 216.612 97.0663 215.681 97.4126 214.735C99.5734 208.833 100.882 202.528 101.496 196.106C101.912 191.758 101.972 187.829 101.818 184.577L101.802 184.254C101.785 183.934 101.768 183.647 101.75 183.396L101.716 182.964C101.715 182.953 101.714 182.944 101.713 182.936C101.701 182.807 101.795 182.692 101.925 182.68Z" fill="#9C73FF"/>
<path fill-rule="evenodd" clip-rule="evenodd" d="M94.4246 235.536C74.7401 236.463 51.395 234.458 51.395 234.458L52.1728 228.924C52.1728 228.924 77.7708 229.563 94.5841 229.862C94.9404 232.516 94.4246 235.536 94.4246 235.536Z" fill="#5A2E00"/>
<path d="M80.916 234.611C81.1055 234.589 81.2768 234.724 81.2987 234.914L81.3351 235.245C81.3591 235.469 81.3854 235.725 81.4135 236.01L81.4843 236.753C81.5648 237.624 81.6444 238.581 81.7197 239.611C82.1211 245.105 82.2701 250.753 82.0189 256.03C81.8077 260.468 81.3196 264.373 80.5117 267.601C80.4655 267.785 80.278 267.898 80.0929 267.852C79.9079 267.805 79.7954 267.618 79.8417 267.433C80.6371 264.256 81.1198 260.394 81.329 255.997C81.5679 250.98 81.4426 245.618 81.0816 240.376L81.0309 239.662C80.9559 238.636 80.8766 237.683 80.7966 236.816L80.7431 236.251C80.7088 235.897 80.6769 235.585 80.6484 235.318L80.6127 234.993C80.5907 234.804 80.7266 234.633 80.916 234.611Z" fill="#3E1E00"/>
<path d="M87.8551 234.867C88.0458 234.865 88.2027 235.017 88.2055 235.207L88.2151 236.107L88.223 237.366C88.2364 240.558 88.2013 244.063 88.0887 247.448L88.0463 248.622C87.7633 255.874 87.1861 260.323 86.0929 261.173C85.5506 261.594 84.925 262.03 84.2323 262.474C83.3635 263.032 82.4339 263.575 81.5046 264.083L81.1259 264.288C81.0037 264.354 80.8858 264.416 80.7725 264.476L80.4777 264.629C80.3804 264.679 80.3078 264.716 80.2627 264.739C80.0921 264.824 79.8847 264.755 79.7995 264.584C79.7142 264.414 79.7834 264.207 79.954 264.122L80.2873 263.951L80.6221 263.775C80.7963 263.683 80.9805 263.584 81.1729 263.478C82.0891 262.978 83.0052 262.442 83.8589 261.894C84.5354 261.46 85.1443 261.036 85.6688 260.628C86.5228 259.965 87.1145 255.224 87.375 248.098C87.5058 244.518 87.5466 240.765 87.5323 237.369L87.5192 235.568L87.5149 235.218C87.5121 235.027 87.6644 234.87 87.8551 234.867Z" fill="#3E1E00"/>
<path fill-rule="evenodd" clip-rule="evenodd" d="M90.418 230.145V235.673C90.418 236.395 89.8666 236.986 89.1686 237.007C86.8537 237.076 81.7093 237.138 77.0427 236.547C76.3919 236.464 75.9006 235.898 75.9006 235.22V230.022C75.9006 229.279 76.484 228.679 77.2034 228.688C79.8483 228.721 85.8747 228.792 89.1379 228.81C89.8482 228.814 90.418 229.411 90.418 230.145Z" fill="#E4EBF7"/>
<path fill-rule="evenodd" clip-rule="evenodd" d="M88.9205 231.099L88.9192 234.758C88.9192 235.236 88.469 235.627 87.8992 235.641C86.0106 235.686 81.8139 235.725 78.0067 235.332C77.4755 235.277 77.075 234.902 77.075 234.454L77.0762 231.013C77.0768 230.521 77.5528 230.124 78.1398 230.13C80.2976 230.153 85.2144 230.202 87.8765 230.215C88.4561 230.218 88.9205 230.613 88.9205 231.099Z" fill="#5A2E00"/>
<path fill-rule="evenodd" clip-rule="evenodd" d="M77.1157 236.039L89.3709 230.576L88.8649 229.464L76.5078 235.027L77.1157 236.039Z" fill="#E4EBF7"/>
<path fill-rule="evenodd" clip-rule="evenodd" d="M76.5891 230.751L88.8732 236.15L89.3584 235.028L76.9314 229.622L76.5891 230.751Z" fill="#E4EBF7"/>
<path d="M63.5617 163.059C63.6158 162.955 63.7363 162.909 63.8438 162.944L63.8791 162.959L68.975 165.617C69.0902 165.677 69.1348 165.819 69.0746 165.934C69.0205 166.038 68.9 166.084 68.7925 166.048L68.7572 166.034L63.6613 163.376C63.5461 163.316 63.5015 163.174 63.5617 163.059Z" fill="#9C73FF"/>
<path d="M80.322 168.953C80.451 168.938 80.568 169.03 80.5833 169.159L80.6361 169.658L80.6698 170.015C80.6978 170.323 80.7254 170.659 80.7516 171.019C80.961 173.893 80.9967 176.91 80.7481 179.736C80.6359 181.012 80.4675 182.205 80.2377 183.299C80.211 183.426 80.0863 183.507 79.9592 183.481C79.832 183.454 79.7506 183.329 79.7773 183.202C80.003 182.128 80.1688 180.953 80.2795 179.695C80.5255 176.897 80.4901 173.904 80.2824 171.053L80.2506 170.636C80.229 170.367 80.2069 170.113 80.1846 169.877L80.1482 169.509L80.1162 169.214C80.1008 169.085 80.193 168.968 80.322 168.953Z" fill="#9C73FF"/>
<path fill-rule="evenodd" clip-rule="evenodd" d="M135.935 263.961C136.597 257.789 132.293 252.183 126.152 251.221L65.741 241.751C57.466 240.453 49.7871 246.334 48.8953 254.652C48.0034 262.97 54.2611 270.341 62.6232 270.823L123.673 274.344C129.878 274.701 135.273 270.133 135.935 263.961Z" fill="#5A2E00"/>
<path fill-rule="evenodd" clip-rule="evenodd" d="M112.983 323.138L130.723 323.998C135.79 320.276 131.606 313.281 131.606 313.281L136.092 263.923C136.68 257.341 131.665 251.592 125.057 251.272C118.448 250.952 112.9 256.189 112.847 262.798L112.499 313.193C112.499 313.193 108.162 319.274 112.983 323.138Z" fill="#5A2E00"/>
<path fill-rule="evenodd" clip-rule="evenodd" d="M135.766 350.722L114.042 348.108L113.197 322.811L130.172 323.633L127.951 339.966L136.826 348.49C137.728 349.356 137.009 350.871 135.766 350.722Z" fill="#3E1E00"/>
<path fill-rule="evenodd" clip-rule="evenodd" d="M96.5734 234.772C85.6062 234.308 59.8321 234.313 45.116 231.137C45.116 231.137 29.862 227.447 33.1319 214.037C36.3208 200.962 51.7153 205.483 51.7153 205.483C69.0518 210.173 89.0724 217.292 98.8312 219.575C98.8312 219.575 103.934 220.592 103.551 227.279C103.098 235.214 96.5734 234.772 96.5734 234.772Z" fill="#FFC2BD"/>
<path fill-rule="evenodd" clip-rule="evenodd" d="M58.2979 217.981C58.2979 217.981 63.0847 189.803 63.2669 184.711C63.4258 180.257 62.5805 168.533 50.5614 167.191C40.9498 166.117 36.4593 173.429 34.7339 179.412C31.7522 189.748 32.1147 203.264 32.5042 215.56C32.5042 215.56 32.4631 229.538 45.9384 229.533C57.3417 229.53 58.2979 217.981 58.2979 217.981Z" fill="#FFC2BD"/>
<path fill-rule="evenodd" clip-rule="evenodd" d="M60.6062 205.662C61.284 201.078 63.7081 186.331 63.7651 184.727C63.9246 180.273 62.4948 167.909 50.4757 166.567C40.8641 165.494 36.6895 173.527 34.6199 179.4C32.6737 184.92 32.6191 198.275 32.283 203.132L60.6062 205.662Z" fill="#B398FF"/>
<path d="M62.0041 187.197C62.134 187.202 62.2354 187.311 62.2309 187.44L62.1998 188.218C61.9986 192.874 61.3408 202.529 60.8385 205.926C60.822 206.037 60.7294 206.119 60.6202 206.126L60.5832 206.125L32.3526 203.406C32.2232 203.394 32.1285 203.279 32.141 203.15C32.1522 203.033 32.2464 202.945 32.3594 202.938L32.3977 202.938L60.4043 205.636L60.4182 205.538C60.9338 201.742 61.593 191.839 61.7538 187.606L61.7606 187.423C61.7653 187.294 61.8743 187.192 62.0041 187.197Z" fill="#9C73FF"/>
<path fill-rule="evenodd" clip-rule="evenodd" d="M97.6634 235.782C97.6634 235.782 92.6037 234.947 91.7713 228.709C91.1168 223.8 93.9801 221.483 93.9801 221.483C93.9801 221.483 98.9288 218.38 105.327 217.915C110.485 217.539 117.842 216.65 118.103 218.946C118.432 221.845 110.77 221.516 109.944 223.461C108.271 227.402 120.426 229.12 122.425 230.533C125.494 232.703 120.487 239.488 108.518 238.543C105.253 238.285 102.101 237.625 97.6634 235.782Z" fill="#FFC2BD"/>
<path d="M109.942 229.861C110.006 229.733 110.161 229.681 110.289 229.744L110.533 229.859C110.735 229.952 110.971 230.055 111.237 230.167C111.999 230.487 112.855 230.806 113.784 231.105C116.708 232.044 119.679 232.566 122.489 232.452C122.632 232.447 122.752 232.558 122.758 232.7C122.764 232.843 122.653 232.963 122.51 232.969C119.631 233.085 116.603 232.554 113.625 231.597C112.681 231.294 111.812 230.969 111.037 230.644C110.873 230.575 110.722 230.51 110.581 230.448L110.158 230.255C110.115 230.235 110.082 230.219 110.059 230.207C109.931 230.144 109.879 229.989 109.942 229.861Z" fill="#D18888"/>
<path d="M107.656 232.837C107.706 232.703 107.855 232.636 107.989 232.686C111.175 233.885 114.106 234.659 116.715 235.093C117.627 235.244 118.432 235.342 119.124 235.398C119.316 235.413 119.489 235.424 119.641 235.432L119.859 235.441C119.905 235.442 119.939 235.443 119.959 235.443C120.102 235.444 120.217 235.56 120.217 235.703C120.216 235.845 120.1 235.961 119.957 235.96L119.792 235.956L119.729 235.954C119.546 235.946 119.33 235.933 119.082 235.913C118.376 235.857 117.556 235.757 116.63 235.603C113.988 235.164 111.025 234.381 107.807 233.17C107.673 233.119 107.605 232.97 107.656 232.837Z" fill="#D18888"/>
<path d="M105.992 235.425C106.043 235.307 106.172 235.247 106.293 235.278L106.333 235.292C106.334 235.293 107.818 235.998 108.37 236.22C110.118 236.922 112.174 237.358 115.136 237.513C115.279 237.521 115.388 237.642 115.381 237.785C115.373 237.928 115.252 238.037 115.109 238.03C112.091 237.871 109.979 237.424 108.177 236.699L108.001 236.626C107.348 236.347 106.113 235.761 106.124 235.765C105.993 235.708 105.934 235.555 105.992 235.425Z" fill="#D18888"/>
<path d="M118.106 218.687L118.145 218.69C118.286 218.713 118.381 218.846 118.358 218.987C118.217 219.844 117.981 220.237 117.335 220.591L117.077 220.725C116.829 220.848 116.591 220.935 115.082 221.488C114.701 221.628 114.3 221.746 113.742 221.889L112.795 222.126C111.601 222.431 111.038 222.642 110.622 222.983C110.088 223.419 109.997 224.022 110.436 224.987C110.96 226.139 113.051 227.29 116.179 228.341C117.493 228.782 118.902 229.177 120.311 229.519C120.723 229.619 121.109 229.709 121.465 229.787L121.969 229.896L122.189 229.941C122.329 229.968 122.42 230.104 122.393 230.244C122.365 230.384 122.229 230.475 122.089 230.448L121.671 230.361L121.565 230.338C121.149 230.248 120.687 230.143 120.189 230.022C118.766 229.676 117.343 229.277 116.013 228.831L115.626 228.698C112.572 227.636 110.548 226.483 109.965 225.201C109.435 224.036 109.564 223.18 110.294 222.583C110.806 222.163 111.435 221.935 112.802 221.591L113.459 221.427L113.756 221.351C114.178 221.241 114.503 221.145 114.804 221.039L116.291 220.491C116.712 220.332 116.795 220.29 116.991 220.189L117.084 220.139C117.581 219.868 117.731 219.612 117.847 218.903C117.868 218.775 117.98 218.685 118.106 218.687Z" fill="#D18888"/>
<path d="M65.7942 241.41L105.791 247.686C105.979 247.716 106.108 247.892 106.078 248.081C106.051 248.254 105.898 248.377 105.727 248.372L105.683 248.368L65.687 242.091C65.4986 242.062 65.3699 241.885 65.3995 241.697C65.4268 241.523 65.5795 241.4 65.751 241.406L65.7942 241.41Z" fill="#3E1E00"/>
<path fill-rule="evenodd" clip-rule="evenodd" d="M142.561 172.103C142.561 172.103 142.343 168.528 144.828 164.331C147.292 160.169 156.178 150.203 156.817 149.737C158.993 148.149 160.391 150.784 155.521 156.775C160.91 155.732 164.394 153.604 166.525 150.429C168.655 147.253 172.111 149.955 170.466 155.225C168.82 160.495 168.56 165.234 164.362 168.496C159.064 172.612 154.11 176.038 149.558 177.505C144.544 179.121 143.389 177.297 142.561 172.103Z" fill="#FFC2BD"/>
<path d="M155.315 156.674C155.37 156.56 155.508 156.513 155.622 156.568C155.724 156.618 155.772 156.732 155.742 156.837L155.728 156.876L154.169 160.052L154.15 160.271L154.133 160.442C154.099 160.787 154.054 161.171 153.998 161.585C153.836 162.767 153.613 163.949 153.318 165.055C152.566 167.87 151.486 169.719 149.964 170.143C149.841 170.177 149.714 170.105 149.68 169.983C149.646 169.861 149.718 169.734 149.84 169.7C151.149 169.336 152.161 167.602 152.873 164.936C153.163 163.852 153.383 162.687 153.542 161.523C153.588 161.183 153.627 160.864 153.658 160.57L153.7 160.138L153.713 159.973L153.736 159.888L155.315 156.674Z" fill="#D18888"/>
<path d="M167.459 159.898C168.03 159.71 168.53 159.876 168.857 160.449C168.919 160.559 168.881 160.7 168.77 160.762C168.66 160.825 168.519 160.786 168.457 160.676C168.243 160.302 167.974 160.212 167.603 160.335C167.345 160.42 167.056 160.606 166.76 160.862C166.606 160.995 166.461 161.138 166.328 161.281L166.183 161.44L166.105 161.563C166.087 161.59 166.067 161.621 166.044 161.654C165.931 161.82 165.797 162.004 165.64 162.202C165.193 162.766 164.657 163.33 164.031 163.856C162.737 164.945 161.233 165.729 159.519 166.075C159.395 166.1 159.273 166.02 159.248 165.895C159.223 165.771 159.304 165.65 159.428 165.625C161.061 165.295 162.497 164.546 163.735 163.505C164.336 163 164.851 162.458 165.279 161.917C165.429 161.728 165.557 161.553 165.663 161.397L165.757 161.254C165.775 161.227 165.791 161.202 165.806 161.178L165.879 161.092C165.91 161.057 165.947 161.015 165.991 160.969C166.134 160.814 166.291 160.66 166.459 160.515C166.797 160.222 167.133 160.006 167.459 159.898Z" fill="#D18888"/>
<path d="M168.113 155.828C169.033 155.429 169.712 155.789 169.849 157.041C169.863 157.167 169.772 157.281 169.645 157.294C169.519 157.308 169.405 157.217 169.392 157.091C169.289 156.156 168.94 155.97 168.296 156.249C168.074 156.346 167.833 156.496 167.583 156.685C167.417 156.811 167.258 156.946 167.112 157.082L167 157.187C166.97 157.216 166.948 157.239 166.935 157.252C165.103 159.327 163.424 160.676 161.931 161.439C161.02 161.905 160.365 162.07 160.002 162.077C159.875 162.079 159.77 161.979 159.768 161.852C159.765 161.725 159.866 161.62 159.993 161.618L160.048 161.614C160.125 161.606 160.248 161.585 160.416 161.543C160.787 161.45 161.223 161.285 161.721 161.03C163.161 160.294 164.795 158.982 166.596 156.941L166.677 156.861C166.711 156.827 166.752 156.789 166.799 156.745C166.956 156.6 167.126 156.455 167.305 156.319C167.581 156.109 167.852 155.941 168.113 155.828Z" fill="#D18888"/>
<path d="M168.049 152.199C169.053 151.416 169.865 151.368 170.605 152.22C170.689 152.316 170.678 152.461 170.582 152.544C170.486 152.627 170.341 152.617 170.258 152.521C169.721 151.903 169.199 151.912 168.414 152.498L168.332 152.561C167.813 152.966 165.593 155.256 165.375 155.464C165.116 155.711 164.864 155.941 164.612 156.159C163.377 157.229 162.167 158.024 161.032 158.584C160.633 158.781 160.271 158.935 159.953 159.05L159.819 159.097C159.695 159.14 159.604 159.167 159.547 159.182C159.424 159.213 159.299 159.139 159.267 159.016C159.236 158.893 159.31 158.768 159.433 158.736L159.49 158.721C159.548 158.704 159.629 158.678 159.732 158.641L159.796 158.618C160.098 158.509 160.444 158.362 160.828 158.172C161.928 157.629 163.105 156.856 164.311 155.812C164.495 155.652 164.68 155.486 164.868 155.31L165.096 155.093C165.454 154.737 167.525 152.608 168.049 152.199Z" fill="#D18888"/>
<path fill-rule="evenodd" clip-rule="evenodd" d="M217.35 104.724C206.043 121.668 190.83 111.791 186.972 107.383C182.603 102.389 177.125 103.013 175.46 96.9108C173.556 89.9288 178.882 85.468 177.841 82.3468C174.721 70.2804 183.305 74.6156 181.979 67.16C179.762 54.7004 181.673 54.9428 186.972 46.0773C193.291 35.5028 200.009 40.4151 200.009 40.4151C200.009 40.4151 209.302 38.1717 213.464 50.6549C214.216 52.9115 217.277 54.2608 217.347 59.9475C217.523 74.4375 225.364 75.5836 226.917 85.468C228.539 95.7869 221.094 98.8985 217.35 104.724Z" fill="#330073"/>
<path fill-rule="evenodd" clip-rule="evenodd" d="M212.161 61.953C212.728 58.37 209.336 58.7654 209.336 58.7654C209.336 58.7654 208.054 62.4917 207.959 65.5065C211.706 65.5434 212.161 61.953 212.161 61.953Z" fill="#F4B784"/>
<path fill-rule="evenodd" clip-rule="evenodd" d="M185.74 61.953C185.173 58.37 188.565 58.7654 188.565 58.7654C188.565 58.7654 189.847 62.4917 189.942 65.5065C186.195 65.5434 185.74 61.953 185.74 61.953Z" fill="#F4B784"/>
<path fill-rule="evenodd" clip-rule="evenodd" d="M198.523 86.924C195.229 86.924 192.597 84.1856 192.728 80.8952L193.228 68.2H203.817L204.318 80.8952C204.448 84.1856 201.816 86.924 198.523 86.924Z" fill="#F4B784"/>
<path d="M199.366 68.9574C199.523 68.947 199.658 69.0651 199.668 69.2213C199.677 69.3618 199.583 69.4853 199.45 69.5162L199.404 69.5229L198.418 69.5887C198.262 69.5991 198.127 69.481 198.117 69.3248C198.107 69.1843 198.202 69.0608 198.335 69.0299L198.381 69.0232L199.366 68.9574Z" fill="#DD936F"/>
<path fill-rule="evenodd" clip-rule="evenodd" d="M209.029 61.2302C208.123 69.24 204.465 74.2336 198.835 74.2336C193.204 74.2336 189.259 68.3851 188.64 61.2302C187.606 49.268 193.204 45.9385 198.835 45.9385C204.465 45.9385 210.413 48.9931 209.029 61.2302Z" fill="#FFC999"/>
<path fill-rule="evenodd" clip-rule="evenodd" d="M210.273 51.9031C209.024 47.064 206.667 42.1938 199.593 43.4425C191.063 38.865 177.902 58.1853 185.862 59.0218C193.352 59.8087 192.485 53.9477 194.069 50.1001C195.526 46.563 198.206 50.5161 198.206 50.5161C198.206 50.5161 199.687 48.8514 201.351 49.4758C204.14 50.5213 201.119 56.0639 208.193 59.5316C209.054 59.9535 208.311 64.7727 208.609 64.3863C209.996 62.5826 211.521 56.74 210.273 51.9031Z" fill="#330073"/>
<path d="M190.92 54.4515L195.913 55.3315C196.114 55.3669 196.248 55.5585 196.212 55.7595C196.18 55.9437 196.016 56.0718 195.834 56.0646L195.784 56.0592L190.791 55.1792C190.591 55.1438 190.456 54.9521 190.492 54.7512C190.524 54.567 190.688 54.4389 190.87 54.4461L190.92 54.4515Z" fill="#330073"/>
<path d="M206.491 54.725C206.694 54.7046 206.875 54.8527 206.896 55.0557C206.915 55.2419 206.792 55.4095 206.615 55.4519L206.565 55.4602L200.556 56.0632C200.353 56.0836 200.171 55.9355 200.151 55.7325C200.132 55.5463 200.255 55.3787 200.432 55.3363L200.482 55.328L206.491 54.725Z" fill="#330073"/>
<path d="M196.429 56.0811C196.558 56.025 196.707 56.0728 196.78 56.1876L196.802 56.2283L197.565 57.9862C197.576 58.0126 197.583 58.0405 197.586 58.0689L197.588 58.1118L197.319 63.994L198.758 64.6106C198.887 64.6661 198.954 64.8066 198.922 64.939L198.907 64.9827C198.851 65.1122 198.711 65.1791 198.578 65.1462L198.535 65.1315L196.916 64.4377C196.821 64.397 196.757 64.3085 196.746 64.208L196.744 64.1643L197.018 58.1511L196.282 56.4538C196.226 56.3246 196.274 56.1765 196.389 56.1028L196.429 56.0811Z" fill="#DD936F"/>
<path d="M193.352 57.937C194.378 57.937 195.178 58.9085 195.178 60.0754C195.178 60.2795 195.012 60.4449 194.808 60.4449C194.604 60.4449 194.439 60.2795 194.439 60.0754C194.439 59.2883 193.935 58.6759 193.352 58.6759C192.769 58.6759 192.265 59.2883 192.265 60.0754C192.265 60.2795 192.1 60.4449 191.896 60.4449C191.692 60.4449 191.526 60.2795 191.526 60.0754C191.526 58.9085 192.326 57.937 193.352 57.937Z" fill="#330073"/>
<path d="M203.338 57.937C204.364 57.937 205.164 58.9085 205.164 60.0754C205.164 60.2795 204.999 60.4449 204.794 60.4449C204.59 60.4449 204.425 60.2795 204.425 60.0754C204.425 59.2883 203.921 58.6759 203.338 58.6759C202.755 58.6759 202.251 59.2883 202.251 60.0754C202.251 60.2795 202.086 60.4449 201.882 60.4449C201.678 60.4449 201.512 60.2795 201.512 60.0754C201.512 58.9085 202.312 57.937 203.338 57.937Z" fill="#330073"/>
<path fill-rule="evenodd" clip-rule="evenodd" d="M201.119 66.4661C198.657 66.4661 195.987 66.3279 195.987 66.3279C195.987 66.3279 196.369 68.3141 198.553 68.3141C200.945 68.3141 201.119 66.4661 201.119 66.4661Z" fill="white"/>
<path d="M195.624 66.3976C195.682 66.6957 195.84 67.1175 196.154 67.5412C196.682 68.2526 197.476 68.6836 198.553 68.6836C199.715 68.6836 200.531 68.2828 201.03 67.6102C201.333 67.2015 201.459 66.7931 201.487 66.5007C201.507 66.284 201.337 66.0967 201.119 66.0967L200.587 66.0946C199.808 66.0888 198.984 66.0711 198.147 66.0447L197.643 66.0278C197.303 66.0158 196.98 66.003 196.68 65.9902L196.006 65.959C195.767 65.9466 195.579 66.1621 195.624 66.3976ZM196.532 66.7504L196.519 66.7226L197.363 66.7571L198.124 66.7833C198.798 66.8046 199.464 66.8202 200.105 66.8286L200.631 66.8339L200.62 66.8595C200.571 66.9658 200.51 67.0703 200.436 67.1701C200.079 67.6525 199.484 67.9447 198.553 67.9447C197.719 67.9447 197.141 67.6309 196.748 67.1009C196.664 66.9884 196.593 66.8704 196.532 66.7504Z" fill="#C44343"/>
<path d="M199.385 69.9146C199.542 69.9146 199.669 70.0414 199.669 70.1979C199.669 70.3388 199.566 70.4556 199.431 70.4776L199.385 70.4813H197.929C197.772 70.4813 197.646 70.3544 197.646 70.1979C197.646 70.0571 197.748 69.9402 197.883 69.9183L197.929 69.9146H199.385Z" fill="#DD936F"/>
<path fill-rule="evenodd" clip-rule="evenodd" d="M209.767 64.4903C209.703 64.2864 209.413 64.2923 209.358 64.4985C208.864 66.3221 207.715 71.2321 209.62 71.3474C211.769 71.4782 210.352 66.3517 209.767 64.4903Z" fill="white"/>
<path fill-rule="evenodd" clip-rule="evenodd" d="M188.176 64.4903C188.111 64.2864 187.822 64.2923 187.766 64.4985C187.273 66.3221 186.123 71.2321 188.029 71.3474C190.177 71.4782 188.76 66.3517 188.176 64.4903Z" fill="white"/>
<path fill-rule="evenodd" clip-rule="evenodd" d="M260.558 24.531C260.558 24.531 259.743 32.5601 256.853 35.7994C254.489 38.4477 252.496 34.9054 252.496 34.9054C252.496 34.9054 249.579 28.7414 248.89 24.7889C248.44 22.1983 246.848 17.402 248.112 16.8146C249.76 16.0491 250.587 21.2192 251.874 21.5215C254.481 22.1347 254.037 13.8648 254.684 12.4853C255.951 9.78901 260.909 14.5313 260.558 24.531Z" fill="#FFC999"/>
<path d="M256.027 12.3771C256.18 12.3433 256.331 12.4397 256.365 12.5925C256.404 12.7706 256.44 12.9509 256.472 13.1335C256.812 15.0849 256.721 17.1642 256.362 19.1614C256.306 19.4727 256.247 19.7613 256.188 20.024L256.143 20.216C256.097 20.4043 256.062 20.5376 256.041 20.6095C255.997 20.7598 255.84 20.8463 255.69 20.8028C255.54 20.7592 255.453 20.602 255.497 20.4517L255.574 20.157L255.592 20.0835C255.664 19.7821 255.737 19.4392 255.804 19.0613C256.152 17.124 256.241 15.1076 255.913 13.2309C255.883 13.0567 255.849 12.8847 255.811 12.7151C255.778 12.5622 255.874 12.4109 256.027 12.3771Z" fill="#DD936F"/>
<path d="M257.807 13.4194C257.958 13.3789 258.113 13.4686 258.154 13.6197L258.185 13.7477C258.194 13.7857 258.203 13.83 258.214 13.8805C258.257 14.0879 258.3 14.331 258.341 14.6081C258.625 16.5646 258.615 18.9563 258.114 21.6715C258.085 21.8254 257.938 21.9272 257.784 21.8988C257.63 21.8704 257.528 21.7227 257.557 21.5688C258.045 18.9174 258.055 16.5873 257.78 14.6896C257.749 14.4773 257.717 14.2866 257.684 14.1184L257.659 13.9965C257.635 13.8806 257.616 13.8034 257.607 13.7665C257.566 13.6153 257.656 13.4599 257.807 13.4194Z" fill="#DD936F"/>
<path d="M259.609 16.9919C259.765 16.9808 259.9 17.0983 259.911 17.2544C260.055 19.2661 260.004 20.9456 259.831 22.2825C259.802 22.5042 259.772 22.7018 259.741 22.8749L259.718 23.0003C259.694 23.1231 259.675 23.2071 259.664 23.252C259.626 23.4036 259.471 23.4954 259.32 23.4568C259.168 23.4183 259.076 23.2641 259.115 23.1124L259.138 23.0089C259.145 22.9766 259.153 22.938 259.161 22.8933C259.198 22.7033 259.234 22.4754 259.269 22.2098C259.437 20.91 259.487 19.2683 259.346 17.2947C259.335 17.1386 259.453 17.0031 259.609 16.9919Z" fill="#DD936F"/>
<path fill-rule="evenodd" clip-rule="evenodd" d="M252.542 28.3599C252.542 28.3599 233.762 61.3434 232.2 66.0939C228.326 77.8736 239.497 81.6709 244.065 74.2766C250.141 64.4387 259.197 31.0754 259.197 31.0754L252.542 28.3599Z" fill="#FFC999"/>
<path fill-rule="evenodd" clip-rule="evenodd" d="M232.77 67.31C232.77 67.31 213.553 85.8442 210.303 89.6444C202.452 98.8217 205.882 105.145 212.768 105.419C221.068 105.749 243.202 74.8758 243.202 74.8758C243.202 74.8758 245.382 71.0992 241.675 66.9339C237.295 62.0098 232.77 67.31 232.77 67.31Z" fill="#FFC999"/>
<path fill-rule="evenodd" clip-rule="evenodd" d="M218.744 80.7083C217.023 82.526 199.887 96.2143 207.432 103.747C213.192 109.496 218.822 104.819 230.307 90.9481L218.744 80.7083Z" fill="#B398FF"/>
<path fill-rule="evenodd" clip-rule="evenodd" d="M205.056 248.969C205.013 248.784 217.248 294.36 218.398 297.545C221.536 306.238 222.967 307.07 219.163 311.054C218.188 312.074 216.154 312.057 215.038 314.855C211.984 322.513 205.642 328.517 203.487 325.533C201.745 322.638 210.293 308.305 209.173 301.423C208.01 294.273 184.307 243.402 187.526 237.947C190.746 232.491 190.236 213.01 205.056 248.969Z" fill="#FFC999"/>
<path fill-rule="evenodd" clip-rule="evenodd" d="M222.559 311.089C222.559 311.089 222.359 305.822 219.296 300.395C219.296 300.395 216.679 305.386 214.685 310.536C212.383 316.483 211.509 317.06 211.509 317.06C207.108 320.402 204.959 317.969 204.959 317.969C204.959 317.969 203.519 322.43 199.781 328.029C196.435 333.042 214.421 327.283 215.221 321.922C216.021 316.56 218.27 312.781 218.27 312.781L222.127 319.064L223.799 318.403L222.559 311.089Z" fill="#330073"/>
<path fill-rule="evenodd" clip-rule="evenodd" d="M241.381 185.056C241.233 185.152 277.226 159.778 279.647 157.747C286.252 152.202 286.521 150.681 291.234 152.733C292.442 153.258 293.081 155.046 295.891 155.124C303.582 155.337 310.882 158.962 308.96 161.81C306.984 164.268 291.679 161.388 286.009 164.582C280.12 167.9 243.177 205.023 237.362 203.957C231.548 202.891 214.645 209.602 241.381 185.056Z" fill="#FFC999"/>
<mask id="mask0_1313_11693" style="mask-type:alpha" maskUnits="userSpaceOnUse" x="281" y="146" width="33" height="19">
<path d="M281.854 146.309H313.843V164.342H281.854V146.309Z" fill="white"/>
</mask>
<g mask="url(#mask0_1313_11693)">
<path fill-rule="evenodd" clip-rule="evenodd" d="M290.173 149.747C290.173 149.747 285.624 151.615 281.854 156.044C281.854 156.044 287.068 156.732 292.221 156.823C298.171 156.927 298.957 157.507 298.957 157.507C303.301 160.287 301.861 162.953 301.861 162.953C301.861 162.953 306.232 162.78 312.338 164.254C317.807 165.574 306.978 151.669 302.024 152.691C297.069 153.715 293.035 152.96 293.035 152.96L297.3 147.561L296.183 146.309L290.173 149.747Z" fill="#330073"/>
</g>
<path fill-rule="evenodd" clip-rule="evenodd" d="M195.305 213.933L218.707 286.718L189.575 294.387C189.575 294.387 180.425 264.817 170.47 229.201C170.47 229.201 163.294 209.499 177.889 205.053C192.483 200.606 195.305 213.933 195.305 213.933Z" fill="#E0E0E0"/>
<path fill-rule="evenodd" clip-rule="evenodd" d="M169.1 215.272C170.729 187.198 174.716 157.006 177.615 150.952C177.615 150.952 178.839 147.346 188.64 153.537C200.069 160.755 200.924 170.73 200.924 170.73L195.819 214.166C195.467 217.874 196.919 231.617 181.708 231.152C166.736 230.693 169.065 215.883 169.1 215.272Z" fill="#E0E0E0"/>
<path fill-rule="evenodd" clip-rule="evenodd" d="M238.269 215.609L287.42 181.08L271.391 160.191C271.391 160.191 249.245 175.731 223.307 195.017C223.307 195.017 207.411 205.303 215.117 216.186C222.823 227.069 238.269 215.609 238.269 215.609Z" fill="#E0E0E0"/>
<path fill-rule="evenodd" clip-rule="evenodd" d="M239.504 204.643C233.221 182.599 225.006 157.663 221.341 153.425C221.341 153.425 215.18 140.263 207.351 147.18C198.222 155.246 199.369 170.152 199.369 170.152L212.457 211.716C213.411 214.601 217.035 223.367 229.101 220.038C242.521 216.337 239.641 205.123 239.504 204.643Z" fill="#E0E0E0"/>
<path fill-rule="evenodd" clip-rule="evenodd" d="M224.941 163.033C224.941 163.033 222.444 144.309 214.319 138.014L183.798 137.902C183.798 137.902 176.257 144.661 176.257 162.201C176.257 162.201 178.626 165.839 184.824 169.872C188.868 172.502 193.388 176.113 200.452 176.113C207.654 176.113 211.432 172.835 215.525 170.149C221.599 166.162 224.941 163.033 224.941 163.033Z" fill="#E0E0E0"/>
<path fill-rule="evenodd" clip-rule="evenodd" d="M183.646 138.186L214.421 138.014L213.065 133.471L185.207 133.502L183.646 138.186Z" fill="#E0E0E0"/>
<path d="M213.442 137.664C213.595 137.664 213.719 137.788 213.719 137.941C213.719 138.079 213.619 138.193 213.487 138.215L213.442 138.218H184.584C184.431 138.218 184.307 138.094 184.307 137.941C184.307 137.803 184.408 137.689 184.54 137.668L184.584 137.664H213.442Z" fill="#A8A8A8"/>
<path fill-rule="evenodd" clip-rule="evenodd" d="M146.723 23.2734C146.723 23.2734 146.762 31.3431 149.328 34.8463C151.426 37.7095 153.75 34.3741 153.75 34.3741C153.75 34.3741 157.247 28.5197 158.312 24.6515C159.009 22.1163 161.055 17.4951 159.853 16.7895C158.287 15.8688 156.966 20.9348 155.657 21.1128C153.002 21.4727 154.24 13.2833 153.728 11.8484C152.727 9.04199 147.334 13.2863 146.723 23.2734Z" fill="#FFC999"/>
<path d="M152.045 11.7933C152.093 11.6445 152.253 11.563 152.402 11.6114C152.551 11.6597 152.632 11.8196 152.584 11.9684C152.484 12.2749 152.396 12.5904 152.319 12.9143C151.859 14.8561 151.822 16.9308 152.034 18.8463L152.066 19.118C152.077 19.2044 152.089 19.2866 152.1 19.3645L152.142 19.6367C152.146 19.6635 152.15 19.6844 152.153 19.6994C152.182 19.8532 152.081 20.0013 151.927 20.0302C151.773 20.0591 151.625 19.9579 151.596 19.8041L151.576 19.6856L151.556 19.5635C151.527 19.3725 151.498 19.1532 151.471 18.9088C151.252 16.9342 151.291 14.7982 151.768 12.7836C151.848 12.445 151.94 12.1147 152.045 11.7933Z" fill="#DD936F"/>
<path d="M150.165 12.6435C150.22 12.4969 150.384 12.4227 150.53 12.4776C150.677 12.5325 150.751 12.6958 150.696 12.8423L150.657 12.9564C150.64 13.0062 150.621 13.0675 150.599 13.1403L150.576 13.2169C150.483 13.5333 150.39 13.9056 150.303 14.3311C149.936 16.1256 149.791 18.239 149.996 20.6131C150.009 20.769 149.894 20.9063 149.738 20.9198C149.582 20.9332 149.444 20.8178 149.431 20.6618C149.221 18.2312 149.37 16.0635 149.748 14.2175C149.838 13.7763 149.935 13.3886 150.032 13.0574L150.101 12.8334C150.128 12.7492 150.15 12.6858 150.165 12.6435Z" fill="#DD936F"/>
<path d="M148.393 15.8602C148.547 15.8863 148.651 16.0326 148.625 16.1869C148.249 18.4117 148.164 20.187 148.248 21.4842L148.26 21.6438C148.274 21.824 148.288 21.943 148.296 21.9997C148.32 22.1544 148.214 22.2991 148.059 22.3229C147.905 22.3467 147.76 22.2406 147.736 22.0859L147.72 21.9609C147.714 21.9078 147.708 21.8434 147.701 21.7676L147.695 21.6881C147.588 20.3326 147.667 18.4563 148.066 16.0924C148.09 15.9535 148.211 15.8554 148.347 15.8562L148.393 15.8602Z" fill="#DD936F"/>
<path fill-rule="evenodd" clip-rule="evenodd" d="M154.334 27.8547C154.334 27.8547 170.389 63.6262 171.487 68.5052C174.211 80.6027 162.195 82.1729 158.358 74.3737C153.256 63.9971 147.448 29.9178 147.448 29.9178L154.334 27.8547Z" fill="#FFC999"/>
<path fill-rule="evenodd" clip-rule="evenodd" d="M170.27 68.5252C170.27 68.5252 187.617 88.8202 190.487 92.9152C197.419 102.806 193.397 108.769 186.518 108.381C178.224 107.911 159.16 75.0535 159.16 75.0535C159.16 75.0535 157.353 71.0848 161.443 67.2949C166.276 62.8149 170.27 68.5252 170.27 68.5252Z" fill="#FFC999"/>
<path fill-rule="evenodd" clip-rule="evenodd" d="M182.943 83.2097C184.482 85.1841 200.223 100.457 191.988 107.229C185.703 112.397 180.549 107.201 170.449 92.2909L182.943 83.2097Z" fill="#B398FF"/>
<path d="M197.957 132.659C198.094 132.666 198.203 132.772 198.217 132.905L198.219 132.95L197.935 138.372L197.902 139.198C197.89 139.527 197.879 139.886 197.867 140.271L197.861 140.506C197.673 147.225 197.771 154.681 198.366 161.712C198.844 167.366 199.614 172.222 200.718 176.036C200.76 176.183 200.675 176.337 200.528 176.379C200.381 176.422 200.228 176.337 200.185 176.19C199.07 172.336 198.295 167.446 197.814 161.759C197.242 154.998 197.127 147.851 197.285 141.337L197.327 139.804C197.336 139.512 197.346 139.238 197.355 138.984L197.388 138.191L197.665 132.921C197.673 132.768 197.804 132.651 197.957 132.659Z" fill="#A8A8A8"/>
<path fill-rule="evenodd" clip-rule="evenodd" d="M219.199 88.9062C213.508 86.6792 209.162 87.1403 207.299 85.4659C206.197 84.475 205.817 79.7881 205.817 79.7881H192.074C192.074 79.7881 191.694 84.475 190.592 85.4659C188.729 87.1403 183.827 86.1242 178.692 88.9062C173.845 91.5323 176.753 98.7456 178.972 104.71C179.485 106.088 178.6 108.688 179.457 110.604C180.32 112.534 181.631 114.869 182.151 116.118C183.86 120.218 183.509 124.636 184.612 128.358C184.612 128.358 182.856 131.756 185.628 133.135H212.263C215.588 131.618 213.279 128.358 213.279 128.358C214.331 124.807 213.692 121.943 215.252 116.742C215.564 115.701 216.738 114.054 217.738 111.853C219.299 108.42 218.57 105.126 218.779 104.293C220.601 97.0003 224.133 90.837 219.199 88.9062Z" fill="#B398FF"/>
<path d="M203.62 85.4999C203.824 85.4943 203.994 85.6551 204 85.8591C204.005 86.046 203.87 86.2044 203.691 86.2338L203.641 86.2385L194.378 86.4935C194.174 86.4991 194.004 86.3383 193.998 86.1343C193.993 85.9473 194.128 85.789 194.307 85.7596L194.357 85.7548L203.62 85.4999Z" fill="#9C73FF"/>
<path d="M214.825 106.906C215.029 106.906 215.195 107.072 215.195 107.276C215.195 107.463 215.056 107.618 214.875 107.642L214.825 107.645H181.954C181.75 107.645 181.584 107.48 181.584 107.276C181.584 107.089 181.723 106.934 181.904 106.91L181.954 106.906H214.825Z" fill="#9C73FF"/>
<path d="M180.996 96.5066C181.084 96.3223 181.304 96.2439 181.488 96.3315C181.673 96.4191 181.751 96.6395 181.663 96.8238L181.575 97.0194L181.485 97.2306C181.438 97.3429 181.388 97.4651 181.335 97.5968C181.086 98.226 180.836 98.9395 180.603 99.7227C179.759 102.56 179.351 105.517 179.618 108.386C179.836 110.737 180.622 112.631 182.569 115.796C182.586 115.823 182.599 115.851 182.608 115.881L182.636 116.025L182.972 117.91C183.124 118.76 183.278 119.61 183.43 120.442L183.818 122.552L184.195 124.546C184.55 126.398 184.817 127.692 184.969 128.263C184.994 128.356 184.981 128.455 184.934 128.539C183.945 130.299 184.66 132.533 185.626 132.759L185.662 132.766H212.253L212.313 132.728L212.361 132.695C212.506 132.592 212.653 132.462 212.789 132.304C213.516 131.466 213.693 130.244 212.94 128.505C212.91 128.437 212.902 128.361 212.916 128.288L213.113 127.256C213.661 124.363 214.123 121.739 214.503 119.418L214.687 118.275C214.744 117.917 214.796 117.581 214.844 117.268L215 116.216C215.008 116.159 215.029 116.105 215.062 116.057C217.282 112.84 218.255 110.3 218.41 107.464C218.55 104.874 218.076 102.298 217.2 99.8722C216.93 99.1249 216.64 98.4482 216.352 97.8546L216.234 97.6186C216.216 97.5813 216.197 97.5451 216.179 97.5099L216.022 97.2167C216 97.1765 215.983 97.1474 215.973 97.1297C215.869 96.9538 215.928 96.7274 216.104 96.6239C216.28 96.5204 216.506 96.5791 216.61 96.7549L216.694 96.9046L216.724 96.9606C216.813 97.1241 216.911 97.3148 217.016 97.5313C217.316 98.1475 217.615 98.8482 217.895 99.6211C218.802 102.133 219.294 104.805 219.147 107.504C218.989 110.41 218.015 113.017 215.844 116.223L215.72 116.404L215.61 117.149C215.541 117.602 215.462 118.108 215.373 118.665L215.232 119.538C214.874 121.727 214.442 124.186 213.935 126.884L213.663 128.317L213.689 128.381C214.447 130.24 214.249 131.677 213.424 132.697L213.348 132.788C213.042 133.141 212.733 133.36 212.512 133.468C212.478 133.484 212.442 133.495 212.406 133.501L212.35 133.505H185.628L185.573 133.501C184.064 133.274 183.116 130.576 184.171 128.403L184.218 128.31L184.114 127.866C183.957 127.17 183.742 126.108 183.479 124.74L183.143 122.961L182.816 121.196C182.703 120.579 182.589 119.949 182.474 119.315L181.903 116.123L181.788 115.936C179.946 112.91 179.149 110.98 178.901 108.644L178.882 108.454C178.605 105.481 179.025 102.432 179.895 99.5119C180.105 98.8077 180.327 98.1578 180.552 97.5717L180.649 97.3245C180.703 97.1879 180.755 97.0608 180.804 96.9438L180.947 96.6128C180.969 96.5655 180.985 96.53 180.996 96.5066Z" fill="#9C73FF"/>
</svg>
