<svg width="71" height="20" viewBox="0 0 71 20" fill="none" xmlns="http://www.w3.org/2000/svg">
<g id="Logo">
<g id="Mi">
<path d="M0 15.298V0.772626H4.23841L8.12362 11.7439H8.16777L12.0751 0.772626H16.2031V15.298H13.5541L13.6203 2.84768H13.5762L9.13907 15.298H6.93157L2.49448 2.84768H2.45033L2.49448 15.298H0Z" fill="#6A00E0"/>
<path d="M19.425 3.11258V0.684326H21.9637V3.11258H19.425ZM19.4471 15.298V4.39294H21.9195V15.298H19.4471Z" fill="#6A00E0"/>
</g>
<path id="Vector 18 (Stroke)" fill-rule="evenodd" clip-rule="evenodd" d="M25.5084 10.5413C25.057 10.7847 24.4827 10.733 24.0794 10.3705C23.5659 9.909 23.5237 9.11866 23.9852 8.6052C24.2368 8.3252 24.941 7.59371 25.6176 7.16273C25.7943 7.05015 26.0188 6.92541 26.2697 6.84277C26.4992 6.76721 26.9177 6.67112 27.3776 6.83523C27.9174 7.02786 28.2111 7.46262 28.3324 7.86143C28.4395 8.21333 28.4308 8.57358 28.397 8.87042C28.3367 9.40109 28.1939 10.0306 28.0611 10.602C28.0452 10.6704 28.0294 10.7384 28.0136 10.8059C27.904 11.276 27.8 11.7219 27.7235 12.1329C27.8961 11.9862 28.0876 11.8189 28.3029 11.6302C28.3246 11.6112 28.3464 11.592 28.3685 11.5727C29.2917 10.7632 30.521 9.68524 32.0337 8.748C32.9975 8.15083 34.1212 7.54751 35.155 7.13504C35.6702 6.92948 36.1981 6.75711 36.6937 6.66445C37.1547 6.57827 37.7549 6.5274 38.3145 6.73551C39.254 7.08485 39.695 7.8698 39.8417 8.62312C39.9778 9.32212 39.8905 10.0843 39.7478 10.7555C39.4577 12.1195 38.8246 13.6036 38.3661 14.5759C38.0716 15.2003 37.3268 15.4678 36.7023 15.1734C36.0779 14.8789 35.8104 14.1341 36.1049 13.5097C36.5445 12.5774 37.0747 11.3065 37.3025 10.2354C37.4187 9.68896 37.4291 9.31347 37.3877 9.10095C37.3871 9.09761 37.3865 9.09438 37.3858 9.09126C37.3339 9.09432 37.2579 9.10229 37.1531 9.12187C36.8748 9.1739 36.5122 9.28516 36.0814 9.45704C35.2233 9.79943 34.2332 10.3262 33.3504 10.8731C32.0153 11.7004 30.9174 12.6628 29.9789 13.4855L29.9509 13.5101C29.495 13.9098 29.0413 14.3072 28.6355 14.6034C28.2849 14.8593 27.7216 15.2355 27.0726 15.2671C26.6211 15.2891 26.1301 15.1652 25.7366 14.794C25.3767 14.4544 25.2322 14.032 25.1695 13.7169C25.05 13.1165 25.1363 12.4182 25.2331 11.8575C25.3068 11.4303 25.4084 10.9736 25.5084 10.5413ZM27.6229 13.2353C27.6228 13.2354 27.6224 13.2338 27.6217 13.2304C27.6225 13.2336 27.6229 13.2352 27.6229 13.2353Z" fill="#6A00E0"/>
<g id="gly">
<path d="M48.947 13.5762C51.287 13.5762 52.6336 14.5916 52.6336 16.3355C52.6336 18.6313 50.4923 20 46.894 20C43.2075 20 41 18.8742 41 16.9095C41 15.8057 41.8168 14.989 43.1192 14.9227V14.9007C42.5011 14.4812 42.17 13.8852 42.17 13.1126C42.17 12.1854 42.5894 11.5453 43.1854 11.2583V11.2141C42.1038 10.5519 41.5077 9.4702 41.5077 8.10155C41.5077 5.71744 43.362 4.21633 46.3642 4.21633C47.6004 4.21633 48.6159 4.45916 49.4106 4.92274L49.4327 4.90066C49.1015 4.54746 48.9029 4.12803 48.9029 3.66446C48.9029 2.78146 49.7417 2.22958 51.0441 2.22958C51.5739 2.22958 51.883 2.27373 52.1479 2.33996V4.08388C51.9713 4.01766 51.7285 3.97351 51.4194 3.97351C50.6909 3.97351 50.3377 4.28256 50.3377 4.87859C50.3377 5.18764 50.4481 5.56291 50.5806 5.98234C51 6.55629 51.2208 7.28477 51.2208 8.10155C51.2208 10.5077 49.3664 11.9868 46.3642 11.9868C45.6578 11.9868 45.0177 11.8985 44.4437 11.7439C44.3113 11.8985 44.1788 12.2075 44.1788 12.5828C44.1788 13.2009 44.6203 13.5762 45.415 13.5762H48.947ZM46.3642 5.98234C44.819 5.98234 43.8698 6.79912 43.8698 8.10155C43.8698 9.40397 44.819 10.2208 46.3642 10.2208C47.9095 10.2208 48.8587 9.40397 48.8587 8.10155C48.8587 6.79912 47.9095 5.98234 46.3642 5.98234ZM46.872 18.2561C49.1898 18.2561 50.1611 17.5938 50.1611 16.6225C50.1611 15.894 49.6093 15.4967 48.4393 15.4967H45.4812C44.245 15.4967 43.4503 15.872 43.4503 16.7108C43.4503 17.7483 44.7748 18.2561 46.872 18.2561Z" fill="#6A00E0"/>
<path d="M54.4348 15.298V0H56.9072V15.298H54.4348Z" fill="#6A00E0"/>
<path d="M61.9722 19.9117C61.1334 19.9117 60.4711 19.7351 60.1621 19.6247V17.6821C60.4711 17.7704 60.9788 17.9029 61.5307 17.9029C62.6786 17.9029 63.2084 17.3289 64.0252 15.298L63.85 16.2L63.3651 15.15L58.7051 4.39294H61.5528L65.0186 12.8035H65.0627L68.1312 4.39294H70.5594L66.4093 15.5188C65.1952 18.7859 64.1356 19.9117 61.9722 19.9117Z" fill="#6A00E0"/>
</g>
</g>
</svg>
