<svg width="146" height="221" viewBox="0 0 146 221" fill="none" xmlns="http://www.w3.org/2000/svg">
<path d="M85.6529 33.6132C85.6529 33.6132 82.5733 54.9736 85.6529 62.7941C88.7326 70.6146 111.563 109.741 59.2087 115.806C6.85406 121.871 9.93375 92.1695 14.5533 81.9805C19.1728 71.7915 26.2304 54.5748 24.0336 37.5769C24.0336 37.5769 29.6797 22.539 59.722 22.5001C89.7643 22.4612 85.6529 33.6132 85.6529 33.6132Z" fill="#7A2C21"/>
<path d="M74.1351 23.6523C88.2503 26.5169 85.6531 33.6128 85.6531 33.6128C85.6531 33.6128 82.5734 54.9732 85.6531 62.7937C86.6797 65.4054 89.9236 71.548 91.8125 78.7556C89.5592 75.1615 86.5411 70.4537 84.0106 66.879C80.6692 62.1323 73.55 48.0768 74.1351 23.6523Z" fill="#893626"/>
<path d="M14.5535 81.9746C19.173 71.7856 26.2306 54.5688 24.0338 37.571C24.0338 37.571 26.6977 30.2222 39.1243 25.6895C37.1995 37.7898 33.2318 58.6979 27.3188 70.3022C22.4734 79.8201 14.2609 92.6743 14.3944 103.024C10.6372 95.4659 12.4285 86.6581 14.5535 81.9746Z" fill="#893626"/>
<path d="M76.5577 106.661C75.6703 105.96 74.9373 105.101 74.4004 104.132C73.8635 103.163 73.5334 102.103 73.4288 101.013C73.3241 99.923 73.4471 98.8242 73.7907 97.7792C74.1342 96.7343 74.6916 95.7637 75.4311 94.9229C76.1705 94.0821 77.0775 93.3875 78.1002 92.8788C79.123 92.3701 80.2414 92.0572 81.3918 91.9581C82.5421 91.859 83.7018 91.9755 84.8046 92.301C85.9074 92.6265 86.9317 93.1547 87.8191 93.8553C88.4094 94.3417 126.803 131.008 126.803 131.008C128.317 132.204 129.267 133.921 129.444 135.781C129.622 137.641 129.012 139.492 127.75 140.927C126.487 142.361 124.675 143.261 122.712 143.43C120.749 143.598 118.795 143.02 117.281 141.824L76.5577 106.661Z" fill="#FAA284"/>
<path d="M128.794 138.383C128.269 140.163 127.026 141.675 125.334 142.594C123.642 143.512 121.637 143.765 119.75 143.295C117.844 142.797 116.214 141.619 115.202 140.008C114.19 138.398 113.874 136.479 114.32 134.653C114.32 134.653 115.444 122.236 128.117 85.1621L137.3 87.448C137.3 87.448 135.216 121.128 128.943 137.809C128.902 137.916 128.794 138.383 128.794 138.383Z" fill="#FAA284"/>
<path d="M92.8286 122.954L75.3 107.785C73.4012 106.081 72.2605 103.754 72.1108 101.28C71.9612 98.8056 72.8138 96.3706 74.4947 94.4719C76.1756 92.5732 78.5579 91.354 81.1553 91.0633C83.7527 90.7726 86.3693 91.4322 88.4708 92.9075C88.7788 93.1555 96.9194 100.923 105.922 109.526C103.212 112.999 98.5414 118.489 92.8286 122.954Z" fill="#DEDFE0"/>
<path d="M11.4995 199.91C11.572 199.165 11.6868 198.425 11.8434 197.692C11.9512 197.152 12.0795 196.617 12.2386 196.092C17.2483 177.056 29.064 160.973 29.064 160.973L74.1403 163.973C74.1403 163.973 85.2734 177.825 85.6532 200.377C85.7405 201.252 85.335 205.089 85.335 205.089C84.9612 209.126 83.0407 212.893 79.9362 215.68C76.8317 218.466 72.7579 220.079 68.484 220.215L27.8373 217.783C23.2087 217.371 18.9263 215.283 15.8827 211.953C12.8391 208.624 11.2689 204.309 11.4995 199.91Z" fill="#492932"/>
<path d="M46.9258 218.269C47.0294 218.28 47.134 218.261 47.2256 218.214C47.3173 218.167 47.3918 218.095 47.4391 218.007C47.4391 217.958 50.0466 213.143 53.4701 202.832C56.8937 192.522 55.9134 168.788 55.8672 167.772C55.8641 167.708 55.8478 167.645 55.8192 167.587C55.7907 167.529 55.7503 167.477 55.7005 167.434C55.6507 167.391 55.5924 167.358 55.529 167.336C55.4655 167.314 55.3982 167.304 55.3308 167.307C55.2634 167.31 55.1972 167.325 55.1361 167.353C55.075 167.38 55.0201 167.418 54.9746 167.465C54.9291 167.512 54.8938 167.567 54.8708 167.628C54.8478 167.688 54.8376 167.752 54.8406 167.815C54.8406 168.059 55.8672 192.342 52.4898 202.541C49.1124 212.739 46.5511 217.515 46.5254 217.559C46.4943 217.616 46.4753 217.678 46.4696 217.742C46.4638 217.806 46.4714 217.87 46.4919 217.931C46.5124 217.992 46.5454 218.048 46.5891 218.097C46.6327 218.146 46.6861 218.186 46.7462 218.216C46.8026 218.243 46.8633 218.261 46.9258 218.269Z" fill="#603B46"/>
<path d="M52.1411 209.684H52.2181C57.3971 209.266 59.6196 203.566 59.712 203.323C63.7412 193.717 62.1039 168.632 62.032 167.571C62.0281 167.507 62.0109 167.445 61.9814 167.387C61.9519 167.33 61.9107 167.278 61.8601 167.236C61.8096 167.193 61.7507 167.161 61.6868 167.14C61.6229 167.119 61.5554 167.11 61.4879 167.114C61.42 167.118 61.3536 167.134 61.2924 167.163C61.2313 167.191 61.1767 167.23 61.1318 167.279C61.0869 167.327 61.0526 167.384 61.0309 167.445C61.0092 167.506 61.0006 167.57 61.0054 167.635C61.0054 167.892 62.7044 193.562 58.7521 202.982C58.7521 203.051 56.6528 208.332 52.1308 208.716C51.9947 208.716 51.8641 208.768 51.7679 208.859C51.6716 208.95 51.6175 209.074 51.6175 209.203C51.6175 209.332 51.6716 209.456 51.7679 209.547C51.8641 209.638 51.9947 209.689 52.1308 209.689L52.1411 209.684Z" fill="#603B46"/>
<path d="M52.9367 175.076C67.7705 175.98 76.8761 172.187 77.0147 172.157C77.1393 172.104 77.2363 172.006 77.2844 171.884C77.3325 171.763 77.3278 171.629 77.2713 171.511C77.2148 171.393 77.1112 171.301 76.9832 171.255C76.8551 171.209 76.7132 171.214 76.5887 171.267C76.3885 171.355 56.3192 179.681 27.0571 168.213C26.9311 168.164 26.7896 168.163 26.6635 168.213C26.5374 168.262 26.4371 168.356 26.3847 168.476C26.3323 168.595 26.332 168.729 26.384 168.849C26.436 168.968 26.5359 169.063 26.6618 169.113C35.0156 172.453 43.8925 174.467 52.9367 175.076Z" fill="#603B46"/>
<path d="M56.7295 170.699C56.7577 170.303 56.9088 169.925 57.1637 169.611C57.4186 169.298 57.7659 169.063 58.1618 168.936C58.5576 168.809 58.9842 168.796 59.3878 168.899C59.7914 169.001 60.1538 169.215 60.4293 169.513C60.7048 169.81 60.8811 170.179 60.9359 170.571C60.9906 170.964 60.9214 171.363 60.737 171.718C60.5526 172.073 60.2613 172.369 59.8997 172.568C59.5382 172.766 59.1227 172.859 58.7056 172.834C58.1448 172.799 57.6216 172.554 57.2511 172.154C56.8805 171.753 56.6929 171.23 56.7295 170.699Z" fill="#603B46"/>
<path d="M37.4609 173.685C37.4609 173.685 36.4344 187.521 21.3799 186.232C21.3799 186.232 24.6957 176.073 28.3861 171C28.3707 171 34.6379 173.398 37.4609 173.685Z" fill="#603B46"/>
<path d="M75.4131 173.813C75.4131 173.813 76.5064 181.677 82.8608 184.026C82.8608 184.026 80.8077 176.167 78.8059 172.48C77.7004 172.981 76.5679 173.425 75.4131 173.813Z" fill="#603B46"/>
<path d="M21.6675 189.715C27.0826 190.05 31.5173 188.864 34.8742 186.193C40.6897 181.568 41.1413 174.234 41.1567 173.928C41.1571 173.804 41.1079 173.686 41.0193 173.595C40.9307 173.505 40.8092 173.45 40.6794 173.441C40.5509 173.441 40.4269 173.486 40.3318 173.568C40.2368 173.65 40.1777 173.763 40.1661 173.884C40.1661 173.957 39.7093 181.126 34.2377 185.474C30.7474 188.251 25.9688 189.301 20.0352 188.606C19.8991 188.59 19.7618 188.625 19.6535 188.705C19.5452 188.785 19.4748 188.902 19.4578 189.031C19.4408 189.16 19.4785 189.29 19.5628 189.393C19.647 189.496 19.7708 189.562 19.9069 189.578C20.4869 189.627 21.0823 189.666 21.6675 189.715Z" fill="#603B46"/>
<path d="M83.2764 187.085C83.389 187.09 83.5003 187.06 83.593 186.999C83.6858 186.939 83.7549 186.851 83.7897 186.749C83.8318 186.627 83.8209 186.493 83.7593 186.378C83.6977 186.264 83.5905 186.177 83.4612 186.136C74.3248 183.311 73.5446 174.27 73.5344 174.182C73.5248 174.053 73.4616 173.933 73.3586 173.848C73.2556 173.763 73.1213 173.721 72.9852 173.73C72.849 173.739 72.7223 173.799 72.6327 173.896C72.5432 173.994 72.4983 174.121 72.5078 174.25C72.5078 174.347 73.3547 184.035 83.1379 187.065C83.183 187.077 83.2296 187.084 83.2764 187.085Z" fill="#603B46"/>
<path d="M44.4674 217.199C44.5643 217.203 44.6604 217.181 44.7446 217.135C44.8624 217.073 44.9494 216.969 44.9869 216.846C45.0244 216.723 45.0092 216.591 44.9448 216.479C44.9037 216.406 40.7205 209.32 34.2429 204.349C34.1912 204.305 34.1305 204.272 34.0647 204.25C33.9988 204.229 33.9291 204.221 33.8597 204.226C33.7904 204.231 33.7229 204.25 33.6613 204.28C33.5997 204.311 33.5453 204.353 33.5014 204.404C33.4575 204.455 33.4251 204.514 33.406 204.578C33.387 204.641 33.3817 204.708 33.3906 204.773C33.3995 204.838 33.4222 204.901 33.4576 204.958C33.4929 205.015 33.5401 205.064 33.5961 205.103C39.9146 209.967 44.0055 216.878 44.0465 216.951C44.0889 217.022 44.1497 217.083 44.2233 217.126C44.2969 217.169 44.3809 217.194 44.4674 217.199Z" fill="#603B46"/>
<path d="M41.5059 216.036C41.6118 216.043 41.7174 216.019 41.8081 215.967C41.8988 215.914 41.9701 215.837 42.0123 215.745C42.0546 215.652 42.0655 215.55 42.0438 215.451C42.022 215.353 41.9686 215.263 41.8909 215.195C41.8088 215.122 33.4166 207.807 22.2784 205.176C22.1485 205.151 22.0132 205.174 21.9009 205.241C21.7887 205.308 21.7082 205.414 21.6763 205.536C21.6444 205.658 21.6637 205.787 21.73 205.895C21.7963 206.004 21.9046 206.085 22.0321 206.12C32.9136 208.688 41.1107 215.847 41.1928 215.905C41.2783 215.981 41.3888 216.028 41.5059 216.036Z" fill="#603B46"/>
<path d="M41.8907 217.959C42.0269 217.98 42.1661 217.948 42.2777 217.872C42.3894 217.795 42.4644 217.679 42.4861 217.55C42.5079 217.421 42.4747 217.29 42.3939 217.184C42.313 217.078 42.1911 217.007 42.055 216.986C41.6084 216.874 31.0143 214.243 25.2656 215.041C25.1982 215.05 25.1333 215.072 25.0748 215.105C25.0163 215.138 24.9652 215.182 24.9244 215.233C24.8837 215.285 24.8541 215.344 24.8373 215.406C24.8205 215.469 24.8169 215.534 24.8267 215.598C24.8365 215.662 24.8594 215.723 24.8943 215.779C24.9291 215.834 24.9751 215.882 25.0297 215.921C25.0843 215.96 25.1463 215.988 25.2123 216.004C25.2783 216.019 25.347 216.023 25.4144 216.014C30.9579 215.245 41.6854 217.91 41.7932 217.935C41.8242 217.948 41.8571 217.956 41.8907 217.959Z" fill="#603B46"/>
<path d="M53.2189 217.733C53.3059 217.739 53.393 217.724 53.472 217.689C53.551 217.654 53.6194 217.601 53.6706 217.534C53.7168 217.471 58.7162 211.105 65.6403 207.063C65.6981 207.03 65.7484 206.986 65.7882 206.934C65.828 206.882 65.8567 206.823 65.8724 206.761C65.8881 206.698 65.8907 206.634 65.8799 206.57C65.8692 206.507 65.8453 206.446 65.8097 206.392C65.7741 206.337 65.7274 206.29 65.6725 206.253C65.6176 206.216 65.5554 206.189 65.4896 206.175C65.4238 206.16 65.3557 206.158 65.289 206.169C65.2224 206.179 65.1586 206.202 65.1014 206.236C57.9924 210.375 52.8904 216.902 52.8596 216.96C52.7806 217.064 52.7482 217.194 52.7693 217.32C52.7905 217.447 52.8635 217.56 52.9726 217.636C53.0442 217.689 53.1292 217.722 53.2189 217.733Z" fill="#603B46"/>
<path d="M56.3137 216.941C56.4312 216.947 56.5471 216.915 56.6422 216.849C56.7346 216.791 65.8402 210.702 76.9733 209.476C77.0407 209.469 77.1059 209.449 77.1652 209.417C77.2245 209.386 77.2767 209.344 77.3189 209.294C77.3611 209.244 77.3924 209.186 77.411 209.124C77.4297 209.062 77.4353 208.997 77.4275 208.934C77.4198 208.87 77.3988 208.808 77.3659 208.752C77.3329 208.696 77.2886 208.646 77.2354 208.606C77.1823 208.566 77.1214 208.536 77.0561 208.519C76.9909 208.501 76.9226 208.496 76.8552 208.503C65.4501 209.758 56.1392 215.993 56.0468 216.056C55.937 216.131 55.8629 216.245 55.8408 216.371C55.8187 216.498 55.8503 216.628 55.9288 216.732C55.9723 216.792 56.0295 216.842 56.0962 216.878C56.1628 216.914 56.2371 216.936 56.3137 216.941Z" fill="#603B46"/>
<path d="M55.6722 218.804H55.7698C55.8827 218.804 66.8874 217.452 72.2717 218.892C72.3368 218.909 72.4049 218.915 72.4722 218.908C72.5394 218.9 72.6045 218.88 72.6637 218.849C72.7228 218.818 72.7749 218.776 72.8169 218.726C72.8588 218.675 72.8899 218.618 72.9082 218.556C72.9446 218.432 72.9277 218.3 72.8614 218.188C72.795 218.076 72.6845 217.993 72.554 217.958C66.9593 216.46 56.0983 217.783 55.6158 217.841C55.4796 217.846 55.351 217.901 55.2581 217.996C55.1652 218.09 55.1157 218.215 55.1205 218.344C55.1252 218.473 55.1839 218.595 55.2835 218.683C55.3831 218.771 55.5156 218.818 55.6517 218.814L55.6722 218.804Z" fill="#603B46"/>
<path d="M61.5083 80.0202L60.7435 92.033L45.227 91.143L46.2536 75.5117C50.6309 78.6488 56.0249 80.243 61.5083 80.0202Z" fill="#FAA284"/>
<path d="M46.2278 75.5117L46.9925 63.4746L62.509 64.3646L61.4825 80.0202C55.9991 80.243 50.6051 78.6488 46.2278 75.5117Z" fill="#EF8D72"/>
<path d="M55.2924 89.7516C49.6977 89.5328 45.4272 86.0797 44.1234 84.4018C47.1672 84.0711 51.7508 83.3513 54.3891 83.4826C56.8733 83.6091 60.5022 84.6255 63.0327 85.2092C62.8325 86.3667 61.2568 89.9656 55.2924 89.7516Z" fill="#FAA284"/>
<path d="M14.3995 92.8389C14.7896 87.134 23.3562 86.5163 23.3562 86.5163C27.8269 85.9959 35.059 85.4269 39.8223 84.639C39.8223 84.639 42.0653 84.3035 44.9551 83.9922C46.2588 85.675 49.6773 88.5541 55.2669 88.7681C61.2363 89.0016 62.2834 85.9619 62.4528 84.8044C65.1424 85.4221 67.1853 86.0251 67.1853 86.0251C75.3978 88.1942 81.9421 90.0959 81.9421 90.0959C81.9421 90.0959 90.4831 91.7738 90.093 97.4786C89.9185 100.056 83.8772 103.461 81.2235 104.643L81.1824 105.275C88.9638 111.845 89.8312 116.461 89.4771 121.65C88.7379 132.486 78.9651 134.553 78.9651 134.553L74.1197 164.001C55.6416 171.783 29.0382 161.001 29.0382 161.001C27.3752 141.702 23.5821 129.13 22.2732 116.777C21.7866 111.48 21.6991 106.157 22.0114 100.849C19.3783 99.2052 14.2301 95.3144 14.3995 92.8389Z" fill="#E8EBEF"/>
<path d="M86.5564 126.102C86.5564 126.102 84.416 127.604 79.9813 127.692C71.0348 127.877 56.3344 128.504 43.5948 125.747C38.2567 124.594 34.4635 121.768 30.5985 118.5C30.5985 118.5 32.1384 131.758 49.0766 132.531C66.0149 133.304 84.7856 136.432 86.5564 126.102Z" fill="#D4D5D6"/>
<path d="M32.1743 41.8755C32.1743 41.8755 26.6976 8.80382 55.6159 8.82814C85.2116 8.82814 82.4451 37.5811 82.3783 40.5527C81.6238 44.1662 80.6794 49.9392 80.9719 54.9243C81.7059 67.3602 70.6396 75.4482 60.8103 75.4385C41.9267 75.4385 34.9666 57.8034 34.9666 57.8034C33.4618 52.5989 32.5261 47.2615 32.1743 41.8755Z" fill="#FAA284"/>
<path d="M55.6159 8.82814C85.2116 8.82814 82.4451 37.5811 82.3783 40.5527C82.2038 41.3892 82.019 42.3473 81.8394 43.3832C79.7631 42.8109 77.8979 41.698 76.4561 40.171C75.0142 38.644 74.0536 36.7643 73.6834 34.7457C72.2102 27.0419 74.6637 16.9113 64.9268 19.912C64.9268 19.912 56.4371 17.7332 56.3653 22.548C56.2934 27.3629 58.4184 46.6223 32.4464 45.0708C32.2256 43.0914 32.1743 41.8755 32.1743 41.8755C32.1743 41.8755 26.6822 8.80382 55.6159 8.82814Z" fill="#DB7C65"/>
<g opacity="0.9">
<path opacity="0.09" d="M72.2002 49.1123C70.6469 49.3905 69.2156 50.099 68.0873 51.1481C66.959 52.1971 66.1844 53.5397 65.8615 55.0059C65.5386 56.4722 65.6818 57.9962 66.273 59.3853C66.8643 60.7744 67.8771 61.9662 69.1832 62.8099C70.4894 63.6536 72.0303 64.1112 73.611 64.1251C75.1917 64.1389 76.7412 63.7082 78.0636 62.8875C79.3859 62.0668 80.4217 60.893 81.04 59.5145C81.6582 58.1359 81.8311 56.6147 81.5368 55.143C81.1422 53.1704 79.9371 51.4269 78.1862 50.296C76.4354 49.1651 74.2822 48.7393 72.2002 49.1123Z" fill="#EA7460"/>
<path opacity="0.18" d="M72.3647 49.8236C70.9606 50.0745 69.6667 50.7143 68.6466 51.6622C67.6264 52.6101 66.9259 53.8234 66.6337 55.1485C66.3415 56.4737 66.4707 57.8513 67.005 59.1069C67.5393 60.3624 68.4546 61.4397 69.6352 62.2022C70.8157 62.9647 72.2085 63.3783 73.6372 63.3907C75.0659 63.403 76.4664 63.0135 77.6614 62.2714C78.8564 61.5294 79.7923 60.4681 80.3506 59.222C80.9089 57.9758 81.0646 56.6007 80.7979 55.2707C80.4407 53.4894 79.3519 51.9152 77.7707 50.8939C76.1895 49.8725 74.2452 49.4876 72.3647 49.8236Z" fill="#EA7460"/>
<path opacity="0.27" d="M72.4877 50.5378C71.2349 50.7629 70.0807 51.3349 69.1711 52.1815C68.2615 53.0281 67.6372 54.1113 67.3773 55.2941C67.1173 56.4769 67.2334 57.7061 67.7108 58.8264C68.1882 59.9467 69.0054 60.9077 70.0592 61.5879C71.113 62.2681 72.356 62.6369 73.631 62.6477C74.906 62.6585 76.1558 62.3108 77.2223 61.6486C78.2887 60.9864 79.124 60.0394 79.6225 58.9274C80.1209 57.8154 80.2602 56.5883 80.0226 55.4013C79.7028 53.8102 78.7297 52.4044 77.317 51.4926C75.9042 50.5807 74.1673 50.2373 72.4877 50.5378Z" fill="#EA7460"/>
<path opacity="0.36" d="M72.6262 51.2544C71.5222 51.4528 70.5051 51.9569 69.7035 52.7029C68.9018 53.449 68.3516 54.4035 68.1224 55.4458C67.8932 56.4881 67.9953 57.5714 68.4157 58.5588C68.8362 59.5461 69.5562 60.3931 70.4847 60.9928C71.4132 61.5924 72.5085 61.9178 73.6321 61.9277C74.7557 61.9376 75.8572 61.6316 76.7973 61.0484C77.7373 60.4652 78.4738 59.631 78.9136 58.6513C79.3534 57.6715 79.4768 56.5902 79.2681 55.544C79.1294 54.8491 78.8476 54.1868 78.4387 53.595C78.0299 53.0033 77.5019 52.4936 76.8851 52.0953C76.2683 51.6969 75.5747 51.4176 74.844 51.2734C74.1132 51.1291 73.3596 51.1227 72.6262 51.2544Z" fill="#EA7460"/>
<path opacity="0.45" d="M72.77 51.9724C71.8165 52.146 70.9388 52.5835 70.2476 53.2296C69.5565 53.8756 69.0828 54.7012 68.8866 55.6022C68.6903 56.5031 68.7802 57.439 69.145 58.2915C69.5097 59.1441 70.1329 59.8751 70.9358 60.3923C71.7388 60.9095 72.6855 61.1896 73.6563 61.1972C74.6272 61.2049 75.5786 60.9398 76.3906 60.4354C77.2025 59.931 77.8385 59.2099 78.2182 58.3632C78.5979 57.5166 78.7042 56.5823 78.5239 55.6783C78.4038 55.0766 78.1596 54.5032 77.8052 53.9911C77.4508 53.4789 76.9932 53.0381 76.4587 52.6938C75.9242 52.3495 75.3232 52.1085 74.6902 51.9848C74.0572 51.861 73.4047 51.8567 72.77 51.9724Z" fill="#EA7460"/>
<path opacity="0.55" d="M72.9138 52.6876C72.1089 52.8319 71.3672 53.1992 70.7825 53.7429C70.1979 54.2866 69.7965 54.9824 69.6292 55.7423C69.4618 56.5021 69.536 57.2919 69.8424 58.0119C70.1488 58.7318 70.6736 59.3494 71.3504 59.7867C72.0273 60.224 72.8258 60.4613 73.645 60.4686C74.4641 60.4759 75.2672 60.2529 75.9526 59.8278C76.6381 59.4027 77.1751 58.7945 77.4957 58.0802C77.8163 57.3659 77.9063 56.5775 77.7541 55.8148C77.653 55.3083 77.4476 54.8256 77.1497 54.3944C76.8517 53.9631 76.467 53.5916 76.0175 53.3012C75.5681 53.0108 75.0626 52.8072 74.5301 52.7019C73.9976 52.5966 73.4483 52.5917 72.9138 52.6876Z" fill="#EA7460"/>
<path opacity="0.64" d="M73.0572 53.4018C72.402 53.5196 71.7983 53.8189 71.3226 54.2618C70.8468 54.7048 70.5204 55.2714 70.3845 55.8901C70.2487 56.5088 70.3095 57.1518 70.5593 57.7378C70.8091 58.3238 71.2367 58.8264 71.788 59.1821C72.3392 59.5378 72.9894 59.7306 73.6564 59.7362C74.3233 59.7418 74.977 59.5598 75.5348 59.2134C76.0926 58.8669 76.5295 58.3715 76.7901 57.7898C77.0508 57.2081 77.1236 56.5662 76.9992 55.9454C76.9167 55.5331 76.7492 55.1402 76.5064 54.7893C76.2636 54.4383 75.9503 54.1361 75.5842 53.8999C75.2182 53.6637 74.8066 53.4982 74.373 53.4127C73.9395 53.3272 73.4923 53.3235 73.0572 53.4018Z" fill="#EA7460"/>
<path opacity="0.73" d="M73.2012 54.1176C72.6952 54.2096 72.2294 54.4418 71.8629 54.7849C71.4963 55.128 71.2455 55.5664 71.1421 56.0447C71.0388 56.5229 71.0876 57.0195 71.2824 57.4715C71.4772 57.9234 71.8092 58.3104 72.2364 58.5834C72.6635 58.8564 73.1665 59.0031 73.6818 59.005C74.197 59.0068 74.7012 58.8637 75.1305 58.5938C75.5598 58.3239 75.8949 57.9393 76.0933 57.4887C76.2917 57.0382 76.3445 56.542 76.245 56.063C76.1108 55.424 75.7157 54.861 75.1457 54.4966C74.5756 54.1323 73.8768 53.9961 73.2012 54.1176Z" fill="#EA7460"/>
<path opacity="0.82" d="M73.3448 54.8377C72.9886 54.9015 72.6604 55.064 72.4016 55.3046C72.1429 55.5452 71.9653 55.8531 71.8913 56.1894C71.8173 56.5256 71.8503 56.8751 71.986 57.1937C72.1217 57.5122 72.3541 57.7854 72.6537 57.9788C72.9533 58.1721 73.3068 58.277 73.6693 58.2799C74.0318 58.2829 74.3871 58.1839 74.6902 57.9955C74.9933 57.8071 75.2307 57.5378 75.3722 57.2215C75.5137 56.9053 75.553 56.5563 75.4852 56.2189C75.4409 55.9948 75.3503 55.7812 75.2186 55.5904C75.0869 55.3996 74.9167 55.2353 74.7178 55.107C74.519 54.9787 74.2953 54.8888 74.0597 54.8426C73.8241 54.7964 73.5811 54.7947 73.3448 54.8377Z" fill="#EA7460"/>
<path opacity="0.91" d="M73.4885 55.554C73.2821 55.5911 73.0919 55.6853 72.942 55.8248C72.7921 55.9643 72.6892 56.1428 72.6464 56.3377C72.6035 56.5325 72.6226 56.7351 72.7012 56.9197C72.7798 57.1043 72.9144 57.2627 73.088 57.3748C73.2616 57.487 73.4663 57.5478 73.6764 57.5497C73.8865 57.5516 74.0925 57.4945 74.2683 57.3855C74.4441 57.2765 74.5818 57.1205 74.6641 56.9374C74.7464 56.7542 74.7696 56.552 74.7306 56.3564C74.6771 56.0945 74.5165 55.8632 74.2839 55.7129C74.0512 55.5626 73.7654 55.5055 73.4885 55.554Z" fill="#EA7460"/>
<path d="M73.3911 56.5938C73.4054 56.6667 73.4497 56.7312 73.5141 56.7732C73.5786 56.8151 73.6581 56.8311 73.735 56.8175C73.8119 56.804 73.88 56.7621 73.9243 56.7009C73.9686 56.6398 73.9854 56.5646 73.9711 56.4917C73.9562 56.4191 73.9117 56.355 73.8474 56.3132C73.7831 56.2714 73.704 56.2551 73.6272 56.268C73.5506 56.2821 73.483 56.3242 73.4388 56.3852C73.3947 56.4461 73.3775 56.521 73.3911 56.5938Z" fill="#EA7460"/>
</g>
<g opacity="0.9">
<path opacity="0.09" d="M46.8543 48.5614C45.1916 48.8596 43.6595 49.6184 42.4519 50.7416C41.2442 51.8649 40.4152 53.3022 40.0697 54.8719C39.7241 56.4416 39.8776 58.0731 40.5106 59.5602C41.1437 61.0472 42.2279 62.323 43.6261 63.2262C45.0244 64.1294 46.6739 64.6195 48.3661 64.6344C50.0583 64.6494 51.7171 64.1885 53.1329 63.3102C54.5487 62.4318 55.6578 61.1754 56.3199 59.6998C56.9821 58.2241 57.1676 56.5956 56.853 55.0201C56.6441 53.9739 56.2198 52.977 55.6042 52.0862C54.9887 51.1954 54.194 50.4282 53.2655 49.8285C52.337 49.2287 51.2929 48.8081 50.1929 48.5907C49.0929 48.3733 47.9584 48.3634 46.8543 48.5614Z" fill="#EA7460"/>
<path opacity="0.18" d="M47.0083 49.331C45.5062 49.6005 44.1222 50.286 43.0313 51.3007C41.9404 52.3155 41.1915 53.614 40.8794 55.032C40.5672 56.45 40.7058 57.9238 41.2776 59.2672C41.8494 60.6106 42.8288 61.7632 44.0919 62.5792C45.355 63.3952 46.8451 63.838 48.3737 63.8516C49.9024 63.8653 51.401 63.4491 52.6801 62.6558C53.9592 61.8624 54.9613 60.7275 55.5597 59.3946C56.1581 58.0617 56.3259 56.5905 56.042 55.1672C55.8534 54.2219 55.4702 53.321 54.9141 52.5161C54.358 51.7111 53.64 51.0179 52.8011 50.4759C51.9622 49.9339 51.0188 49.5539 50.0249 49.3574C49.0309 49.161 48.0059 49.152 47.0083 49.331Z" fill="#EA7460"/>
<path opacity="0.27" d="M47.1621 50.0861C45.8196 50.3268 44.5827 50.9393 43.6076 51.8461C42.6326 52.7529 41.9631 53.9133 41.684 55.1805C41.4048 56.4477 41.5284 57.765 42.0392 58.9656C42.55 60.1663 43.4251 61.1965 44.5538 61.926C45.6824 62.6555 47.014 63.0516 48.3802 63.0641C49.7464 63.0766 51.0858 62.705 52.2291 61.9963C53.3724 61.2876 54.2683 60.2736 54.8035 59.0825C55.3388 57.8914 55.4892 56.5767 55.236 55.3046C54.8949 53.5985 53.8529 52.0904 52.3389 51.1119C50.825 50.1334 48.963 49.7644 47.1621 50.0861Z" fill="#EA7460"/>
<path opacity="0.36" d="M47.3162 50.8631C46.13 51.071 45.0358 51.6082 44.1724 52.4065C43.309 53.2047 42.7153 54.228 42.4668 55.3465C42.2183 56.465 42.3261 57.6283 42.7765 58.6886C43.2269 59.749 43.9997 60.6586 44.9967 61.3021C45.9937 61.9456 47.1699 62.2939 48.3762 62.3028C49.5825 62.3117 50.7644 61.9809 51.7719 61.3522C52.7793 60.7235 53.567 59.8254 54.0348 58.7719C54.5026 57.7183 54.6296 56.5568 54.3995 55.4347C54.0921 53.9424 53.1758 52.6253 51.8496 51.7693C50.5234 50.9134 48.8943 50.5877 47.3162 50.8631Z" fill="#EA7460"/>
<path opacity="0.45" d="M47.4702 51.6301C46.4487 51.8155 45.5082 52.2837 44.7674 52.9755C44.0266 53.6672 43.5188 54.5515 43.3082 55.5165C43.0976 56.4816 43.1935 57.4842 43.584 58.3976C43.9744 59.311 44.6419 60.0942 45.5019 60.6484C46.362 61.2025 47.3761 61.5027 48.4161 61.511C49.4561 61.5193 50.4754 61.2353 51.3452 60.6949C52.2149 60.1545 52.8961 59.382 53.3027 58.4749C53.7093 57.5679 53.8231 56.567 53.6296 55.5987C53.5009 54.9546 53.2393 54.3408 52.86 53.7926C52.4806 53.2444 51.9908 52.7724 51.4187 52.4038C50.8466 52.0352 50.2033 51.7771 49.5258 51.6443C48.8483 51.5115 48.1497 51.5067 47.4702 51.6301Z" fill="#EA7460"/>
<path opacity="0.55" d="M47.6241 52.4001C46.762 52.5542 45.9675 52.9471 45.3411 53.5291C44.7147 54.1111 44.2846 54.8561 44.1051 55.6698C43.9257 56.4835 44.0049 57.3294 44.3329 58.1004C44.6609 58.8714 45.2229 59.5329 45.9477 60.0012C46.6726 60.4695 47.5277 60.7235 48.405 60.7313C49.2823 60.739 50.1422 60.4999 50.8761 60.0444C51.61 59.589 52.1848 58.9374 52.5278 58.1723C52.8709 57.4072 52.9667 56.5629 52.8032 55.7462C52.5828 54.6527 51.914 53.6864 50.9433 53.0593C49.9725 52.4321 48.779 52.1951 47.6241 52.4001Z" fill="#EA7460"/>
<path opacity="0.64" d="M47.773 53.167C47.0773 53.2962 46.4375 53.6175 45.9341 54.0905C45.4307 54.5634 45.0862 55.1669 44.944 55.825C44.8018 56.483 44.8682 57.1662 45.1349 57.7886C45.4015 58.411 45.8566 58.9447 46.4427 59.3226C47.0288 59.7005 47.7197 59.9056 48.4286 59.9122C49.1375 59.9188 49.8326 59.7266 50.4264 59.3597C51.0202 58.9928 51.4863 58.4676 51.7658 57.8503C52.0453 57.233 52.1259 56.5512 51.9973 55.8906C51.9111 55.4478 51.7331 55.0256 51.4736 54.6484C51.214 54.2712 50.878 53.9466 50.4852 53.6933C50.0923 53.44 49.6503 53.2631 49.1847 53.1727C48.7192 53.0824 48.2393 53.0805 47.773 53.167Z" fill="#EA7460"/>
<path opacity="0.73" d="M47.9269 53.9331C47.3856 54.0306 46.8869 54.278 46.4938 54.6439C46.1008 55.0098 45.831 55.478 45.7187 55.9891C45.6063 56.5003 45.6564 57.0315 45.8626 57.5157C46.0688 57.9999 46.4218 58.4153 46.8771 58.7095C47.3323 59.0036 47.8694 59.1633 48.4204 59.1683C48.9714 59.1734 49.5116 59.0235 49.9728 58.7377C50.434 58.452 50.7954 58.0431 51.0114 57.5627C51.2273 57.0824 51.2882 56.5521 51.1863 56.039C51.1185 55.6978 50.9804 55.3727 50.7798 55.0821C50.5792 54.7915 50.3202 54.5413 50.0174 54.3457C49.7147 54.1501 49.3743 54.013 49.0155 53.9422C48.6568 53.8714 48.2869 53.8683 47.9269 53.9331Z" fill="#EA7460"/>
<path opacity="0.82" d="M48.0808 54.6992C47.6985 54.7672 47.3462 54.9412 47.0683 55.1991C46.7904 55.457 46.5995 55.7872 46.5197 56.1479C46.4399 56.5086 46.4749 56.8837 46.6202 57.2256C46.7654 57.5674 47.0145 57.8608 47.3358 58.0685C47.6571 58.2763 48.0362 58.389 48.4252 58.3925C48.8141 58.396 49.1954 58.2901 49.5208 58.0882C49.8462 57.8863 50.1011 57.5974 50.2532 57.2582C50.4052 56.919 50.4477 56.5447 50.3752 56.1826C50.2768 55.6984 49.9804 55.2708 49.5506 54.9929C49.1208 54.715 48.5925 54.6094 48.0808 54.6992Z" fill="#EA7460"/>
<path opacity="0.91" d="M48.2402 55.4685C48.0186 55.5078 47.8143 55.6085 47.6531 55.7579C47.4919 55.9073 47.3811 56.0986 47.3348 56.3076C47.2884 56.5167 47.3085 56.7341 47.3925 56.9323C47.4766 57.1305 47.6208 57.3006 47.8069 57.4212C47.9931 57.5417 48.2128 57.6072 48.4382 57.6094C48.6636 57.6116 48.8847 57.5503 49.0734 57.4335C49.2621 57.3166 49.41 57.1493 49.4983 56.9527C49.5866 56.7562 49.6114 56.5392 49.5696 56.3293C49.5424 56.1898 49.4865 56.0568 49.4048 55.938C49.3232 55.8191 49.2176 55.7167 49.094 55.6366C48.9704 55.5566 48.8314 55.5006 48.6848 55.4717C48.5383 55.4428 48.3871 55.4418 48.2402 55.4685Z" fill="#EA7460"/>
<path d="M48.1373 56.5863C48.1487 56.6452 48.1783 56.6995 48.2223 56.7423C48.2663 56.7852 48.3228 56.8147 48.3845 56.827C48.4463 56.8394 48.5105 56.8341 48.5691 56.8117C48.6277 56.7894 48.6779 56.7511 48.7134 56.7017C48.7489 56.6522 48.7681 56.5939 48.7685 56.5341C48.769 56.4743 48.7506 56.4157 48.7158 56.3658C48.681 56.3159 48.6314 56.2769 48.5731 56.2538C48.5149 56.2307 48.4507 56.2246 48.3888 56.2362C48.3478 56.2431 48.3088 56.2578 48.2738 56.2793C48.2389 56.3008 48.2089 56.3286 48.1855 56.3612C48.1621 56.3938 48.1457 56.4305 48.1375 56.4692C48.1292 56.5078 48.1291 56.5477 48.1373 56.5863Z" fill="#EA7460"/>
</g>
<path d="M61.0259 57.9301C64.3057 59.3502 66.364 58.6158 66.79 56.5294C67.0672 55.1676 66.2305 53.6113 65.3374 52.8623C63.4896 51.3109 62.6735 46.7732 62.6632 46.7246C62.5195 47.6973 62.7248 51.4908 64.973 54.1171C65.2006 54.3573 65.3737 54.6392 65.4814 54.9455C65.5891 55.2517 65.6292 55.5756 65.5992 55.8971C65.4812 57.4486 63.9054 58.6596 61.0259 57.9301Z" fill="#DB7C65"/>
<path d="M72.9083 44.1564C72.9083 44.1564 75.7827 44.2294 76.2035 43.2129C76.2448 43.4264 76.2407 43.6456 76.1915 43.8576C76.1424 44.0696 76.0491 44.2702 75.9172 44.4477C75.7853 44.6252 75.6175 44.776 75.4234 44.8913C75.2293 45.0066 75.0129 45.0842 74.7869 45.1194C75.3782 45.8686 75.6823 46.7864 75.6492 47.7213C75.6184 49.6667 74.3403 51.2279 72.7902 51.2036C71.2401 51.1793 70.0185 49.5841 70.0544 47.6387C70.0904 45.6933 71.3376 44.1321 72.9083 44.1564Z" fill="#502F26"/>
<path d="M51.3556 43.8351C51.3556 43.8351 54.2299 43.913 54.6457 42.8965C54.6876 43.1094 54.6842 43.3282 54.6356 43.5399C54.587 43.7515 54.4942 43.9519 54.3627 44.129C54.2312 44.3062 54.0636 44.4567 53.8698 44.5716C53.676 44.6865 53.4599 44.7635 53.2342 44.7981C53.824 45.548 54.128 46.4653 54.0965 47.4001C54.0606 49.3455 52.7825 50.9066 51.2375 50.8872C49.6925 50.8677 48.4658 49.2677 48.4966 47.3174C48.5274 45.3671 49.7798 43.8108 51.3556 43.8351Z" fill="#502F26"/>
<path d="M69.0074 38.6988C69.0074 38.6988 73.6269 37.5121 79.9659 39.2581C79.9659 39.2581 80.0019 38.8155 78.8111 37.8525C77.6203 36.8896 73.5294 35.9655 69.9518 37.3662C69.9518 37.3565 68.0938 38.2951 69.0074 38.6988Z" fill="#7A2C21"/>
<path d="M57.3968 38.4472C57.3968 38.4472 52.7773 37.1827 46.4331 38.8168C46.4331 38.8168 46.4023 38.3742 47.6136 37.4307C48.748 36.5455 52.9312 35.6361 56.478 37.0854C56.4524 37.0854 58.3207 38.0581 57.3968 38.4472Z" fill="#7A2C21"/>
<path d="M55.2255 60.7852C55.2255 60.7852 62.5552 62.3172 69.4177 60.9943C69.4177 60.9943 68.1089 66.9375 62.2318 66.8305C56.673 66.7624 55.2717 61.9573 55.2255 60.7852Z" fill="#B22828"/>
<path d="M55.7185 62.6236C55.4457 62.0473 55.2724 61.4331 55.2052 60.8047C55.2052 60.8047 62.5349 62.3367 69.3975 61.0138C69.2353 61.6569 68.9959 62.2802 68.684 62.8717C66.5282 63.4115 61.8522 64.1313 55.7185 62.6236Z" fill="white"/>
<path d="M32.8416 41.9637C32.8416 41.9637 35.5466 42.5278 36.491 49.7453C37.4354 56.9627 35.526 57.5609 34.9512 57.8089C34.9512 57.8089 28.0527 59.6327 25.6608 48.8163C23.6846 39.8286 32.8416 41.9637 32.8416 41.9637Z" fill="#FAA284"/>
<path d="M34.7561 52.8326C34.7561 52.8326 29.7311 50.4495 33.6577 48.0566C33.6577 48.0566 32.3386 42.6047 28.9766 43.8351C25.6146 45.0656 28.3042 50.1577 28.9766 51.2325C30.3727 53.4454 34.7561 56.1543 34.7561 52.8326Z" fill="#DB7C65"/>
<path d="M64.9266 19.9315C64.9266 19.9315 52.2383 12.933 52.0433 23.4965C51.8482 34.06 50.5445 44.9347 31.0706 45.0563C31.0706 45.0563 26.2714 44.8228 25.676 48.8304C25.676 48.8304 19.9427 26.6285 29.1817 13.9835C37.4353 2.66129 58.0692 -4.87225 65.6914 3.69721C65.6914 3.69721 84.6212 -2.58155 88.1937 13.964C90.7601 25.865 84.6007 37.9605 81.8546 43.213C81.8546 43.213 76.1264 38.5538 76.2085 33.3645C76.2907 28.1751 77.8562 12.6363 64.9266 19.9315Z" fill="#893626"/>
<path d="M73.1956 18.7059C77.1222 14.6984 79.7297 8.66283 81.2541 4.17383C84.3902 5.75932 87.0747 8.7066 88.2091 13.964C88.5484 15.5944 88.7424 17.249 88.7891 18.9102C84.7277 21.0349 80.4012 22.6688 75.9108 23.7737C75.5054 21.5948 74.7046 19.6835 73.1956 18.7059Z" fill="#9B4135"/>
<path d="M40.7511 4.30469C45.54 11.206 49.8464 15.8652 53.7114 18.8027C52.7311 19.6879 52.0895 21.1615 52.0433 23.4766C52.0433 23.9629 52.0433 24.493 52.0073 24.9988C42.373 23.8316 33.6216 20.9767 26.795 18.1073C27.4391 16.6524 28.2388 15.2639 29.1817 13.9636C31.9586 10.1603 36.1367 6.79966 40.7511 4.30469Z" fill="#9B4135"/>
<path d="M65.6916 3.69633C65.6916 3.69633 66.2921 13.8318 64.9217 19.099C67.2645 14.1178 68.1594 8.63383 67.5137 3.21484L65.6916 3.69633Z" fill="#7A2C21"/>
<path d="M14.8768 94.6408C15.0961 93.5503 15.5432 92.5123 16.1919 91.5879C16.8405 90.6634 17.6776 89.8711 18.6539 89.2575C19.6303 88.6439 20.7262 88.2214 21.8773 88.0147C23.0284 87.8081 24.2115 87.8215 25.3571 88.0543C26.5026 88.287 27.5875 88.7343 28.5481 89.3699C29.5086 90.0055 30.3254 90.8165 30.9505 91.7555C31.5755 92.6944 31.9963 93.7422 32.1879 94.8374C32.3796 95.9325 32.3383 97.0529 32.0666 98.1328C31.9075 98.838 15.4979 148.115 15.4979 148.115C15.0553 149.913 13.8852 151.474 12.2396 152.463C10.5939 153.452 8.6043 153.788 6.69919 153.401C4.79409 153.013 3.12587 151.932 2.05372 150.39C0.981583 148.848 0.591284 146.969 0.966887 145.158L14.8768 94.6408Z" fill="#FAA284"/>
<path d="M1.10039 146.3C1.16476 144.454 1.99164 142.707 3.40292 141.433C4.8142 140.159 6.69694 139.462 8.64561 139.491C10.6215 139.545 12.4992 140.319 13.8869 141.653C15.2746 142.987 16.065 144.777 16.0933 146.65C16.0933 146.65 18.1464 158.965 15.1951 197.834L5.69938 197.692C5.69938 197.692 -0.773087 164.523 1.07986 146.903C1.11065 146.777 1.10039 146.3 1.10039 146.3Z" fill="#FAA284"/>
<path d="M7.26458 116.087L13.2494 94.3427C13.9765 91.9812 15.6209 89.9684 17.8514 88.7097C20.0819 87.451 22.733 87.0398 25.2706 87.5589C27.8083 88.0781 30.0441 89.489 31.5279 91.5075C33.0117 93.5261 33.6333 96.0024 33.2674 98.4377C33.1853 98.8122 29.7309 109.259 25.8967 120.81C21.4055 120.148 14.0963 118.782 7.26458 116.087Z" fill="#F0F1F2"/>
<path d="M14.7998 194.53C14.7998 194.53 21.4724 199.058 22.0473 201.339C22.6222 203.62 24.4751 209.004 24.4854 210.094C24.5111 212.837 25.9175 216.416 25.1475 216.664C24.3776 216.912 22.8634 217.579 21.0413 212.248L21.5546 218.459C21.5546 218.459 21.8882 220.696 20.0147 220.891C19.7603 220.936 19.4987 220.931 19.2464 220.876C18.9941 220.821 18.7564 220.718 18.5479 220.572C18.3395 220.427 18.1649 220.242 18.0349 220.03C17.9049 219.818 17.8223 219.583 17.7922 219.339L16.9607 217.082C16.823 217.444 16.5595 217.751 16.2135 217.953C15.8675 218.154 15.4595 218.238 15.0564 218.191C13.4293 218.114 12.9109 215.453 12.9109 215.453C12.7115 215.809 12.3973 216.095 12.0142 216.27C11.631 216.445 11.1989 216.5 10.7808 216.426C10.3665 216.355 9.97881 216.183 9.65576 215.927C9.3327 215.672 9.0854 215.341 8.93812 214.967C8.70235 215.11 8.43875 215.207 8.16285 215.252C7.88694 215.297 7.60429 215.289 7.33155 215.229C6.1818 214.806 5.43755 212.311 5.43755 212.311C4.65792 207.193 4.74803 201.99 5.70446 196.899C5.70446 196.899 7.84998 188.879 14.7998 194.53Z" fill="#FAA284"/>
<path d="M7.37792 215.298C7.65067 215.358 7.9333 215.366 8.2092 215.321C8.48511 215.276 8.7487 215.179 8.98448 215.036C9.13175 215.409 9.37906 215.74 9.70212 215.996C10.0252 216.252 10.4129 216.424 10.8272 216.495C11.2453 216.569 11.6774 216.514 12.0605 216.339C12.4437 216.164 12.7579 215.878 12.9573 215.522C12.9573 215.522 13.4706 218.182 15.1028 218.26C15.5059 218.307 15.9138 218.223 16.2598 218.022C16.6058 217.82 16.8693 217.513 17.0071 217.151L17.8386 219.408C17.867 219.646 17.9454 219.876 18.069 220.084C18.1926 220.293 18.3591 220.476 18.5585 220.623C18.7579 220.77 18.9863 220.877 19.2303 220.939C19.4742 221.001 19.7288 221.016 19.979 220.984C21.8524 220.799 21.5958 218.513 21.5958 218.513L21.0825 212.424C21.0825 212.39 20.2561 207.21 19.902 207.025L20.4717 213.183C20.4717 213.183 19.4708 215.853 17.0995 214.851C16.5121 215.271 15.7855 215.478 15.0511 215.434C14.3167 215.39 13.6231 215.099 13.0959 214.612C13.0959 214.612 10.3293 215.663 8.96396 213.883C8.96396 213.883 6.51048 214.822 5.45312 212.156L5.49418 212.419C5.49418 212.419 6.22818 214.875 7.37792 215.298Z" fill="#EF8D72"/>
<path d="M140.194 36.9835C140.475 37.0131 140.746 37.0949 140.993 37.2243C141.24 37.3536 141.457 37.5279 141.633 37.7372C141.808 37.9465 141.939 38.1866 142.016 38.4437C142.093 38.7008 142.116 38.9698 142.083 39.2353L138.105 72.0055C138.038 72.5423 137.749 73.0322 137.302 73.3676C136.855 73.7031 136.285 73.8569 135.718 73.7952L119.719 72.0492C119.153 71.987 118.636 71.7144 118.282 71.2913C117.928 70.8681 117.766 70.3291 117.831 69.7926L121.814 37.0224C121.881 36.4846 122.17 35.994 122.619 35.6583C123.067 35.3227 123.638 35.1696 124.206 35.2326L140.194 36.9835Z" fill="#C61818"/>
<path d="M136.755 88.5068C136.755 88.5068 142.17 78.8674 143.602 75.9201C144.429 74.2082 145.06 73.2063 145.25 71.7327C145.358 70.8767 142.987 69.1842 142.987 69.1842C142.432 67.8273 137.104 61.7236 135.149 62.7012C131.73 64.4034 126.936 66.3877 126.936 66.3877C126.936 66.3877 125.802 66.9276 126.218 67.4577C126.452 67.794 126.773 68.0685 127.15 68.2556C127.527 68.4426 127.948 68.5363 128.373 68.5276L126.089 69.9332C126.089 69.9332 125.129 70.5071 125.35 70.9399C126.156 72.54 127.963 71.9953 127.963 71.9953C127.963 71.9953 126.454 73.1966 126.562 73.7073C126.746 74.5876 128.189 74.8696 128.563 74.8113C128.299 75.1862 128.069 75.5816 127.876 75.9931C127.752 76.3092 127.963 76.7664 129.036 76.9658C129.036 76.9658 124.267 81.3964 127.624 87.0527C127.624 87.0527 127.429 90.9434 131.484 91.8043C135.539 92.6651 136.755 88.5068 136.755 88.5068Z" fill="#FAA284"/>
<path d="M129.035 76.956C129.035 76.956 130.437 77.0484 133.383 74.2324C133.383 74.2324 135.39 76.1389 136.021 76.7079C136.021 76.7079 131.083 80.0492 129.831 84.7813C129.852 84.7813 130.185 79.6795 129.035 76.956Z" fill="#EF8D72"/>
<path d="M140.117 75.9488C140.117 75.9488 135.929 71.2264 133.845 70.8033C132.89 70.6136 128.568 74.8108 128.568 74.8108C128.568 74.8108 131.992 70.4774 133.819 70.4336C136.16 70.4142 140.117 75.9488 140.117 75.9488Z" fill="#EF8D72"/>
<path d="M141.657 72.4572C141.657 72.4572 136.591 68.4497 134.199 68.5032C132.495 68.5421 127.963 72.0049 127.963 72.0049C127.963 72.0049 132.644 67.8563 134.379 68.0412C137.797 68.3913 141.657 72.4572 141.657 72.4572Z" fill="#EF8D72"/>
<path d="M142.268 69.1018C142.268 69.1018 136.335 65.8822 134.6 66.1546C132.865 66.4269 128.374 68.5279 128.374 68.5279C128.374 68.5279 134.702 65.2548 135.77 65.2402C136.622 65.2402 137.941 66.6993 137.941 66.6993L142.268 69.1018Z" fill="#EF8D72"/>
</svg>
