<svg width="226" height="294" viewBox="0 0 226 294" fill="none" xmlns="http://www.w3.org/2000/svg">
<path d="M107.577 48.8935C107.577 48.8935 111.952 79.964 107.577 91.3395C103.203 102.715 70.7797 159.628 145.148 168.45C219.516 177.271 215.142 134.068 208.58 119.248C202.018 104.427 191.993 79.3839 195.106 54.6591C195.106 54.6591 187.086 32.7853 144.419 32.7287C101.752 32.6721 107.577 48.8935 107.577 48.8935Z" fill="#7A2C21"/>
<path d="M123.96 34.4043C103.91 38.5711 107.599 48.8925 107.599 48.8925C107.599 48.8925 111.974 79.963 107.599 91.3385C106.141 95.1374 101.54 104.072 98.8501 114.556C102.051 109.328 106.338 102.481 109.94 97.2809C114.657 90.3764 124.777 69.9316 123.96 34.4043Z" fill="#893626"/>
<path d="M208.58 119.24C202.018 104.42 191.993 79.3765 195.106 54.6517C195.106 54.6517 191.329 43.9624 173.67 37.3691C176.405 54.9701 182.04 85.3826 190.44 102.262C197.33 116.106 208.995 134.804 208.806 149.858C214.143 138.865 211.591 126.053 208.58 119.24Z" fill="#893626"/>
<path d="M192.5 293C196.181 293 199.101 293.5 199.101 292.5C199.101 291.5 199.276 289.936 199.101 289.158C193.866 261.08 178.643 236.709 178.643 236.709L114.482 237.063C114.482 237.063 96.7196 260.281 94 293C98 293 116.5 293 116.5 293C130.5 293 110.5 293 137 293C143.5 293 150 293 156.5 293H166C172.596 292.808 174.5 293 183.5 293C191.5 293 182.5 293 192.5 293Z" fill="#492932"/>
<path d="M143.471 255.06C122.327 255.06 109.808 248.749 109.626 248.657C109.455 248.569 109.327 248.419 109.27 248.239C109.214 248.059 109.233 247.865 109.324 247.699C109.415 247.533 109.57 247.408 109.755 247.353C109.94 247.298 110.14 247.317 110.312 247.405C110.589 247.547 138.236 261.419 180.823 247.363C181.005 247.304 181.203 247.317 181.375 247.399C181.547 247.481 181.679 247.626 181.742 247.801C181.804 247.979 181.792 248.173 181.707 248.341C181.622 248.51 181.472 248.639 181.29 248.7C169.129 252.822 156.352 254.971 143.471 255.06Z" fill="#603B46"/>
<path d="M135.509 251.304C137.173 251.304 138.521 249.996 138.521 248.383C138.521 246.769 137.173 245.461 135.509 245.461C133.846 245.461 132.498 246.769 132.498 248.383C132.498 249.996 133.846 251.304 135.509 251.304Z" fill="#603B46"/>
<path d="M165.563 254.401C165.563 254.401 165.716 274.577 187.144 274.04C187.144 274.04 183.426 258.993 178.687 251.303C178.687 251.303 169.573 254.224 165.563 254.401Z" fill="#603B46"/>
<path d="M111.734 251.218C111.734 251.218 109.422 262.537 100.185 265.367C100.185 265.367 103.896 254.147 107.053 248.969C108.571 249.799 110.133 250.55 111.734 251.218Z" fill="#603B46"/>
<path d="M186.379 279.069C178.672 279.069 172.526 276.947 167.998 272.78C160.204 265.55 160.27 254.812 160.277 254.387C160.277 254.199 160.354 254.02 160.491 253.887C160.627 253.754 160.813 253.68 161.006 253.68C161.106 253.68 161.204 253.699 161.296 253.737C161.387 253.775 161.469 253.831 161.538 253.902C161.606 253.972 161.659 254.055 161.693 254.146C161.727 254.237 161.741 254.333 161.735 254.43C161.735 254.536 161.684 265.041 169.026 271.804C173.707 276.141 180.378 278.107 188.858 277.626C189.051 277.615 189.241 277.679 189.386 277.803C189.531 277.928 189.619 278.104 189.631 278.291C189.642 278.479 189.577 278.663 189.448 278.804C189.319 278.945 189.139 279.03 188.945 279.041C188.07 279.041 187.217 279.069 186.379 279.069Z" fill="#603B46"/>
<path d="M99.3023 269.782C99.1367 269.787 98.9743 269.737 98.8418 269.641C98.7093 269.544 98.6145 269.407 98.5732 269.251C98.527 269.069 98.557 268.877 98.6568 268.716C98.7566 268.556 98.918 268.44 99.1055 268.395C112.324 265.099 114.307 252.046 114.329 251.912C114.356 251.728 114.457 251.561 114.61 251.449C114.763 251.336 114.955 251.286 115.146 251.311C115.337 251.335 115.51 251.433 115.628 251.581C115.745 251.73 115.798 251.917 115.773 252.103C115.773 252.245 113.629 266.252 99.4627 269.789C99.4091 269.792 99.3554 269.79 99.3023 269.782Z" fill="#603B46"/>
<path d="M140.489 116.298L140.416 133.807L162.493 133.891L162.588 111.119C156.068 115.289 148.252 117.12 140.489 116.298Z" fill="#FAA284"/>
<path d="M162.603 111.119L162.676 93.5673L140.598 93.4824L140.504 116.297C148.267 117.12 156.082 115.289 162.603 111.119Z" fill="#EF8D72"/>
<path d="M148.363 130.976C156.311 131.16 162.705 126.519 164.71 124.198C160.43 123.456 153.999 122.005 150.266 121.963C146.737 121.963 141.517 123.081 137.872 123.696C138.003 125.394 139.884 130.792 148.363 130.976Z" fill="#FAA284"/>
<path d="M206.028 139.083C206.028 130.771 193.947 129.094 193.947 129.094C187.655 127.941 177.462 126.477 170.791 124.913C170.791 124.913 167.641 124.206 163.558 123.498C161.553 125.819 156.427 129.695 148.48 129.511C140.001 129.32 138.805 124.814 138.652 123.145C134.788 123.81 131.827 124.496 131.827 124.496C119.965 126.922 110.516 129.101 110.516 129.101C110.516 129.101 98.4418 130.771 98.4418 139.083C98.4418 142.839 106.841 148.322 110.487 150.275V151.194C98.821 160.044 96.9836 166.673 96.9836 174.228C96.9836 190.018 110.559 193.888 110.559 193.888L114.555 237.041C140.008 249.973 178.716 236.688 178.716 236.688C182.93 208.822 189.507 190.91 192.569 173.096C193.762 165.45 194.395 157.732 194.464 149.999C198.365 147.883 206.028 142.691 206.028 139.083Z" fill="#E8EBEF"/>
<path d="M100.542 180.97C100.542 180.97 103.458 183.34 109.699 183.863C122.371 184.924 143.15 187.139 161.465 184.28C169.15 183.085 174.801 179.328 180.59 174.914C180.59 174.914 177.141 194.015 153.059 193.64C128.977 193.265 102.087 196.123 100.542 180.97Z" fill="#D4D5D6"/>
<path d="M183.55 60.9119C183.55 60.9119 191.322 12.8064 150.252 12.8418C108.205 12.8418 112.134 54.6652 112.229 58.9877C113.308 64.2439 114.65 72.6411 114.227 79.8923C113.184 97.9814 128.911 109.746 142.873 109.732C169.697 109.732 179.583 84.0803 179.583 84.0803C181.721 76.5099 183.05 68.7462 183.55 60.9119Z" fill="#FAA284"/>
<path d="M150.252 12.8418C108.205 12.8418 112.134 54.6652 112.229 58.9877C112.484 60.2044 112.747 61.5981 112.995 63.1049C115.944 62.2724 118.593 60.6536 120.642 58.4325C122.69 56.2114 124.054 53.4772 124.58 50.5409C126.68 39.3352 123.188 24.5993 137.026 28.9642C137.026 28.9642 149.085 25.7949 149.18 32.7985C149.275 39.8021 146.264 67.8164 183.156 65.5597C183.47 62.6805 183.55 60.9119 183.55 60.9119C183.55 60.9119 191.322 12.8064 150.252 12.8418Z" fill="#DB7C65"/>
<g opacity="0.9">
<path opacity="0.09" d="M126.694 71.4378C128.901 71.8426 130.934 72.8731 132.537 74.399C134.139 75.925 135.24 77.8778 135.698 80.0106C136.157 82.1434 135.954 84.3602 135.114 86.3808C134.274 88.4014 132.835 90.1349 130.98 91.3621C129.125 92.5893 126.936 93.255 124.691 93.2751C122.445 93.2952 120.244 92.6688 118.366 91.475C116.487 90.2813 115.016 88.5738 114.138 86.5687C113.26 84.5635 113.014 82.3506 113.432 80.21C113.993 77.3406 115.704 74.8047 118.191 73.1597C120.678 71.5147 123.737 70.8953 126.694 71.4378Z" fill="#EA7460"/>
<path opacity="0.18" d="M126.49 72.4698C128.482 72.8399 130.316 73.7745 131.761 75.1556C133.206 76.5367 134.196 78.3023 134.607 80.2293C135.018 82.1563 134.831 84.1582 134.069 85.9821C133.308 87.806 132.007 89.3701 130.33 90.4766C128.653 91.5831 126.675 92.1825 124.647 92.199C122.619 92.2155 120.632 91.6484 118.936 90.5693C117.24 89.4902 115.912 87.9476 115.119 86.1363C114.326 84.3251 114.105 82.3265 114.482 80.3931C114.732 79.1067 115.242 77.881 115.981 76.7861C116.72 75.6912 117.675 74.7487 118.791 74.0126C119.907 73.2765 121.161 72.7613 122.482 72.4966C123.803 72.2318 125.165 72.2227 126.49 72.4698Z" fill="#EA7460"/>
<path opacity="0.27" d="M126.286 73.5112C128.065 73.8398 129.704 74.6729 130.995 75.9049C132.286 77.137 133.171 78.7128 133.539 80.4331C133.908 82.1534 133.742 83.941 133.063 85.5699C132.385 87.1988 131.223 88.596 129.726 89.5847C128.23 90.5734 126.464 91.1093 124.653 91.1247C122.843 91.1401 121.068 90.6342 119.553 89.671C118.039 88.7079 116.853 87.3306 116.145 85.7135C115.437 84.0963 115.239 82.3118 115.576 80.5855C116.03 78.2697 117.413 76.2236 119.422 74.8971C121.43 73.5705 123.899 73.072 126.286 73.5112Z" fill="#EA7460"/>
<path opacity="0.36" d="M126.082 74.5513C127.652 74.836 129.1 75.5663 130.242 76.6497C131.384 77.7331 132.169 79.1209 132.498 80.6375C132.827 82.154 132.684 83.7311 132.089 85.1691C131.493 86.6071 130.471 87.8413 129.152 88.7156C127.834 89.5898 126.277 90.0647 124.68 90.0802C123.083 90.0956 121.517 89.651 120.18 88.8025C118.844 87.954 117.797 86.7398 117.172 85.3137C116.547 83.8875 116.372 82.3135 116.67 80.7908C117.068 78.7536 118.282 76.9527 120.046 75.783C121.811 74.6133 123.982 74.1704 126.082 74.5513Z" fill="#EA7460"/>
<path opacity="0.45" d="M125.878 75.5983C127.234 75.8471 128.484 76.4805 129.469 77.4185C130.454 78.3564 131.13 79.5568 131.412 80.8678C131.694 82.1787 131.569 83.5413 131.053 84.7833C130.537 86.0252 129.652 87.0907 128.512 87.8449C127.371 88.5992 126.026 89.0083 124.646 89.0205C123.266 89.0327 121.913 88.6475 120.758 87.9136C119.604 87.1797 118.699 86.1301 118.16 84.8975C117.62 83.6649 117.47 82.3047 117.727 80.989C118.071 79.2256 119.124 77.6672 120.652 76.6563C122.181 75.6455 124.06 75.2649 125.878 75.5983Z" fill="#EA7460"/>
<path opacity="0.55" d="M125.674 76.6367C126.817 76.8466 127.871 77.3808 128.701 78.1717C129.532 78.9626 130.102 79.9746 130.34 81.0799C130.577 82.1852 130.472 83.3341 130.037 84.3812C129.602 85.4284 128.856 86.3268 127.895 86.9629C126.933 87.599 125.799 87.9442 124.635 87.9548C123.472 87.9655 122.331 87.6411 121.357 87.0227C120.384 86.4043 119.621 85.5196 119.165 84.4806C118.71 83.4416 118.582 82.2949 118.798 81.1855C118.942 80.4487 119.234 79.7466 119.657 79.1193C120.08 78.492 120.627 77.9517 121.265 77.5293C121.904 77.1069 122.622 76.8106 123.378 76.6575C124.134 76.5043 124.915 76.4972 125.674 76.6367Z" fill="#EA7460"/>
<path opacity="0.64" d="M125.47 77.6765C126.4 77.8479 127.258 78.2833 127.934 78.9275C128.609 79.5718 129.073 80.396 129.266 81.296C129.459 82.196 129.373 83.1313 129.018 83.9836C128.663 84.8359 128.056 85.567 127.273 86.0844C126.49 86.6018 125.566 86.8823 124.619 86.8904C123.671 86.8985 122.743 86.6339 121.95 86.1299C121.158 85.626 120.537 84.9054 120.167 84.0593C119.797 83.2131 119.693 82.2795 119.87 81.3764C119.986 80.7762 120.224 80.2043 120.568 79.6933C120.913 79.1824 121.358 78.7424 121.878 78.3987C122.399 78.055 122.984 77.8143 123.6 77.6903C124.216 77.5664 124.851 77.5617 125.47 77.6765Z" fill="#EA7460"/>
<path opacity="0.73" d="M125.266 78.718C125.985 78.8506 126.647 79.1874 127.169 79.6859C127.691 80.1843 128.049 80.8218 128.196 81.5177C128.344 82.2135 128.276 82.9363 128 83.5943C127.723 84.2523 127.252 84.8159 126.645 85.2137C126.039 85.6114 125.324 85.8254 124.592 85.8284C123.86 85.8315 123.143 85.6234 122.533 85.2307C121.923 84.838 121.446 84.2784 121.164 83.6227C120.882 82.967 120.808 82.2448 120.949 81.5478C121.14 80.6197 121.7 79.8021 122.508 79.2723C123.316 78.7425 124.307 78.5433 125.266 78.718Z" fill="#EA7460"/>
<path opacity="0.82" d="M125.061 79.7647C125.567 79.8574 126.034 80.0938 126.401 80.4438C126.769 80.7938 127.021 81.2417 127.126 81.7308C127.231 82.2199 127.184 82.7283 126.992 83.1916C126.799 83.655 126.469 84.0524 126.043 84.3337C125.618 84.6149 125.116 84.7674 124.601 84.7717C124.086 84.776 123.581 84.6321 123.15 84.358C122.72 84.084 122.383 83.6921 122.182 83.2321C121.981 82.7721 121.925 82.2646 122.021 81.7738C122.15 81.1164 122.543 80.5355 123.113 80.1588C123.683 79.7821 124.384 79.6404 125.061 79.7647Z" fill="#EA7460"/>
<path opacity="0.91" d="M124.865 80.8039C125.157 80.8592 125.426 80.9972 125.638 81.2007C125.85 81.4042 125.995 81.664 126.055 81.9473C126.114 82.2307 126.087 82.5248 125.974 82.7927C125.862 83.0607 125.671 83.2903 125.424 83.4528C125.177 83.6153 124.887 83.7032 124.589 83.7056C124.291 83.708 123.998 83.6248 123.749 83.4663C123.5 83.3078 123.304 83.0812 123.188 82.8152C123.071 82.5491 123.038 82.2554 123.093 81.9712C123.171 81.5896 123.4 81.2531 123.732 81.0346C124.063 80.8161 124.47 80.7332 124.865 80.8039Z" fill="#EA7460"/>
<path d="M124.989 82.3181C124.967 82.4236 124.904 82.5169 124.813 82.5777C124.722 82.6386 124.609 82.6622 124.5 82.6435C124.446 82.6334 124.395 82.613 124.35 82.5837C124.304 82.5544 124.265 82.5166 124.235 82.4726C124.204 82.4286 124.183 82.3791 124.172 82.3271C124.161 82.2751 124.161 82.2216 124.172 82.1695C124.193 82.064 124.256 81.9708 124.348 81.9099C124.439 81.8491 124.551 81.8255 124.66 81.8441C124.714 81.8543 124.765 81.8746 124.811 81.9039C124.856 81.9333 124.895 81.971 124.926 82.0151C124.956 82.0591 124.978 82.1085 124.988 82.1605C124.999 82.2125 124.999 82.2661 124.989 82.3181Z" fill="#EA7460"/>
</g>
<g opacity="0.9">
<path opacity="0.09" d="M162.69 70.6394C165.052 71.0732 167.228 72.1768 168.944 73.8107C170.659 75.4446 171.837 77.5353 172.328 79.8185C172.818 82.1018 172.6 84.4749 171.701 86.638C170.802 88.801 169.262 90.6568 167.276 91.9705C165.29 93.2843 162.946 93.9972 160.543 94.0189C158.139 94.0406 155.783 93.3703 153.772 92.0926C151.761 90.815 150.185 88.9874 149.245 86.841C148.304 84.6946 148.04 82.3258 148.487 80.0341C148.784 78.5123 149.387 77.0622 150.261 75.7665C151.136 74.4708 152.264 73.3548 153.583 72.4825C154.902 71.6101 156.385 70.9983 157.948 70.682C159.51 70.3658 161.122 70.3513 162.69 70.6394Z" fill="#EA7460"/>
<path opacity="0.18" d="M162.471 71.7556C164.605 72.1476 166.571 73.1447 168.121 74.6207C169.67 76.0967 170.734 77.9855 171.177 80.0481C171.621 82.1107 171.424 84.2545 170.612 86.2086C169.799 88.1626 168.408 89.8391 166.614 91.0261C164.82 92.213 162.703 92.8571 160.532 92.877C158.36 92.8968 156.232 92.2915 154.415 91.1375C152.598 89.9835 151.174 88.3327 150.324 86.3939C149.474 84.455 149.236 82.3151 149.639 80.2448C149.906 78.8693 150.45 77.5584 151.24 76.3871C152.029 75.2157 153.049 74.207 154.241 73.4185C155.433 72.63 156.773 72.0773 158.186 71.792C159.598 71.5066 161.054 71.4943 162.471 71.7556Z" fill="#EA7460"/>
<path opacity="0.27" d="M162.26 72.8525C164.167 73.2027 165.924 74.0936 167.309 75.4126C168.694 76.7316 169.645 78.4194 170.041 80.2627C170.438 82.106 170.262 84.022 169.537 85.7685C168.811 87.515 167.568 89.0135 165.965 90.0746C164.362 91.1357 162.47 91.7118 160.53 91.73C158.589 91.7482 156.686 91.2077 155.062 90.1768C153.438 89.146 152.166 87.6711 151.405 85.9385C150.645 84.206 150.431 82.2936 150.791 80.4432C151.276 77.9615 152.756 75.768 154.906 74.3446C157.057 72.9213 159.702 72.3846 162.26 72.8525Z" fill="#EA7460"/>
<path opacity="0.36" d="M162.041 73.9837C163.723 74.2939 165.271 75.0812 166.491 76.2458C167.711 77.4105 168.547 78.9002 168.894 80.5262C169.24 82.1523 169.082 83.8416 168.439 85.3803C167.795 86.919 166.696 88.2379 165.28 89.1699C163.863 90.102 162.194 90.6053 160.482 90.6161C158.771 90.6269 157.095 90.1448 155.666 89.2308C154.237 88.3167 153.12 87.0119 152.456 85.4815C151.792 83.9511 151.611 82.2639 151.936 80.6335C152.37 78.4532 153.678 76.5288 155.572 75.2823C157.467 74.0358 159.793 73.5688 162.041 73.9837Z" fill="#EA7460"/>
<path opacity="0.45" d="M161.823 75.1022C163.274 75.372 164.61 76.053 165.662 77.0592C166.714 78.0653 167.435 79.3516 167.735 80.7553C168.034 82.1591 167.897 83.6174 167.343 84.9461C166.788 86.2747 165.84 87.414 164.618 88.22C163.397 89.0261 161.956 89.4627 160.479 89.4748C159.002 89.4868 157.554 89.0737 156.318 88.2877C155.083 87.5017 154.115 86.378 153.538 85.0586C152.96 83.7392 152.798 82.2833 153.073 80.8749C153.256 79.9379 153.628 79.0452 154.167 78.2478C154.705 77.4503 155.401 76.7639 156.214 76.2276C157.027 75.6914 157.94 75.316 158.903 75.1229C159.865 74.9298 160.857 74.9228 161.823 75.1022Z" fill="#EA7460"/>
<path opacity="0.55" d="M161.604 76.2205C162.828 76.4459 163.956 77.0183 164.844 77.8655C165.733 78.7127 166.343 79.7965 166.597 80.98C166.85 82.1634 166.737 83.3933 166.27 84.5142C165.804 85.635 165.005 86.5965 163.976 87.2771C162.946 87.9576 161.732 88.3266 160.486 88.3375C159.24 88.3483 158.019 88.0005 156.977 87.338C155.935 86.6755 155.119 85.7281 154.631 84.6156C154.144 83.503 154.008 82.2753 154.24 81.0876C154.394 80.2988 154.707 79.5472 155.16 78.8757C155.614 78.2042 156.199 77.6259 156.883 77.1739C157.567 76.722 158.336 76.4051 159.146 76.2415C159.956 76.0779 160.791 76.0708 161.604 76.2205Z" fill="#EA7460"/>
<path opacity="0.64" d="M161.385 77.3372C162.374 77.5238 163.284 77.9901 164 78.6775C164.716 79.3649 165.206 80.2425 165.41 81.1999C165.613 82.1572 165.519 83.1515 165.141 84.0574C164.763 84.9633 164.117 85.7404 163.284 86.2907C162.452 86.841 161.47 87.14 160.463 87.1499C159.455 87.1598 158.467 86.8803 157.624 86.3466C156.78 85.8128 156.117 85.0487 155.72 84.1504C155.323 83.2522 155.209 82.26 155.392 81.2988C155.514 80.6554 155.767 80.042 156.135 79.4939C156.503 78.9458 156.98 78.4739 157.537 78.1056C158.094 77.7372 158.721 77.4796 159.382 77.3478C160.042 77.2159 160.723 77.2123 161.385 77.3372Z" fill="#EA7460"/>
<path opacity="0.73" d="M161.144 78.4484C161.913 78.5902 162.622 78.9499 163.18 79.4822C163.738 80.0145 164.122 80.6955 164.281 81.439C164.441 82.1825 164.37 82.9552 164.077 83.6595C163.784 84.3638 163.282 84.9681 162.636 85.3959C161.989 85.8238 161.226 86.0561 160.443 86.0634C159.661 86.0707 158.893 85.8528 158.238 85.4371C157.583 85.0214 157.07 84.4266 156.763 83.7279C156.456 83.0292 156.37 82.2579 156.515 81.5116C156.611 81.0153 156.807 80.5423 157.092 80.1196C157.377 79.697 157.745 79.333 158.175 79.0485C158.605 78.764 159.089 78.5645 159.598 78.4616C160.108 78.3586 160.633 78.3541 161.144 78.4484Z" fill="#EA7460"/>
<path opacity="0.82" d="M160.948 79.5661C161.491 79.6651 161.991 79.9182 162.386 80.2933C162.781 80.6684 163.052 81.1487 163.165 81.6734C163.279 82.1981 163.229 82.7436 163.023 83.2409C162.816 83.7382 162.462 84.165 162.006 84.4671C161.55 84.7693 161.011 84.9333 160.459 84.9384C159.906 84.9434 159.364 84.7894 158.902 84.4957C158.44 84.202 158.078 83.7818 157.862 83.2884C157.646 82.795 157.586 82.2505 157.689 81.7238C157.827 81.0187 158.247 80.3954 158.858 79.9909C159.469 79.5864 160.221 79.4336 160.948 79.5661Z" fill="#EA7460"/>
<path opacity="0.91" d="M160.729 80.6843C161.044 80.7415 161.334 80.888 161.563 81.1052C161.792 81.3225 161.949 81.6008 162.015 81.9049C162.081 82.2089 162.052 82.5252 161.933 82.8135C161.814 83.1018 161.609 83.3493 161.344 83.5246C161.08 83.6999 160.768 83.7952 160.448 83.7984C160.127 83.8016 159.813 83.7125 159.545 83.5425C159.277 83.3725 159.067 83.1291 158.942 82.8432C158.816 82.5573 158.781 82.2418 158.841 81.9364C158.879 81.7336 158.959 81.5401 159.075 81.3672C159.191 81.1942 159.341 81.0453 159.516 80.9289C159.692 80.8125 159.889 80.7309 160.097 80.689C160.306 80.647 160.52 80.6454 160.729 80.6843Z" fill="#EA7460"/>
<path d="M160.867 82.3104C160.844 82.4217 160.777 82.5197 160.68 82.5833C160.583 82.6468 160.465 82.6708 160.35 82.65C160.234 82.6293 160.131 82.5648 160.064 82.4706C159.997 82.3764 159.971 82.2603 159.992 82.1477C160.003 82.092 160.026 82.0389 160.058 81.9915C160.09 81.9441 160.131 81.9033 160.18 81.8714C160.228 81.8395 160.283 81.8172 160.34 81.8058C160.397 81.7943 160.456 81.7939 160.514 81.8046C160.571 81.8153 160.626 81.8368 160.675 81.868C160.724 81.8992 160.766 81.9395 160.798 81.9865C160.831 82.0334 160.854 82.0862 160.866 82.1418C160.878 82.1974 160.878 82.2547 160.867 82.3104Z" fill="#EA7460"/>
</g>
<path d="M142.567 84.2641C137.901 86.3298 134.977 85.2616 134.372 82.2267C133.978 80.2459 135.167 77.9821 136.443 76.8926C139.06 74.6359 140.227 68.0356 140.234 67.9648C140.438 69.3797 140.147 74.8977 136.953 78.7178C136.627 79.0723 136.379 79.4884 136.226 79.94C136.073 80.3916 136.018 80.8691 136.064 81.3424C136.239 83.5991 138.47 85.3606 142.567 84.2995V84.2641Z" fill="#DB7C65"/>
<path d="M125.681 64.2298C125.681 64.2298 121.598 64.336 121.007 62.8574C120.948 63.1676 120.953 63.4862 121.022 63.7945C121.091 64.1029 121.222 64.3948 121.409 64.6531C121.596 64.9114 121.834 65.1309 122.109 65.2987C122.385 65.4666 122.692 65.5794 123.013 65.6306C122.167 66.7185 121.73 68.0536 121.773 69.4153C121.817 72.2451 123.64 74.5159 125.834 74.4805C128.029 74.4452 129.793 72.146 129.742 69.3163C129.691 66.4865 127.883 64.1945 125.681 64.2298Z" fill="#502F26"/>
<path d="M156.303 63.7638C156.303 63.7638 152.22 63.877 151.623 62.3984C151.564 62.7081 151.57 63.026 151.639 63.3335C151.709 63.641 151.841 63.932 152.027 64.1895C152.214 64.4471 152.451 64.6659 152.726 64.8333C153.001 65.0007 153.308 65.1133 153.628 65.1645C152.787 66.2544 152.353 67.5887 152.395 68.9493C152.439 71.779 154.255 74.0499 156.449 74.0216C158.644 73.9933 160.394 71.6658 160.35 68.829C160.306 65.9922 158.498 63.7284 156.303 63.7638Z" fill="#502F26"/>
<path d="M131.251 56.292C131.251 56.292 124.689 54.5659 115.692 57.1056C115.692 57.1056 115.634 56.4618 117.326 55.0611C119.017 53.6604 124.828 52.3163 129.91 54.3537C129.881 54.3395 132.52 55.7049 131.251 56.292Z" fill="#7A2C21"/>
<path d="M147.715 55.9255C147.715 55.9255 154.276 54.0862 163.288 56.4632C163.288 56.4632 163.332 55.8194 161.618 54.447C159.905 53.0746 154.065 51.8366 149.02 53.9447C149.02 53.9447 146.409 55.3596 147.715 55.9255Z" fill="#7A2C21"/>
<path d="M150.806 88.418C150.806 88.418 140.387 90.6464 130.639 88.7222C130.639 88.7222 132.498 97.367 140.846 97.2113C148.75 97.1194 150.74 90.1229 150.806 88.418Z" fill="white"/>
<path d="M182.587 61.039C182.587 61.039 178.745 61.8596 177.411 72.3579C176.077 82.8562 178.774 83.7263 179.598 84.0871C179.598 84.0871 189.397 86.74 192.795 71.0067C195.602 57.9333 182.587 61.039 182.587 61.039Z" fill="#FAA284"/>
<path d="M179.875 76.8505C179.875 76.8505 187.013 73.3841 181.443 69.9036C181.443 69.9036 183.317 61.9732 188.092 63.763C192.868 65.5528 189.04 72.9597 188.092 74.5231C186.102 77.7419 179.875 81.6823 179.875 76.8505Z" fill="#DB7C65"/>
<path d="M137.026 28.9928C137.026 28.9928 155.042 18.7845 155.312 34.1499C155.582 49.5154 157.448 65.3336 185.103 65.5104C185.103 65.5104 191.92 65.1709 192.773 71.0001C192.773 71.0001 200.917 38.7058 187.793 20.3126C176.069 3.87182 146.759 -7.08631 135.91 5.37865C135.91 5.37865 109.021 -3.7543 103.954 20.3126C100.308 37.6234 109.058 55.2173 112.958 62.8576C112.958 62.8576 121.088 56.0804 120.978 48.5321C120.869 40.9837 118.66 18.3813 137.026 28.9928Z" fill="#893626"/>
<path d="M125.273 27.2104C119.695 21.3811 115.991 12.6019 113.826 6.07227C109.378 8.3785 105.565 12.6655 103.954 20.3129C103.463 22.6835 103.183 25.0905 103.115 27.5075C108.883 30.6004 115.029 32.9771 121.409 34.5818C121.992 31.4125 123.129 28.6323 125.273 27.2104Z" fill="#9B4135"/>
<path d="M171.352 6.26367C164.557 16.3021 158.432 23.0793 152.942 27.3522C154.335 28.6398 155.253 30.7833 155.312 34.1507C155.312 34.8581 155.312 35.6292 155.37 36.3649C169.048 34.6671 181.479 30.5145 191.176 26.3406C190.264 24.2246 189.13 22.2049 187.793 20.3133C183.856 14.7812 177.914 9.8928 171.352 6.26367Z" fill="#9B4135"/>
<path d="M135.91 5.37809C135.91 5.37809 135.065 20.121 137.004 27.7825C133.687 20.5343 132.428 12.557 133.359 4.67773L135.91 5.37809Z" fill="#7A2C21"/>
<path d="M108.788 155.623C110.424 155.72 112.064 155.504 113.615 154.987C115.165 154.469 116.595 153.661 117.823 152.607C119.051 151.553 120.053 150.275 120.772 148.846C121.491 147.416 121.913 145.863 122.014 144.275C122.114 142.688 121.892 141.096 121.358 139.592C120.825 138.088 119.992 136.701 118.906 135.509C117.82 134.317 116.502 133.345 115.029 132.647C113.556 131.949 111.955 131.54 110.319 131.443C109.24 131.379 31.824 133.862 31.824 133.862C30.44 133.78 29.0529 133.963 27.7418 134.401C26.4307 134.839 25.2213 135.523 24.1827 136.414C22.0853 138.215 20.8108 140.75 20.6396 143.462C20.4685 146.174 21.4147 148.841 23.2702 150.876C25.1257 152.911 27.7384 154.148 30.5335 154.314L108.788 155.623Z" fill="#FAA284"/>
<path d="M21.325 147.169C22.1884 149.716 24.0458 151.834 26.4991 153.067C28.9524 154.301 31.8063 154.553 34.4488 153.77C37.1231 152.934 39.3607 151.127 40.6937 148.728C42.0268 146.328 42.352 143.521 41.6013 140.894C41.6013 140.894 39.2463 122.918 18.9044 69.7832L6.01392 73.6387C6.01392 73.6387 11.1176 122.452 21.0771 146.335C21.1573 146.49 21.325 147.169 21.325 147.169Z" fill="#FAA284"/>
<path d="M75.169 156.846L108.883 157.448C112.585 157.431 116.141 156.049 118.832 153.581C121.522 151.114 123.144 147.746 123.37 144.161C123.595 140.575 122.407 137.041 120.045 134.275C117.684 131.508 114.327 129.717 110.654 129.264C110.086 129.228 93.6808 129.709 75.5262 130.254C74.7388 136.522 73.9003 146.723 75.169 156.846Z" fill="#E8EBEF"/>
<path d="M19.2032 74.6288C19.2032 74.6288 25.211 68.2619 27.0046 62.4044C27.5733 60.558 28.1639 57.0916 25.211 54.4882L22.8633 29.0631C22.8633 29.0631 22.9508 25.5684 20.7562 25.5684C18.1752 25.5684 18.3502 28.8721 18.3502 28.8721V45.4543C18.3502 45.4543 17.2347 42.7731 14.9015 42.9005C12.4445 43.042 11.7154 45.6665 11.7154 45.6665C11.7154 45.6665 10.8842 44.5346 8.47816 44.9591C7.86954 45.1014 7.30351 45.3794 6.82508 45.7712C6.34665 46.1629 5.969 46.6576 5.72216 47.2158C4.89885 47.193 4.07826 47.3177 3.30155 47.5837C1.57358 48.2911 0.494509 50.5973 0.494509 50.5973C-0.701353 57.9512 0.282288 65.4834 3.33071 72.3155C3.33071 72.3155 8.62398 85.9902 19.2032 74.6288Z" fill="#FAA284"/>
<path d="M18.1095 55.4013C16.1492 55.0896 14.2535 54.4733 12.4954 53.5762C12.4954 53.5762 10.1112 55.8753 7.16567 54.8354C7.16567 54.8354 4.70131 56.8374 2.23695 55.7055C2.22202 56.82 2.6513 57.8969 3.4352 58.7116C4.21909 59.5262 5.29698 60.0156 6.44386 60.0775C10.7528 60.4949 19.4656 58.0542 19.4656 58.0542C18.8235 57.2741 18.361 56.3695 18.1095 55.4013Z" fill="#F2977E"/>
<path d="M12.2988 48.2636C13.0279 47.3227 16.1484 49.7633 19.3419 50.3859C20.8584 50.6759 25.2111 54.4961 25.2111 54.4961C25.2111 54.4961 21.3906 50.4566 18.4013 49.7987L18.2409 49.7421C18.5302 48.3301 18.5745 46.8812 18.3722 45.4551C18.1688 46.8612 18.0713 48.2798 18.0805 49.6997C16.6223 49.2469 14.3621 47.8745 12.5029 47.6481C12.4544 47.6444 12.4056 47.6444 12.3571 47.6481C12.1989 46.9745 11.9918 46.3126 11.7373 45.6673C11.7816 46.3506 11.8939 47.0282 12.0727 47.6906C11.9543 47.7391 11.8511 47.8172 11.7738 47.9169C11.7738 47.9169 10.3739 51.1145 12.2988 53.534C12.287 54.4018 12.3382 55.2694 12.4519 56.1302C12.5576 56.7324 12.4127 57.3507 12.0491 57.8494C11.6855 58.3481 11.1329 58.6864 10.5125 58.7902H10.3083C9.74559 58.8256 9.18532 58.6917 8.70387 58.4069C8.22241 58.122 7.8432 57.7 7.61792 57.1985L5.73684 47.2024C5.73684 47.2024 6.9107 55.6421 7.05652 57.1419C7.09885 57.5602 6.9905 57.9798 6.7499 58.3293C6.5093 58.6789 6.15131 58.9367 5.73684 59.059L4.75256 59.1085C2.38298 59.2005 1.05602 50.7962 1.05602 50.7962C0.480027 52.8336 0.910197 58.7053 0.910197 58.7053C9.86355 60.2546 12.204 66.6568 12.204 66.6568C15.4776 60.1343 19.6481 58.8751 19.6481 58.8751L20.4282 58.4577L18.1826 54.8852C10.2719 54.1353 11.9342 48.7588 12.2988 48.2636ZM16.4619 58.1676L15.4266 58.295C13.5163 58.295 12.9914 56.1019 12.9914 56.1019L12.5758 53.8382C13.0663 54.3478 13.6497 54.7651 14.2965 55.0691C15.9515 55.8614 17.8691 55.9605 17.8764 56.1302C17.9857 57.9979 16.4619 58.1818 16.4619 58.1818V58.1676Z" fill="#EF8D72"/>
<path d="M205.962 141.199C205.677 139.589 205.059 138.053 204.146 136.681C203.233 135.309 202.044 134.13 200.649 133.216C199.255 132.301 197.685 131.669 196.032 131.358C194.38 131.047 192.68 131.064 191.034 131.406C189.389 131.749 187.831 132.411 186.456 133.352C185.081 134.293 183.915 135.494 183.03 136.883C182.146 138.272 181.559 139.82 181.306 141.435C181.053 143.049 181.14 144.697 181.559 146.278C181.785 147.304 205.088 218.981 205.088 218.981C205.675 221.638 207.327 223.959 209.679 225.434C212.03 226.91 214.89 227.418 217.628 226.848C220.366 226.277 222.759 224.675 224.279 222.393C225.8 220.111 226.323 217.337 225.736 214.68L205.962 141.199Z" fill="#FAA284"/>
<path d="M216.739 172.396L208.237 140.766C207.204 137.331 204.869 134.404 201.7 132.573C198.532 130.742 194.766 130.144 191.161 130.899C187.557 131.654 184.381 133.706 182.273 136.642C180.165 139.578 179.283 143.18 179.802 146.723C179.926 147.268 184.826 162.463 190.272 179.265C196.652 178.303 207.078 176.315 216.739 172.396Z" fill="#F0F1F2"/>
<path d="M217.25 228.822C219.86 228.192 222.113 226.531 223.526 224.197C224.939 221.863 225.399 219.041 224.807 216.338C224.17 213.602 222.533 211.213 220.236 209.669C217.94 208.124 215.163 207.545 212.485 208.051C212.485 208.051 194.351 208.781 139.799 224.217L142.7 237.384C142.7 237.384 191.812 236.737 216.395 229.019C216.566 228.94 217.25 228.822 217.25 228.822Z" fill="#FAA284"/>
<path d="M144.617 223.798C144.617 223.798 136.267 215.831 132.852 215.695C129.438 215.559 121.238 214.549 119.684 214.859C115.775 215.658 110.265 214.7 110.131 215.844C109.996 216.988 109.477 219.289 117.592 220.273L108.595 221.367C108.595 221.367 105.312 221.555 105.568 224.219C105.576 224.586 105.658 224.948 105.807 225.283C105.957 225.619 106.172 225.919 106.439 226.167C106.705 226.415 107.018 226.604 107.357 226.723C107.697 226.842 108.055 226.889 108.411 226.86L111.865 227.367C111.387 227.661 111.024 228.116 110.835 228.655C110.646 229.195 110.642 229.786 110.825 230.333C111.4 232.582 115.337 232.521 115.337 232.521C114.887 232.904 114.569 233.426 114.429 234.012C114.289 234.597 114.334 235.215 114.558 235.776C114.777 236.332 115.132 236.822 115.589 237.197C116.045 237.572 116.587 237.819 117.162 237.916C117.025 238.285 116.962 238.68 116.976 239.078C116.99 239.475 117.082 239.866 117.245 240.228C118.173 241.698 121.94 242.007 121.94 242.007C129.456 241.606 136.847 239.967 143.83 237.153C143.83 237.153 154.649 231.831 144.617 223.798Z" fill="#FAA284"/>
<path d="M117.129 240.155C116.966 239.793 116.874 239.402 116.86 239.005C116.846 238.608 116.909 238.213 117.046 237.843C116.472 237.747 115.93 237.499 115.473 237.124C115.017 236.749 114.662 236.259 114.443 235.703C114.219 235.142 114.173 234.524 114.313 233.939C114.453 233.354 114.771 232.832 115.221 232.448C115.221 232.448 111.284 232.509 110.709 230.26C110.527 229.714 110.53 229.122 110.719 228.583C110.908 228.043 111.272 227.589 111.749 227.294L108.295 226.787C107.948 226.817 107.598 226.775 107.266 226.663C106.933 226.552 106.625 226.374 106.359 226.139C106.093 225.904 105.875 225.618 105.717 225.296C105.559 224.975 105.465 224.625 105.441 224.267C105.173 221.613 108.502 221.297 108.502 221.297L117.325 220.238C117.374 220.228 124.991 219.87 125.356 220.316L116.419 221.316C116.419 221.316 112.897 223.48 115 226.488C114.568 227.428 114.48 228.499 114.751 229.509C115.022 230.518 115.635 231.398 116.478 231.991C116.478 231.991 115.768 236.147 118.695 237.536C118.695 237.536 118.055 241.224 122.154 241.919C121.902 241.925 121.766 241.931 121.766 241.931C121.766 241.931 118.063 241.653 117.129 240.155Z" fill="#EF8D72"/>
</svg>
