<svg width="198" height="224" viewBox="0 0 198 224" fill="none" xmlns="http://www.w3.org/2000/svg">
<path fill-rule="evenodd" clip-rule="evenodd" d="M170.606 49.2566L167.84 48.5155L170.699 37.8467C171.032 36.6007 170.078 35.2585 168.57 34.8545C167.063 34.4507 165.565 35.1358 165.232 36.3818L162.373 47.0506L159.607 46.3095L162.466 35.6407C163.208 32.8697 166.279 31.2763 169.311 32.0887C172.344 32.9012 174.207 35.8168 173.464 38.5878L170.606 49.2566Z" fill="#9C73FF"/>
<path fill-rule="evenodd" clip-rule="evenodd" d="M141.802 221.639L6.96734 185.511C3.29936 184.528 1.12291 180.758 2.10569 177.09L43.7005 21.856C44.6833 18.188 48.4531 16.0115 52.1211 16.9943L186.956 53.1232C190.624 54.1061 192.8 57.8759 191.818 61.5438L150.223 216.778C149.24 220.446 145.47 222.622 141.802 221.639Z" fill="#E3DCFF"/>
<path fill-rule="evenodd" clip-rule="evenodd" d="M121.631 153.378L54.8319 135.479C53.915 135.234 53.3708 134.291 53.6165 133.374L54.1396 131.422C54.3853 130.505 55.3279 129.961 56.2448 130.207L123.044 148.105C123.961 148.351 124.505 149.294 124.259 150.21L123.736 152.163C123.49 153.08 122.548 153.624 121.631 153.378Z" fill="#B398FF"/>
<path fill-rule="evenodd" clip-rule="evenodd" d="M47.5037 130.689C46.8434 133.154 44.3103 134.616 41.8458 133.956C39.3816 133.296 37.919 130.762 38.5793 128.298C39.2396 125.834 41.7728 124.371 44.2371 125.032C46.7016 125.692 48.164 128.225 47.5037 130.689Z" fill="#B398FF"/>
<path fill-rule="evenodd" clip-rule="evenodd" d="M138.843 176.529L50.1969 152.776C49.28 152.531 48.7358 151.588 48.9815 150.671L49.5046 148.719C49.7503 147.802 50.6929 147.258 51.6097 147.503L140.256 171.256C141.173 171.502 141.717 172.444 141.472 173.361L140.948 175.314C140.703 176.231 139.76 176.775 138.843 176.529Z" fill="#B398FF"/>
<path fill-rule="evenodd" clip-rule="evenodd" d="M42.8685 147.988C42.2081 150.453 39.6751 151.915 37.2106 151.255C34.7464 150.594 33.2837 148.061 33.9441 145.597C34.6044 143.132 37.1376 141.67 39.6019 142.33C42.0663 142.991 43.5288 145.524 42.8685 147.988Z" fill="#B398FF"/>
<path fill-rule="evenodd" clip-rule="evenodd" d="M92.1218 182.551L45.5616 170.075C44.6447 169.829 44.1005 168.887 44.3462 167.97L44.8693 166.018C45.115 165.101 46.0576 164.557 46.9745 164.802L93.5346 177.278C94.4515 177.524 94.9957 178.466 94.75 179.383L94.2269 181.335C93.9812 182.253 93.0387 182.797 92.1218 182.551Z" fill="#B398FF"/>
<path fill-rule="evenodd" clip-rule="evenodd" d="M38.2334 165.285C37.5731 167.749 35.04 169.212 32.5756 168.552C30.1113 167.891 28.6487 165.358 29.309 162.894C29.9693 160.429 32.5026 158.967 34.9669 159.627C37.4313 160.288 38.8938 162.821 38.2334 165.285Z" fill="#B398FF"/>
<path fill-rule="evenodd" clip-rule="evenodd" d="M164.145 60.1907C162.328 59.704 161.22 57.9288 161.674 56.2344L165.733 41.0881C165.937 40.3246 166.722 39.8709 167.486 40.0756C168.25 40.2803 168.703 41.0656 168.498 41.8291L164.44 56.9755C164.407 57.0979 164.568 57.3397 164.886 57.4249C165.204 57.51 165.464 57.3811 165.497 57.2587L167.84 48.5152C168.044 47.7517 168.829 47.2983 169.593 47.503C170.357 47.7077 170.81 48.4928 170.605 49.2563L168.263 57.9998C167.809 59.6941 165.961 60.6774 164.145 60.1907Z" fill="#9C73FF"/>
<path fill-rule="evenodd" clip-rule="evenodd" d="M166.527 64.6506L64.0488 37.1916C60.3811 36.2088 56.611 38.3855 55.6282 42.0532L40.4387 98.7413C39.9546 100.548 40.2382 102.379 41.0879 103.889C47.7824 99.9361 66.9071 89.7414 80.5592 93.3994C97.3631 97.902 103.462 114.974 127.711 106.627C139.709 102.497 148.666 101.187 154.654 100.917C159.302 100.707 162.815 105.07 161.611 109.565L171.389 73.0712C172.372 69.4035 170.195 65.6334 166.527 64.6506Z" fill="white"/>
<path fill-rule="evenodd" clip-rule="evenodd" d="M127.711 106.627C103.462 114.973 97.3634 97.9015 80.5593 93.3989C66.9074 89.7409 47.7824 99.9357 41.088 103.889C41.9634 105.446 43.4393 106.663 45.3004 107.161L147.779 134.62C151.332 135.572 154.981 133.559 156.099 130.098C156.136 129.986 156.169 129.873 156.2 129.759L161.611 109.564C162.815 105.07 159.302 100.706 154.654 100.916C148.666 101.186 139.709 102.497 127.711 106.627Z" fill="#B398FF"/>
<path fill-rule="evenodd" clip-rule="evenodd" d="M87.4288 67.9416C72.9807 64.0702 64.4068 49.2198 68.2782 34.7716C72.1495 20.3237 87 11.7496 101.448 15.6209C115.896 19.4922 124.47 34.343 120.599 48.7909C116.727 63.2391 101.877 71.8129 87.4288 67.9416Z" fill="#9C73FF"/>
</svg>
