<svg width="38" height="31" viewBox="0 0 38 31" fill="none" xmlns="http://www.w3.org/2000/svg">
<path d="M24.625 4.5V15.75C24.625 17.8594 22.9258 19.5 20.875 19.5H13.375L6.98828 23.1328C6.8125 23.25 6.69531 23.25 6.57812 23.25C6.16797 23.25 5.875 23.0156 5.875 22.5469V19.5H4C1.89062 19.5 0.25 17.8594 0.25 15.75V4.5C0.25 2.44922 1.89062 0.75 4 0.75H20.875C22.9258 0.75 24.625 2.44922 24.625 4.5ZM8.6875 18.9727L12.6133 16.6875H20.875C21.3438 16.6875 21.8125 16.2773 21.8125 15.75V4.5C21.8125 4.03125 21.3438 3.5625 20.875 3.5625H4C3.47266 3.5625 3.0625 4.03125 3.0625 4.5V15.75C3.0625 16.2773 3.47266 16.6875 4 16.6875H8.6875V18.9727ZM15.25 23.25V21.375H18.0625V23.25C18.0625 23.7773 18.4727 24.1875 19 24.1875H25.3281L29.3125 26.4727V24.1875H34C34.4688 24.1875 34.9375 23.7773 34.9375 23.25V12C34.9375 11.5312 34.4688 11.0625 34 11.0625H26.5V8.25H34C36.0508 8.25 37.75 9.94922 37.75 12V23.25C37.75 25.3594 36.0508 27 34 27H32.125V30.0469C32.125 30.5156 31.7734 30.75 31.4219 30.75C31.2461 30.75 31.1289 30.75 30.9531 30.6328L24.625 27H19C16.8906 27 15.25 25.3594 15.25 23.25Z" fill="currentColor"/>
</svg>
