<svg width="145" height="110" viewBox="0 0 145 110" fill="none" xmlns="http://www.w3.org/2000/svg">
<g id="BD/standing/phone-in-hand">
<path id="Fill 1" fill-rule="evenodd" clip-rule="evenodd" d="M103.845 116.779C83.6705 147.014 56.5252 129.39 49.643 121.523C41.8471 112.613 32.0722 113.727 29.1018 102.838C25.7041 90.3801 35.2074 82.4207 33.3511 76.853C27.7833 55.3216 43.0996 63.0569 40.733 49.7538C36.7777 27.5224 40.1885 27.9562 49.643 12.1362C60.9182 -6.73188 72.9055 2.03307 72.9055 2.03307C72.9055 2.03307 89.4861 -1.96968 96.9102 20.304C98.2537 24.3305 103.716 26.7379 103.84 36.8846C104.155 62.7391 118.145 64.784 120.916 82.4207C123.81 100.833 110.527 106.386 103.845 116.779Z" fill="#330073"/>
<path id="Fill 3" fill-rule="evenodd" clip-rule="evenodd" d="M93.2684 40.4628C94.2823 34.0684 89.5478 34.7751 89.5478 34.7751C89.5478 34.7751 87.2589 41.424 87.0889 46.8032C93.7747 46.8678 93.2684 40.4628 93.2684 40.4628Z" fill="#F4B784"/>
<path id="Fill 5" fill-rule="evenodd" clip-rule="evenodd" d="M47.4443 40.4628C46.4318 34.0684 52.4834 34.7751 52.4834 34.7751C52.4834 34.7751 54.7722 41.424 54.9423 46.8032C48.2565 46.8678 47.4443 40.4628 47.4443 40.4628Z" fill="#F4B784"/>
<path id="Fill 7" fill-rule="evenodd" clip-rule="evenodd" d="M70.2527 85.0185C64.3764 85.0185 59.6801 80.1324 58.5938 74.2614L59.4863 51.6094H79.6993L80.5932 74.2614C80.8252 80.1324 76.1276 85.0185 70.2527 85.0185Z" fill="#F4B784"/>
<path id="Stroke 9" d="M71.7568 52.9621C72.0354 52.9435 72.2764 53.1543 72.295 53.4329C72.3117 53.6837 72.1426 53.9039 71.9055 53.959L71.8241 53.9711L70.0667 54.0884C69.788 54.107 69.5471 53.8962 69.5285 53.6176C69.5117 53.3669 69.6808 53.1466 69.9179 53.0915L69.9993 53.0794L71.7568 52.9621Z" fill="#DD936F"/>
<path id="Fill 11" fill-rule="evenodd" clip-rule="evenodd" d="M88.9986 39.1737C87.3822 53.4655 80.8546 62.3742 70.8095 62.3742C60.763 62.3742 53.7226 51.9401 52.619 39.1737C50.7745 17.8282 60.763 11.8887 70.8095 11.8887C80.8546 11.8887 91.4681 17.3391 88.9986 39.1737Z" fill="#FFC999"/>
<path id="Fill 13" fill-rule="evenodd" clip-rule="evenodd" d="M91.2192 22.5313C88.991 13.8969 84.7852 5.20841 72.1625 7.43524C56.9425 -0.731147 33.4598 33.742 47.662 35.2345C61.027 36.6373 59.4792 26.1794 62.3059 19.3143C64.9058 13.003 69.6878 20.0566 69.6878 20.0566C69.6878 20.0566 72.3299 17.0875 75.2991 18.2003C80.2761 20.0672 74.8851 29.9554 87.5065 36.1428C89.0438 36.897 87.7174 45.4945 88.25 44.805C90.7247 41.588 93.446 31.1618 91.2192 22.5313Z" fill="#330073"/>
<path id="Stroke 15" d="M56.5967 27.0689L56.6859 27.0785L65.5958 28.6487C65.9544 28.7119 66.1938 29.0538 66.1306 29.4123C66.0727 29.741 65.7806 29.9696 65.4562 29.9567L65.367 29.9471L56.457 28.3769C56.0985 28.3137 55.859 27.9718 55.9222 27.6133C55.9801 27.2846 56.2723 27.056 56.5967 27.0689Z" fill="#330073"/>
<path id="Stroke 17" d="M84.4716 27.5678C84.8339 27.5315 85.157 27.7957 85.1933 28.158C85.2266 28.4901 85.0073 28.7892 84.6915 28.8647L84.6031 28.8797L73.8803 29.9542C73.518 29.9905 73.1949 29.7262 73.1586 29.364C73.1253 29.0319 73.3446 28.7327 73.6604 28.6572L73.7488 28.6423L84.4716 27.5678Z" fill="#330073"/>
<path id="Stroke 19" d="M66.5173 29.9872C66.7479 29.8872 67.0121 29.9724 67.1437 30.1772L67.1825 30.2498L68.5431 33.385C68.5635 33.4321 68.5766 33.4819 68.582 33.5327L68.5844 33.6093L68.1055 44.1061L70.6727 45.2063C70.9037 45.3053 71.0231 45.556 70.9645 45.7923L70.9383 45.8702C70.8393 46.1012 70.5886 46.2206 70.3524 46.162L70.2744 46.1358L67.3857 44.8978C67.2162 44.8252 67.1018 44.6673 67.0822 44.488L67.0798 44.41L67.5684 33.6799L66.2548 30.6524C66.1548 30.4218 66.24 30.1575 66.4448 30.0259L66.5173 29.9872Z" fill="#DD936F"/>
<path id="Stroke 21" d="M61.0274 33.2988C62.8574 33.2988 64.2839 35.0314 64.2839 37.1131C64.2839 37.4771 63.9888 37.7723 63.6247 37.7723C63.2606 37.7723 62.9655 37.4771 62.9655 37.1131C62.9655 35.7091 62.0665 34.6173 61.0274 34.6173C59.9871 34.6173 59.088 35.7089 59.088 37.1131C59.088 37.4771 58.7928 37.7723 58.4287 37.7723C58.0647 37.7723 57.7695 37.4771 57.7695 37.1131C57.7695 35.0311 59.1963 33.2988 61.0274 33.2988Z" fill="#330073"/>
<path id="Stroke 23" d="M78.8448 33.2988C80.6759 33.2988 82.1026 35.0311 82.1026 37.1131C82.1026 37.4771 81.8075 37.7723 81.4434 37.7723C81.0793 37.7723 80.7842 37.4771 80.7842 37.1131C80.7842 35.7089 79.8851 34.6173 78.8448 34.6173C77.8045 34.6173 76.9053 35.7089 76.9053 37.1131C76.9053 37.4771 76.6102 37.7723 76.2461 37.7723C75.8821 37.7723 75.5869 37.4771 75.5869 37.1131C75.5869 35.0311 77.0137 33.2988 78.8448 33.2988Z" fill="#330073"/>
<path id="Stroke 25" d="M65.0814 48.3927C65.1835 48.9248 65.4659 49.6777 66.0266 50.4338C66.9682 51.7036 68.3845 52.473 70.3064 52.473C72.3806 52.473 73.8367 51.7578 74.7264 50.5577C75.2669 49.8285 75.4926 49.0997 75.5417 48.578C75.578 48.1913 75.2738 47.8572 74.8853 47.8572L73.9354 47.8535C72.547 47.8431 71.0763 47.8113 69.5821 47.7639L67.7968 47.7004L65.7631 47.6102C65.3357 47.5879 65.0007 47.9725 65.0814 48.3927ZM66.7017 49.0227L66.6779 48.9722L68.1842 49.0347L69.5409 49.0817C70.7441 49.1199 71.9324 49.148 73.0763 49.163L74.0137 49.1726L73.9946 49.2183C73.9077 49.4078 73.7993 49.5943 73.6672 49.7725C73.0291 50.6332 71.9677 51.1546 70.3064 51.1546C68.8182 51.1546 67.7871 50.5944 67.0856 49.6485C66.9366 49.4475 66.8091 49.237 66.7017 49.0227Z" fill="#C44343"/>
<path id="Stroke 27" d="M71.7918 54.668C72.071 54.668 72.2974 54.8943 72.2974 55.1736C72.2974 55.4249 72.114 55.6334 71.8738 55.6726L71.7918 55.6792H69.1931C68.9139 55.6792 68.6875 55.4528 68.6875 55.1736C68.6875 54.9223 68.8709 54.7138 69.1111 54.6746L69.1931 54.668H71.7918Z" fill="#DD936F"/>
<path id="Fill 29" fill-rule="evenodd" clip-rule="evenodd" d="M90.3164 44.9917C90.2017 44.6278 89.6848 44.6383 89.586 45.0075C88.7052 48.2601 86.6538 57.0211 90.054 57.2268C93.888 57.4601 91.3592 48.3141 90.3164 44.9917Z" fill="white"/>
<path id="Fill 31" fill-rule="evenodd" clip-rule="evenodd" d="M51.7902 44.9917C51.6768 44.6278 51.1599 44.6383 51.0597 45.0075C50.179 48.2601 48.1289 57.0211 51.5291 57.2268C55.3631 57.4601 52.833 48.3141 51.7902 44.9917Z" fill="white"/>
<path id="Fill 33" fill-rule="evenodd" clip-rule="evenodd" d="M140.377 153.996L140.42 152.89C145.218 149.083 145.977 143.062 142.207 137.753L113.048 92.8694C108.023 85.7959 99.8123 83.0141 93.4205 88.0861C87.1039 93.0975 86.4855 102.689 92.0585 109.203L124.006 151.925C128.292 156.935 135.519 157.85 140.377 153.996Z" fill="#FFC999"/>
<path id="Fill 35" fill-rule="evenodd" clip-rule="evenodd" d="M88.3975 105.143L105.153 128.019L125.2 111.314L113.693 91.2686C109.307 83.5874 98.1011 80.1318 89.1925 83.5966" fill="#597EF7"/>
<path id="Fill 37" fill-rule="evenodd" clip-rule="evenodd" d="M24.6005 152.149C24.6005 152.149 42.6274 116.19 46.6012 108.2C56.1968 88.9035 47.5109 79.453 35.4776 81.9725C20.9708 85.0089 0.0999936 145.838 0.0999936 145.838C0.0999936 145.838 -0.642291 154.376 5.29726 157.346C15.8144 162.605 24.6005 152.149 24.6005 152.149Z" fill="#FFC999"/>
<path id="Fill 39" fill-rule="evenodd" clip-rule="evenodd" d="M35.8783 127.331C38.0655 123.438 61.7697 92.2993 45.4369 82.5455C32.9711 75.1003 25.2609 85.6412 11.416 114.639L35.8783 127.331Z" fill="#597EF7"/>
<path id="Fill 67" fill-rule="evenodd" clip-rule="evenodd" d="M105.827 84.5996C95.672 80.6258 87.9183 81.4485 84.5932 78.4609C82.6261 76.6929 81.9497 68.3301 81.9497 68.3301H57.4268C57.4268 68.3301 56.6371 74.826 54.6713 76.594C51.3462 79.5816 43.9036 79.7596 35.6964 81.5435C26.0837 83.6332 30.0904 102.156 34.0496 112.798C34.9646 115.258 33.3851 119.895 34.9159 123.315C36.4545 126.758 38.7947 130.925 39.7229 133.154C42.7711 140.471 42.1448 148.354 44.1133 154.993C44.1133 154.993 40.978 161.057 45.9261 163.517H93.4491C99.3834 160.809 95.2633 154.993 95.2633 154.993C97.1407 148.657 96.0003 143.547 98.7848 134.266C99.3412 132.411 101.435 129.47 103.22 125.544C106.005 119.418 104.705 113.541 105.076 112.056C108.329 99.0417 114.631 88.046 105.827 84.5996Z" fill="#597EF7"/>
<path id="Stroke 69" d="M61.601 78.9815L76.4914 80.8101C76.8527 80.8545 77.1097 81.1835 77.0653 81.5448C77.0246 81.8761 76.7449 82.1196 76.4202 82.1237L76.3307 82.1188L61.4403 80.2901C61.0789 80.2457 60.8219 79.9168 60.8663 79.5554C60.907 79.2242 61.1868 78.9807 61.5114 78.9766L61.601 78.9815Z" fill="#330073"/>
<path id="Stroke 71" d="M65.8278 76.4682L73.3244 77.2566C73.6865 77.2947 73.9492 77.6191 73.9111 77.9812C73.8762 78.3131 73.6007 78.5614 73.2761 78.5712L73.1865 78.5678L65.6899 77.7794C65.3278 77.7413 65.0652 77.4169 65.1033 77.0549C65.1382 76.723 65.4137 76.4746 65.7382 76.4648L65.8278 76.4682Z" fill="#330073"/>
<path id="Stroke 73" d="M37.8104 98.2335C37.9276 97.9869 38.2225 97.8819 38.4691 97.9991C38.7157 98.1163 38.8207 98.4112 38.7035 98.6579L38.5441 99.0118L38.3816 99.3908C38.297 99.5923 38.2074 99.8114 38.1138 100.048C37.6669 101.175 37.2197 102.453 36.8021 103.855C35.2895 108.936 34.5587 114.233 35.0365 119.374C35.4197 123.491 36.7694 126.826 40.0645 132.236L40.3287 132.668L40.3945 132.841L41.0245 136.381L41.6378 139.782C41.7739 140.531 41.9096 141.274 42.044 142.007L42.8528 146.36C43.6646 150.667 44.2711 153.662 44.5913 154.868C44.6243 154.992 44.6075 155.125 44.5444 155.237C42.7278 158.469 44.0465 162.587 45.8233 163.004L45.9263 163.024L93.4808 163.024L93.6315 162.928L93.7209 162.867C93.9905 162.675 94.2616 162.435 94.5149 162.143C95.8538 160.6 96.1787 158.352 94.8097 155.191C94.7702 155.1 94.7592 154.999 94.7779 154.901L95.3006 152.153C96.0347 148.248 96.6793 144.626 97.2376 141.313L97.6103 139.07C97.7577 138.17 97.8921 137.332 98.0139 136.557L98.3867 134.122L98.4984 133.353C98.5091 133.276 98.5374 133.204 98.5811 133.14C102.558 127.377 104.306 122.815 104.583 117.722C104.834 113.078 103.986 108.459 102.414 104.112C101.931 102.773 101.412 101.56 100.894 100.496L100.684 100.072C100.616 99.9384 100.551 99.812 100.488 99.6933L100.213 99.1909C100.074 98.9556 100.153 98.6525 100.388 98.514C100.623 98.3755 100.926 98.454 101.065 98.6893L101.266 99.0511L101.462 99.4218C101.564 99.6187 101.671 99.8327 101.784 100.063C102.316 101.158 102.848 102.402 103.344 103.776C104.957 108.239 105.83 112.985 105.57 117.776C105.29 122.929 103.561 127.554 99.7039 133.25L99.4604 133.605L99.2596 134.969C99.1372 135.778 98.9969 136.68 98.8381 137.673L98.5862 139.23C97.9466 143.136 97.1774 147.521 96.2724 152.335L95.7767 154.94L95.8427 155.097C97.1726 158.357 96.8293 160.859 95.3952 162.632L95.2618 162.791C94.7325 163.401 94.1987 163.78 93.8227 163.963C93.7777 163.985 93.7298 164 93.6807 164.007L93.6062 164.013L45.8532 164.007C43.284 163.624 41.6374 158.939 43.4724 155.154L43.586 154.93L43.4637 154.424C43.115 152.929 42.5751 150.225 41.8868 146.574L41.471 144.351L40.8688 141.078L39.7359 134.791L39.4364 133.105L39.2168 132.745C35.9406 127.365 34.5265 123.942 34.0856 119.802L34.0519 119.465C33.561 114.184 34.3085 108.765 35.8543 103.573C36.2806 102.142 36.7374 100.837 37.1946 99.6832L37.3814 99.2207C37.4418 99.0742 37.5 98.9356 37.556 98.805L37.7592 98.3438C37.7803 98.2975 37.7975 98.2607 37.8104 98.2335Z" fill="#330073"/>
<path id="Fill 77" fill-rule="evenodd" clip-rule="evenodd" d="M44.2744 97.9512C44.2744 97.9512 35.8087 106.864 24.6007 118.368C15.4112 127.799 6.45112 132.858 3.44113 138.042C-7.66933 157.177 10.7413 166.998 21.6303 155.119C27.3219 148.91 31.3339 143.709 36.8503 135.073C46.1795 120.469 54.6689 106.489 54.6689 106.489L44.2744 97.9512Z" fill="#FFC999"/>
<path id="Fill 79" fill-rule="evenodd" clip-rule="evenodd" d="M76.3196 98.6868L62.6843 98.3018C61.3329 98.2635 60.2426 97.1811 60.1964 95.8284L59.23 67.4662C59.1799 65.9896 60.385 64.7753 61.8616 64.8175L79.029 65.3013C80.5056 65.3435 81.6408 66.6224 81.5076 68.0938L78.9433 96.3571C78.8207 97.7045 77.6723 98.725 76.3196 98.6868Z" fill="#4E5C93"/>
<path id="Fill 81" fill-rule="evenodd" clip-rule="evenodd" d="M76.2779 100.156L62.6427 99.7705C61.2899 99.7323 60.2009 98.6485 60.1548 97.2971L59.1871 68.935C59.137 67.4583 60.3433 66.244 61.82 66.2862L78.9873 66.7701C80.464 66.8123 81.5991 68.0912 81.466 69.5625L78.9016 97.8258C78.779 99.1733 77.6306 100.194 76.2779 100.156Z" fill="#330073"/>
<path id="Fill 83" fill-rule="evenodd" clip-rule="evenodd" d="M60.2636 107.579C60.2636 107.579 49.5672 110.406 45.1069 104.64C41.0672 99.4181 46.9804 91.402 53.007 87.5772C56.1106 85.6075 59.909 78.0357 59.8035 80.6251C59.5939 85.7921 59.6295 87.307 59.6558 89.7659C59.7099 94.7482 76.6202 91.054 79.3994 91.609C84.8327 92.6941 78.4778 103.762 60.2636 107.579Z" fill="#FFC999"/>
<path id="Stroke 85" d="M79.5611 93.8968C79.7392 93.8086 79.9551 93.8816 80.0433 94.0597C80.1315 94.2379 80.0586 94.4538 79.8804 94.542C78.9928 94.9813 78.0561 95.3697 77.0764 95.71C74.7175 96.5292 72.1978 97.0436 69.6509 97.3127C68.107 97.4759 66.7701 97.5296 65.7459 97.5194L65.3406 97.5112C65.142 97.5032 64.9874 97.3358 64.9954 97.1371C65.0034 96.9385 65.1709 96.784 65.3695 96.7919L65.5115 96.7959C66.5353 96.8174 67.9351 96.7702 69.5752 96.5969C72.071 96.3331 74.5381 95.8295 76.8403 95.0299C77.7924 94.6993 78.7013 94.3224 79.5611 93.8968Z" fill="#DD936F"/>
<path id="Stroke 87" d="M78.4688 97.6034C78.6428 97.5074 78.8618 97.5707 78.9577 97.7448C79.0537 97.9188 78.9904 98.1378 78.8164 98.2338L78.6646 98.3135L78.505 98.3934C78.2542 98.5169 77.9571 98.654 77.6147 98.8014C76.6401 99.2209 75.4961 99.6398 74.1904 100.03C71.2664 100.905 67.9677 101.511 64.3286 101.727C64.1301 101.739 63.9597 101.587 63.9479 101.389C63.9361 101.191 64.0874 101.02 64.2859 101.008C67.8679 100.796 71.1119 100.2 73.9841 99.3407C75.2625 98.9583 76.3804 98.5489 77.33 98.1402L77.7056 97.9744C77.7646 97.9477 77.8218 97.9214 77.8771 97.8957L78.391 97.6447C78.4247 97.6272 78.4507 97.6134 78.4688 97.6034Z" fill="#DD936F"/>
<path id="Stroke 89" d="M72.8427 102.328C73.0319 102.267 73.2348 102.371 73.296 102.56C73.3572 102.749 73.2535 102.952 73.0644 103.013C70.0676 103.983 67.4061 104.605 65.1075 104.95L64.5686 105.027C63.5355 105.166 62.7724 105.221 62.2935 105.228L62.1797 105.228C61.9779 105.227 61.8179 105.065 61.8193 104.866C61.8206 104.692 61.945 104.548 62.1093 104.515L62.1818 104.509L62.2463 104.508C62.3885 104.506 62.6146 104.497 62.9226 104.475C63.5119 104.434 64.2058 104.357 65.0008 104.238C67.2606 103.899 69.8837 103.286 72.8427 102.328Z" fill="#DD936F"/>
<path id="Stroke 109" d="M36.4692 105.742C36.6079 105.599 36.8357 105.596 36.9782 105.735C37.1028 105.856 37.1208 106.046 37.0304 106.187L36.9851 106.244L14.4636 129.384C14.3249 129.526 14.097 129.529 13.9546 129.391C13.8299 129.269 13.812 129.08 13.9024 128.939L13.9477 128.882L36.4692 105.742Z" fill="#DD936F"/>
</g>
</svg>
