<svg width="28" height="31" viewBox="0 0 28 31" fill="none" xmlns="http://www.w3.org/2000/svg">
<path d="M26.1289 7.60547C26.7148 7.89844 27.125 8.54297 27.125 9.24609V22.3125C27.125 23.0156 26.7148 23.6016 26.1289 23.9531L14.8789 30.5156C14.6445 30.6914 14.293 30.75 14 30.75C13.6484 30.75 13.3555 30.6914 13.0625 30.5156L1.8125 23.9531C1.22656 23.6016 0.875 23.0156 0.875 22.3125V9.24609C0.875 8.54297 1.22656 7.89844 1.8125 7.60547L13.0625 1.04297C13.3555 0.867188 13.6484 0.75 14 0.75C14.293 0.75 14.6445 0.867188 14.8789 1.04297L26.1289 7.60547ZM14 3.73828L5.03516 8.95312L14 14.168L22.9062 8.95312L14 3.73828ZM3.6875 11.4141V21.7852L12.5938 27V16.5703L3.6875 11.4141ZM15.4062 27L24.3125 21.7852V11.4141L15.4062 16.5703V27Z" fill="currentColor"/>
</svg>
