<svg width="98" height="186" viewBox="0 0 98 186" fill="none" xmlns="http://www.w3.org/2000/svg">
<path d="M20.1506 34.7643C20.1506 34.7643 23.4147 56.8561 20.1506 64.9443C16.8864 73.0326 -7.30639 113.499 48.1842 119.771C103.675 126.044 100.411 95.3256 95.5144 84.7877C90.6181 74.2498 83.116 56.4386 85.4336 38.8587C85.4336 38.8587 79.4493 23.306 47.6129 23.2657C15.7766 23.2255 20.1506 34.7643 20.1506 34.7643Z" fill="#66534F"/>
<path d="M32.3367 24.4609C17.376 27.4236 20.1505 34.7624 20.1505 34.7624C20.1505 34.7624 23.4146 56.8542 20.1505 64.9424C19.0624 67.6435 15.6296 73.9964 13.6222 81.4509C16.0105 77.7337 19.2093 72.8647 21.8968 69.1676C25.4112 64.2583 32.9623 49.7216 32.3367 24.4609Z" fill="#A8A8A8"/>
<path d="M95.4926 84.7825C90.5964 74.2447 83.1161 56.4385 85.439 38.8586C85.439 38.8586 82.621 31.2583 69.4447 26.5703C71.4848 39.085 75.6901 60.709 81.9573 72.7105C87.0983 82.5543 95.8027 95.8485 95.6613 106.552C99.6435 98.7358 97.7395 89.6264 95.4926 84.7825Z" fill="#A8A8A8"/>
<path d="M13.236 101.028C13.4578 99.9143 13.9147 98.8522 14.5804 97.9021C15.2462 96.952 16.1078 96.1324 17.1161 95.4902C18.1245 94.848 19.2597 94.3957 20.4571 94.1591C21.6545 93.9225 22.8906 93.9063 24.0947 94.1114C25.2989 94.3165 26.4476 94.7389 27.4752 95.3544C28.5028 95.97 29.3892 96.7667 30.0838 97.699C30.7784 98.6312 31.2676 99.6809 31.5235 100.788C31.7794 101.895 31.7969 103.038 31.5751 104.151C31.4282 104.886 15.6406 156.292 15.6406 156.292C15.2618 158.194 14.0815 159.879 12.3594 160.976C10.6372 162.073 8.51421 162.492 6.45744 162.142C4.40066 161.792 2.57858 160.701 1.39204 159.108C0.205493 157.516 -0.248324 155.553 0.130423 153.652L13.236 101.028Z" fill="#F4987F"/>
<path d="M6.20178 123.463L11.5604 100.738C12.2064 98.2514 13.8521 96.0858 16.1631 94.6812C18.474 93.2765 21.2768 92.7382 24.0016 93.1757C26.7265 93.6132 29.1689 94.9937 30.8323 97.0365C32.4958 99.0793 33.2555 101.631 32.9569 104.173C32.8808 104.561 29.6928 115.496 26.1621 127.593C21.3583 127.1 13.557 125.973 6.20178 123.463Z" fill="#E8EBEF"/>
<path d="M88.9534 209.586C88.9296 208.812 88.8606 208.039 88.7467 207.272C88.6705 206.709 88.5726 206.15 88.442 205.597C84.5141 185.638 73.1767 168.305 73.1767 168.305L25.3024 168.556C25.3024 168.556 12.5342 182.137 10.505 205.401C10.3526 206.301 10.505 210.285 10.505 210.285C10.6078 214.473 12.3648 218.482 15.4446 221.555C18.5244 224.627 22.714 226.552 27.2228 226.965L70.3912 227C75.3156 226.867 79.9945 224.982 83.4526 221.738C86.9107 218.493 88.8812 214.14 88.9534 209.586Z" fill="#492932"/>
<path d="M50.159 226.297C50.0528 226.297 49.9489 226.269 49.8599 226.215C49.771 226.161 49.701 226.085 49.6585 225.995C49.6585 225.945 47.2485 220.824 44.3706 209.954C41.4927 199.084 44.24 174.654 44.3706 173.617C44.387 173.486 44.4591 173.365 44.5712 173.282C44.6833 173.199 44.8263 173.161 44.969 173.175C45.0401 173.182 45.109 173.201 45.1719 173.233C45.2347 173.265 45.2902 173.307 45.3351 173.359C45.3801 173.41 45.4137 173.469 45.4339 173.532C45.4542 173.596 45.4607 173.662 45.4532 173.728C45.4532 173.98 42.5971 198.974 45.4532 209.718C48.3093 220.462 50.6595 225.542 50.6813 225.592C50.7101 225.653 50.7256 225.719 50.727 225.785C50.7284 225.851 50.7155 225.917 50.6892 225.979C50.6629 226.041 50.6237 226.097 50.5738 226.144C50.5239 226.192 50.4643 226.23 50.3984 226.256C50.3235 226.288 50.2412 226.302 50.159 226.297Z" fill="#603B46"/>
<path d="M45.2628 217.11H45.1757C39.7355 216.351 37.7824 210.33 37.7062 210.068C34.132 199.897 37.6736 174.114 37.8259 173.022C37.8349 172.956 37.8578 172.892 37.8934 172.834C37.929 172.777 37.9765 172.726 38.0334 172.685C38.0902 172.644 38.1552 172.614 38.2246 172.596C38.294 172.579 38.3665 172.574 38.438 172.582C38.5094 172.59 38.5784 172.611 38.641 172.644C38.7036 172.677 38.7585 172.721 38.8027 172.774C38.8469 172.826 38.8795 172.886 38.8986 172.951C38.9177 173.015 38.9229 173.082 38.914 173.148C38.8759 173.415 35.2527 199.807 38.7562 209.776C38.7562 209.847 40.5896 215.445 45.3444 216.109C45.4886 216.119 45.623 216.18 45.7179 216.281C45.8128 216.382 45.8604 216.514 45.8503 216.647C45.8402 216.781 45.7732 216.905 45.664 216.993C45.5549 217.08 45.4125 217.125 45.2682 217.115L45.2628 217.11Z" fill="#603B46"/>
<path d="M46.9111 181.353C31.1344 181.353 21.7935 176.866 21.6575 176.801C21.5298 176.738 21.4343 176.631 21.3919 176.503C21.3496 176.375 21.3639 176.237 21.4317 176.119C21.4995 176.001 21.6153 175.913 21.7535 175.874C21.8918 175.835 22.0412 175.848 22.1689 175.91C22.3702 176.011 43.005 185.875 74.7815 175.88C74.9172 175.839 75.0652 175.848 75.1935 175.906C75.3217 175.965 75.42 176.067 75.467 176.192C75.5138 176.318 75.5046 176.456 75.4413 176.576C75.3781 176.696 75.266 176.788 75.1297 176.831C66.0562 179.762 56.5222 181.29 46.9111 181.353Z" fill="#603B46"/>
<path d="M40.9703 178.682C42.2112 178.682 43.2172 177.752 43.2172 176.605C43.2172 175.457 42.2112 174.527 40.9703 174.527C39.7294 174.527 38.7235 175.457 38.7235 176.605C38.7235 177.752 39.7294 178.682 40.9703 178.682Z" fill="#603B46"/>
<path d="M63.3951 180.887C63.3951 180.887 63.5094 195.232 79.4983 194.85C79.4983 194.85 76.7238 184.151 73.1876 178.684C73.1876 178.684 66.3927 180.761 63.3951 180.887Z" fill="#603B46"/>
<path d="M23.2298 178.623C23.2298 178.623 21.5052 186.671 14.6124 188.683C14.6124 188.683 17.3815 180.705 19.7371 177.023C20.8699 177.613 22.0357 178.147 23.2298 178.623Z" fill="#603B46"/>
<path d="M78.9053 198.424C73.155 198.424 68.5688 196.915 65.1904 193.952C59.3748 188.811 59.4238 181.196 59.4292 180.874C59.4292 180.741 59.4865 180.613 59.5885 180.518C59.6906 180.424 59.8289 180.371 59.9732 180.371C60.1175 180.371 60.2559 180.424 60.3579 180.518C60.4599 180.613 60.5172 180.741 60.5172 180.874C60.5172 180.95 60.4792 188.389 65.9575 193.218C69.4501 196.301 74.428 197.694 80.755 197.352C80.8264 197.348 80.898 197.358 80.9657 197.379C81.0333 197.401 81.0957 197.434 81.1492 197.478C81.2028 197.522 81.2464 197.576 81.2777 197.635C81.309 197.695 81.3274 197.759 81.3317 197.825C81.3359 197.891 81.3261 197.957 81.3027 198.02C81.2794 198.083 81.2429 198.14 81.1954 198.19C81.1479 198.239 81.0903 198.28 81.026 198.309C80.9616 198.337 80.8917 198.354 80.8203 198.358C80.1838 198.404 79.5527 198.424 78.9053 198.424Z" fill="#603B46"/>
<path d="M13.9541 191.821C13.8306 191.825 13.7094 191.789 13.6105 191.721C13.5116 191.652 13.441 191.555 13.4101 191.444C13.3756 191.315 13.398 191.178 13.4725 191.064C13.547 190.95 13.6674 190.867 13.8073 190.835C23.6704 188.491 25.1502 179.211 25.1665 179.115C25.1868 178.984 25.2621 178.866 25.3762 178.786C25.4902 178.706 25.6338 178.671 25.7758 178.688C25.9186 178.705 26.048 178.775 26.1357 178.88C26.2234 178.986 26.2622 179.119 26.2437 179.251C26.2437 179.352 24.6442 189.311 14.0738 191.826C14.0339 191.829 13.9937 191.827 13.9541 191.821Z" fill="#603B46"/>
<path d="M44.6861 82.6898L44.6317 95.139L61.1048 95.1994L61.1755 79.0078C56.3103 81.9727 50.4786 83.2748 44.6861 82.6898Z" fill="#FAA284"/>
<path d="M61.1754 79.0085L61.2298 66.5291L44.7568 66.4688L44.686 82.6905C50.4785 83.2756 56.3102 81.9734 61.1754 79.0085Z" fill="#EF8D72"/>
<path d="M50.5616 93.127C56.4915 93.2578 61.2626 89.9581 62.7587 88.3082C59.5652 87.7801 54.7669 86.7489 51.987 86.7188C49.343 86.7188 45.4587 87.5135 42.7385 87.9511C42.831 89.1583 44.2346 92.9962 50.5616 93.127Z" fill="#FAA284"/>
<path d="M93.5939 98.8912C93.5939 92.9809 84.5794 91.7888 84.5794 91.7888C79.8845 90.9689 72.279 89.9277 67.3012 88.8161C67.3012 88.8161 64.951 88.3131 61.9045 87.8101C60.4084 89.4599 56.5839 92.2164 50.6486 92.0856C44.327 91.9498 43.4294 88.7457 43.3206 87.5586C40.4372 88.0314 38.2285 88.5193 38.2285 88.5193C29.399 90.2396 22.3266 91.7888 22.3266 91.7888C22.3266 91.7888 13.2088 92.9809 13.2088 98.8912C13.2088 101.562 19.3943 105.46 22.1145 106.849V107.503C13.4101 113.795 12.1207 118.508 12.1207 123.88C12.1207 135.107 22.294 137.859 22.294 137.859L25.2916 168.542C44.2889 177.736 73.1658 168.29 73.1658 168.29C76.3103 148.477 81.2228 135.741 83.5023 123.075C84.3942 117.639 84.8687 112.151 84.9222 106.652C87.8708 105.149 93.5939 101.456 93.5939 98.8912Z" fill="#E8EBEF"/>
<path d="M14.8735 128.673C14.8735 128.673 17.0496 130.358 21.7119 130.73C31.1671 131.485 46.6718 133.059 60.3377 131.027C66.0717 130.177 70.2879 127.506 74.6075 124.367C74.6075 124.367 72.0343 137.948 54.0651 137.682C36.096 137.415 16.0051 139.447 14.8735 128.673Z" fill="#D4D5D6"/>
<path d="M76.8162 43.3078C76.8162 43.3078 82.6155 9.10377 51.9706 9.12892C20.5967 9.12892 23.529 38.8663 23.5997 41.9396C24.4048 45.6769 25.4059 51.6475 25.0903 56.8033C24.3124 69.665 36.0415 78.0299 46.4651 78.0199C66.4798 78.0199 73.8567 59.7811 73.8567 59.7811C75.4516 54.3983 76.4434 48.8782 76.8162 43.3078Z" fill="#FAA284"/>
<path d="M51.9699 9.12892C20.5959 9.12892 23.5282 38.8663 23.599 41.9396C23.7894 42.8048 23.9852 43.7957 24.143 44.8671C26.3487 44.2792 28.3313 43.1299 29.8646 41.5504C31.3979 39.9709 32.4202 38.0247 32.8147 35.9338C34.3815 27.9663 31.7757 17.4888 42.1013 20.6124C42.1013 20.6124 51.0994 18.359 51.1701 23.3387C51.2409 28.3184 48.994 48.2372 76.5217 46.6326C76.7556 44.5854 76.8155 43.3279 76.8155 43.3279C76.8155 43.3279 82.6148 9.10377 51.9699 9.12892Z" fill="#DB7C65"/>
<g opacity="0.9">
<path opacity="0.09" d="M34.3931 50.792C36.0402 51.0793 37.558 51.8119 38.7545 52.8971C39.9511 53.9823 40.7725 55.3714 41.1148 56.8884C41.4571 58.4054 41.305 59.9823 40.6777 61.4193C40.0503 62.8564 38.9759 64.0891 37.5906 64.9613C36.2052 65.8336 34.571 66.3062 32.895 66.3194C31.219 66.3326 29.5764 65.8858 28.1751 65.0354C26.7739 64.1851 25.677 62.9695 25.0232 61.5426C24.3695 60.1156 24.1884 58.5414 24.5027 57.0192C24.9234 54.9819 26.2011 53.1821 28.0552 52.0147C29.9094 50.8472 32.1887 50.4075 34.3931 50.792Z" fill="#F28B79"/>
<path opacity="0.18" d="M34.2408 51.5267C35.7285 51.7871 37.0992 52.4495 38.1797 53.4302C39.2601 54.411 40.0016 55.6659 40.3106 57.0364C40.6195 58.4069 40.4819 59.8312 39.9152 61.1294C39.3485 62.4275 38.3781 63.5411 37.1268 64.3293C35.8755 65.1175 34.3995 65.5448 32.8855 65.5573C31.3714 65.5698 29.8874 65.1669 28.6211 64.3995C27.3548 63.6321 26.3631 62.5347 25.7714 61.2461C25.1797 59.9575 25.0146 58.5356 25.2971 57.1603C25.4838 56.2472 25.8634 55.3771 26.414 54.5998C26.9647 53.8224 27.6756 53.153 28.5063 52.6298C29.3369 52.1066 30.2708 51.7399 31.2548 51.5506C32.2388 51.3613 33.2535 51.3532 34.2408 51.5267Z" fill="#F28B79"/>
<path opacity="0.27" d="M34.0885 52.267C35.4158 52.5007 36.6384 53.0929 37.6017 53.969C38.565 54.845 39.2258 55.9654 39.5005 57.1886C39.7752 58.4118 39.6515 59.6828 39.1451 60.841C38.6387 61.9992 37.7723 62.9926 36.6553 63.6956C35.5384 64.3986 34.2211 64.7796 32.87 64.7906C31.5189 64.8015 30.1946 64.4418 29.0646 63.757C27.9345 63.0721 27.0494 62.0929 26.5211 60.9431C25.9929 59.7932 25.8452 58.5244 26.0968 57.297C26.4357 55.6504 27.4679 54.1956 28.9664 53.2524C30.465 52.3091 32.3074 51.9547 34.0885 52.267Z" fill="#F28B79"/>
<path opacity="0.36" d="M33.9361 53.0068C35.1067 53.211 36.1854 53.7317 37.0359 54.5028C37.8864 55.274 38.4705 56.2611 38.7142 57.3392C38.9579 58.4173 38.8504 59.538 38.4051 60.5595C37.9599 61.5811 37.197 62.4577 36.2129 63.0783C35.2288 63.699 34.0678 64.0359 32.8766 64.0464C31.6854 64.0568 30.5177 63.7405 29.521 63.1373C28.5243 62.5341 27.7434 61.6711 27.2772 60.6576C26.811 59.644 26.6804 58.5254 26.9019 57.4432C27.1987 55.9926 28.1065 54.7104 29.4255 53.8785C30.7446 53.0465 32.3671 52.733 33.9361 53.0068Z" fill="#F28B79"/>
<path opacity="0.45" d="M33.7838 53.7518C34.7957 53.9286 35.7282 54.379 36.4632 55.0459C37.1983 55.7128 37.7029 56.5663 37.9132 57.4985C38.1236 58.4306 38.0302 59.3994 37.645 60.2825C37.2597 61.1655 36.5999 61.9231 35.7489 62.4594C34.8979 62.9956 33.894 63.2865 32.8642 63.2952C31.8344 63.3039 30.8249 63.03 29.9635 62.5082C29.1021 61.9864 28.4274 61.2401 28.0247 60.3637C27.6221 59.4873 27.5096 58.5201 27.7016 57.5846C27.9588 56.3308 28.744 55.2228 29.8845 54.504C31.025 53.7853 32.4275 53.5147 33.7838 53.7518Z" fill="#F28B79"/>
<path opacity="0.55" d="M33.6315 54.4888C34.4847 54.638 35.2708 55.0178 35.8905 55.5802C36.5101 56.1425 36.9356 56.8621 37.1129 57.648C37.2903 58.4339 37.2116 59.2508 36.8869 59.9953C36.5622 60.7399 36.0059 61.3787 35.2885 61.8309C34.5712 62.2832 33.7248 62.5286 32.8566 62.5362C31.9883 62.5438 31.1372 62.3131 30.4107 61.8734C29.6842 61.4337 29.115 60.8047 28.7752 60.066C28.4353 59.3272 28.34 58.5119 28.5014 57.723C28.6085 57.1992 28.8262 56.7 29.142 56.254C29.4578 55.8079 29.8655 55.4238 30.3419 55.1234C30.8183 54.8231 31.354 54.6125 31.9184 54.5036C32.4829 54.3947 33.065 54.3896 33.6315 54.4888Z" fill="#F28B79"/>
<path opacity="0.64" d="M33.4792 55.2298C34.1737 55.3517 34.8135 55.6613 35.3177 56.1194C35.822 56.5775 36.168 57.1635 36.312 57.8034C36.456 58.4433 36.3915 59.1083 36.1267 59.7143C35.862 60.3204 35.4088 60.8402 34.8245 61.2081C34.2402 61.576 33.551 61.7754 32.8441 61.7812C32.1373 61.7869 31.4444 61.5988 30.8532 61.2404C30.262 60.8821 29.799 60.3698 29.5227 59.7682C29.2464 59.1665 29.1693 58.5027 29.3011 57.8605C29.3886 57.4341 29.566 57.0279 29.8234 56.6649C30.0807 56.3019 30.4128 55.9894 30.8008 55.7451C31.1888 55.5008 31.625 55.3296 32.0846 55.2412C32.5441 55.1528 33.018 55.1489 33.4792 55.2298Z" fill="#F28B79"/>
<path opacity="0.73" d="M33.3268 55.9697C33.8636 56.064 34.358 56.3035 34.7473 56.6579C35.1367 57.0122 35.4034 57.4656 35.5137 57.9603C35.624 58.4551 35.5729 58.969 35.3669 59.4368C35.1609 59.9047 34.8092 60.3054 34.3565 60.5882C33.9038 60.8711 33.3704 61.0232 32.8241 61.0254C32.2777 61.0275 31.743 60.8796 31.2877 60.6004C30.8324 60.3212 30.477 59.9232 30.2667 59.457C30.0563 58.9908 30.0005 58.4773 30.1062 57.9817C30.2484 57.3219 30.6664 56.7405 31.2693 56.3638C31.8723 55.9871 32.6116 55.8455 33.3268 55.9697Z" fill="#F28B79"/>
<path opacity="0.82" d="M33.1745 56.7148C33.552 56.7808 33.8999 56.9489 34.1741 57.1977C34.4484 57.4466 34.6366 57.765 34.715 58.1128C34.7935 58.4606 34.7585 58.8221 34.6147 59.1515C34.4709 59.4809 34.2246 59.7635 33.907 59.9635C33.5894 60.1635 33.2148 60.2719 32.8306 60.275C32.4464 60.278 32.0698 60.1757 31.7485 59.9808C31.4272 59.786 31.1757 59.5074 31.0257 59.1803C30.8757 58.8532 30.834 58.4924 30.9059 58.1434C31.0022 57.6759 31.2951 57.263 31.7205 56.9951C32.1458 56.7273 32.6688 56.6265 33.1745 56.7148Z" fill="#F28B79"/>
<path opacity="0.91" d="M33.0276 57.4511C33.2459 57.4904 33.4467 57.5886 33.6048 57.7332C33.7628 57.8779 33.871 58.0626 33.9156 58.2641C33.9603 58.4655 33.9394 58.6747 33.8556 58.8652C33.7719 59.0557 33.629 59.219 33.445 59.3345C33.261 59.45 33.0441 59.5126 32.8217 59.5143C32.5994 59.516 32.3814 59.4568 32.1953 59.3441C32.0093 59.2314 31.8635 59.0703 31.7764 58.8811C31.6892 58.692 31.6646 58.4831 31.7056 58.281C31.7636 58.0097 31.9349 57.7705 32.1823 57.6151C32.4298 57.4598 32.7335 57.4009 33.0276 57.4511Z" fill="#F28B79"/>
<path d="M33.1202 58.529C33.1043 58.6041 33.0572 58.6703 32.9891 58.7136C32.9209 58.7569 32.8371 58.7737 32.7557 58.7604C32.6745 58.7458 32.6028 58.7022 32.556 58.6392C32.5092 58.5762 32.491 58.4987 32.5054 58.4234C32.5225 58.348 32.5707 58.2816 32.6397 58.2385C32.7088 58.1953 32.7933 58.1786 32.8753 58.192C32.9154 58.1992 32.9535 58.2137 32.9875 58.2346C33.0214 58.2554 33.0506 58.2823 33.0734 58.3136C33.0961 58.3449 33.112 58.38 33.12 58.417C33.128 58.454 33.1281 58.492 33.1202 58.529Z" fill="#F28B79"/>
</g>
<g opacity="0.9">
<path opacity="0.09" d="M61.2517 50.2244C63.014 50.5329 64.6378 51.3176 65.9178 52.4793C67.1978 53.641 68.0765 55.1276 68.4427 56.751C68.8089 58.3745 68.6463 60.0618 67.9753 61.5998C67.3044 63.1378 66.1552 64.4572 64.6732 65.3914C63.1912 66.3255 61.4429 66.8323 59.6494 66.8478C57.8558 66.8632 56.0976 66.3866 54.597 65.4782C53.0965 64.5697 51.9209 63.2703 51.2191 61.7442C50.5173 60.218 50.3206 58.5337 50.6541 56.9043C50.8755 55.8223 51.3253 54.7912 51.9777 53.8699C52.6301 52.9486 53.4724 52.1552 54.4565 51.5349C55.4406 50.9146 56.5472 50.4796 57.7131 50.2548C58.879 50.0299 60.0815 50.0196 61.2517 50.2244Z" fill="#F28B79"/>
<path opacity="0.18" d="M61.0885 51.0198C62.6805 51.2986 64.1474 52.0075 65.3037 53.057C66.4599 54.1065 67.2537 55.4494 67.5845 56.916C67.9154 58.3825 67.7685 59.9069 67.1624 61.2962C66.5563 62.6856 65.5183 63.8776 64.1795 64.7216C62.8408 65.5655 61.2615 66.0235 59.6412 66.0376C58.021 66.0517 56.4326 65.6213 55.0769 64.8008C53.7212 63.9803 52.6591 62.8066 52.0249 61.428C51.3906 60.0494 51.2127 58.5279 51.5136 57.0558C51.7128 56.0778 52.1187 55.1458 52.7079 54.3129C53.2971 53.4801 54.0581 52.7628 54.9474 52.2022C55.8367 51.6416 56.8369 51.2486 57.8906 51.0457C58.9444 50.8428 60.0311 50.834 61.0885 51.0198Z" fill="#F28B79"/>
<path opacity="0.27" d="M60.9524 51.8C62.3757 52.0481 63.6874 52.6808 64.7217 53.6182C65.756 54.5557 66.4664 55.7556 66.7631 57.0663C67.0598 58.3771 66.9294 59.7397 66.3884 60.9819C65.8474 62.2241 64.9202 63.2901 63.724 64.0451C62.5277 64.8 61.1162 65.21 59.6679 65.2232C58.2196 65.2364 56.7997 64.8522 55.5876 64.1192C54.3754 63.3862 53.4257 62.3373 52.8583 61.1052C52.291 59.8731 52.1316 58.5131 52.4003 57.1972C52.7619 55.4337 53.8655 53.8749 55.4689 52.863C57.0723 51.8511 59.0444 51.4688 60.9524 51.8Z" fill="#F28B79"/>
<path opacity="0.36" d="M60.7675 52.605C62.0219 52.8256 63.1774 53.3854 64.0876 54.2135C64.9978 55.0416 65.6217 56.1008 65.8804 57.257C66.1392 58.4131 66.021 59.6143 65.541 60.7083C65.0609 61.8024 64.2405 62.7401 63.1837 63.4028C62.1269 64.0655 60.8811 64.4234 59.6042 64.4311C58.3273 64.4388 57.0766 64.096 56.0105 63.4461C54.9444 62.7962 54.1109 61.8684 53.6154 60.7802C53.12 59.6921 52.9849 58.4924 53.2273 57.3333C53.5515 55.7829 54.5272 54.4147 55.9406 53.5284C57.354 52.6421 59.0897 52.3101 60.7675 52.605Z" fill="#F28B79"/>
<path opacity="0.45" d="M60.6043 53.4007C61.687 53.5925 62.6838 54.0767 63.469 54.7921C64.2542 55.5076 64.7924 56.4221 65.0156 57.4202C65.2389 58.4183 65.1371 59.4552 64.7233 60.3999C64.3094 61.3446 63.6021 62.1547 62.6905 62.7278C61.7789 63.3009 60.7041 63.6114 59.6018 63.6199C58.4994 63.6285 57.4191 63.3348 56.4972 62.7759C55.5754 62.217 54.8534 61.418 54.4224 60.4799C53.9915 59.5418 53.8709 58.5066 54.076 57.5052C54.2124 56.839 54.4896 56.2043 54.8917 55.6373C55.2938 55.0703 55.8129 54.5822 56.4193 54.2009C57.0257 53.8197 57.7075 53.5527 58.4256 53.4154C59.1437 53.2781 59.8841 53.2731 60.6043 53.4007Z" fill="#F28B79"/>
<path opacity="0.55" d="M60.4411 54.1934C61.3544 54.3537 62.1957 54.7607 62.8588 55.3631C63.5219 55.9654 63.977 56.7361 64.1664 57.5775C64.3558 58.419 64.2711 59.2935 63.9231 60.0904C63.575 60.8874 62.9791 61.571 62.2109 62.0549C61.4426 62.5388 60.5364 62.8011 59.6068 62.8089C58.6773 62.8166 57.7661 62.5693 56.9886 62.0982C56.211 61.6272 55.602 60.9536 55.2385 60.1625C54.875 59.3715 54.7734 58.4985 54.9464 57.654C55.0614 57.0932 55.2947 56.5588 55.633 56.0813C55.9714 55.6039 56.4082 55.1927 56.9184 54.8713C57.4287 54.55 58.0024 54.3247 58.6068 54.2084C59.2112 54.0921 59.8345 54.087 60.4411 54.1934Z" fill="#F28B79"/>
<path opacity="0.64" d="M60.2779 54.9866C61.0157 55.1193 61.6946 55.4509 62.229 55.9396C62.7633 56.4284 63.1293 57.0524 63.2809 57.7331C63.4324 58.4138 63.3626 59.1207 63.0804 59.7649C62.7982 60.409 62.3161 60.9615 61.6949 61.3528C61.0738 61.7441 60.3412 61.9566 59.5896 61.9637C58.838 61.9708 58.1009 61.772 57.4713 61.3925C56.8416 61.013 56.3474 60.4697 56.0511 59.831C55.7548 59.1923 55.6695 58.4869 55.806 57.8034C55.8974 57.346 56.0859 56.9098 56.3606 56.5201C56.6354 56.1304 56.9909 55.7949 57.4068 55.533C57.8226 55.2711 58.2904 55.0879 58.7832 54.9942C59.276 54.9004 59.784 54.8978 60.2779 54.9866Z" fill="#F28B79"/>
<path opacity="0.73" d="M60.1147 55.7776C60.6889 55.8775 61.2182 56.1326 61.6356 56.5106C62.053 56.8887 62.3398 57.3727 62.4597 57.9015C62.5795 58.4302 62.5271 58.98 62.309 59.4812C62.0909 59.9824 61.717 60.4125 61.2345 60.7172C60.752 61.0219 60.1826 61.1875 59.5983 61.1929C59.014 61.1984 58.4411 61.0435 57.952 60.7479C57.4629 60.4523 57.0797 60.0292 56.8507 59.5321C56.6217 59.0351 56.5573 58.4865 56.6656 57.9556C56.8107 57.2439 57.2556 56.6147 57.9024 56.2063C58.5492 55.7979 59.3449 55.6437 60.1147 55.7776Z" fill="#F28B79"/>
<path opacity="0.82" d="M59.9515 56.5722C60.3567 56.6426 60.7302 56.8225 61.0247 57.0892C61.3192 57.3559 61.5216 57.6974 61.6061 58.0705C61.6907 58.4436 61.6536 58.8315 61.4996 59.1851C61.3457 59.5386 61.0817 59.8421 60.7411 60.0569C60.4006 60.2717 59.9988 60.3884 59.5865 60.392C59.1743 60.3956 58.7701 60.286 58.4253 60.0772C58.0804 59.8684 57.8102 59.5697 57.649 59.2188C57.4878 58.868 57.4428 58.4808 57.5197 58.1063C57.6226 57.605 57.9365 57.1618 58.3924 56.8742C58.8483 56.5866 59.409 56.478 59.9515 56.5722Z" fill="#F28B79"/>
<path opacity="0.91" d="M59.7882 57.3676C60.023 57.4082 60.2396 57.5124 60.4104 57.6669C60.5812 57.8214 60.6986 58.0192 60.7478 58.2355C60.797 58.4517 60.7756 58.6765 60.6866 58.8815C60.5975 59.0865 60.4446 59.2625 60.2473 59.3871C60.05 59.5118 59.8172 59.5795 59.5783 59.5818C59.3393 59.584 59.105 59.5207 58.905 59.3998C58.705 59.2789 58.5483 59.1059 58.4547 58.9026C58.3611 58.6994 58.3348 58.475 58.3791 58.2579C58.4079 58.1136 58.4672 57.9761 58.5537 57.8531C58.6402 57.7302 58.7522 57.6243 58.8832 57.5415C59.0142 57.4587 59.1616 57.4008 59.3169 57.3709C59.4722 57.3411 59.6324 57.3399 59.7882 57.3676Z" fill="#F28B79"/>
<path d="M59.8916 58.5253C59.8833 58.5649 59.8668 58.6027 59.8428 58.6364C59.8188 58.6701 59.7878 58.6991 59.7517 58.7218C59.7156 58.7444 59.675 58.7603 59.6323 58.7684C59.5895 58.7766 59.5454 58.7768 59.5026 58.7693C59.4597 58.7617 59.4189 58.7463 59.3824 58.7241C59.346 58.702 59.3146 58.6733 59.2901 58.64C59.2656 58.6066 59.2484 58.569 59.2396 58.5295C59.2308 58.49 59.2305 58.4492 59.2387 58.4096C59.2553 58.3296 59.3056 58.2589 59.3786 58.2131C59.4515 58.1674 59.5411 58.1503 59.6277 58.1657C59.7143 58.181 59.7907 58.2275 59.8402 58.2949C59.8897 58.3624 59.9082 58.4453 59.8916 58.5253Z" fill="#F28B79"/>
</g>
<path d="M46.2637 59.9133C42.7819 61.3821 40.6004 60.6226 40.1489 58.4647C39.8551 57.0563 40.7419 55.4467 41.6939 54.6721C43.6469 53.0675 44.5174 48.3745 44.5228 48.3242C44.6752 49.3302 44.4575 53.2536 42.0747 55.9698C41.8222 56.2178 41.6288 56.5121 41.507 56.8335C41.3851 57.155 41.3376 57.4965 41.3675 57.836C41.498 59.4405 43.1628 60.693 46.2202 59.9385L46.2637 59.9133Z" fill="#DB7C65"/>
<path d="M33.6369 45.6672C33.6369 45.6672 30.5903 45.7427 30.1497 44.6914C30.1052 44.9119 30.1088 45.1385 30.1602 45.3577C30.2117 45.577 30.3099 45.7845 30.4493 45.9681C30.5886 46.1518 30.7663 46.3079 30.9717 46.4272C31.1772 46.5466 31.4063 46.6268 31.6458 46.6632C31.0191 47.438 30.6967 48.3872 30.7318 49.3542C30.7699 51.3662 32.1245 52.9809 33.762 52.9557C35.3995 52.9306 36.6997 51.2958 36.6671 49.2838C36.6345 47.2718 35.2744 45.6421 33.6369 45.6672Z" fill="#502F26"/>
<path d="M56.4859 45.338C56.4859 45.338 53.4394 45.4185 52.9933 44.3672C52.9496 44.5874 52.9538 44.8134 53.0056 45.032C53.0575 45.2507 53.1559 45.4576 53.2952 45.6407C53.4344 45.8238 53.6118 45.9794 53.8168 46.0984C54.0219 46.2174 54.2505 46.2975 54.4894 46.3339C53.8662 47.1102 53.5459 48.0588 53.5809 49.025C53.6135 51.037 54.9681 52.6516 56.6111 52.6315C58.254 52.6114 59.5488 50.9565 59.5107 48.9395C59.4726 46.9224 58.1235 45.3128 56.4859 45.338Z" fill="#502F26"/>
<path d="M37.7715 40.0248C37.7715 40.0248 32.8753 38.7975 26.162 40.6032C26.162 40.6032 26.1185 40.1455 27.3807 39.1496C28.6428 38.1536 32.9787 37.1979 36.7705 38.6466C36.7705 38.6365 38.7399 39.6073 37.7715 40.0248Z" fill="#524645"/>
<path d="M50.0719 39.7628C50.0719 39.7628 54.9682 38.455 61.6923 40.1451C61.6923 40.1451 61.725 39.6874 60.4465 38.7116C59.168 37.7357 54.8104 36.8555 51.0457 38.3544C51.0512 38.3544 49.1036 39.3604 50.0719 39.7628Z" fill="#524645"/>
<path d="M53.4721 62.8672C53.4721 62.8672 45.6979 64.4516 38.4243 63.0835C38.4243 63.0835 39.8116 69.2301 46.0407 69.1195C51.9325 69.0491 53.4231 64.0794 53.4721 62.8672Z" fill="#B22828"/>
<path d="M45.8285 65.9398C41.0357 66.0102 39.5994 64.1944 38.9792 63.1985C44.6208 64.1441 49.1471 63.4651 53.0913 62.957C52.6832 64.0787 50.3548 65.8845 45.8285 65.9398Z" fill="white"/>
<path d="M76.0981 43.4009C76.0981 43.4009 73.2311 43.9844 72.2355 51.449C71.24 58.9135 73.2529 59.5322 73.8676 59.7887C73.8676 59.7887 81.1793 61.6749 83.7145 50.4882C85.809 41.1928 76.0981 43.4009 76.0981 43.4009Z" fill="#FAA284"/>
<path d="M74.0743 54.641C74.0743 54.641 79.4004 52.1763 75.244 49.7015C75.244 49.7015 76.6367 44.0629 80.2055 45.3355C83.7743 46.6081 80.9127 51.8745 80.2055 52.9861C78.7203 55.2747 74.0743 58.0765 74.0743 54.641Z" fill="#DB7C65"/>
<path d="M42.102 20.6139C42.102 20.6139 55.5448 13.3758 55.7516 24.3009C55.9583 35.2261 57.3456 46.4732 77.9804 46.5989C77.9804 46.5989 83.0671 46.3575 83.7036 50.5022C83.7036 50.5022 89.7803 27.5403 79.9879 14.4623C71.2345 2.7524 49.3647 -5.03907 41.2696 3.82379C41.2696 3.82379 21.206 -2.66994 17.425 14.4421C14.7103 26.7505 21.2386 39.2602 24.1437 44.6926C24.1437 44.6926 30.2096 39.8738 30.128 34.5068C30.0464 29.1398 28.398 13.0689 42.102 20.6139Z" fill="#66534F"/>
<path d="M33.3322 19.3461C29.1704 15.2013 26.4068 8.9591 24.791 4.31641C21.4671 5.95619 18.6272 9.00437 17.4304 14.4418C17.0625 16.1272 16.8514 17.8386 16.7993 19.5573C21.1016 21.7556 25.6856 23.4455 30.4435 24.5873C30.8841 22.3339 31.7328 20.3571 33.3322 19.3461Z" fill="#A8A8A8"/>
<path d="M67.7202 4.45312C62.6498 11.5907 58.08 16.4094 53.9835 19.4476C55.0226 20.363 55.7081 21.8871 55.7516 24.2814C55.7516 24.7844 55.7516 25.3327 55.7951 25.8558C66.001 24.6486 75.2767 21.696 82.5122 18.7283C81.8331 17.2239 80.9891 15.7879 79.9934 14.4427C77.0447 10.5092 72.6109 7.03352 67.7202 4.45312Z" fill="#A8A8A8"/>
<path d="M41.2696 3.82219C41.2696 3.82219 40.6385 14.3047 42.0856 19.7522C39.6103 14.5986 38.6711 8.92652 39.3655 3.32422L41.2696 3.82219Z" fill="#66534F"/>
<path d="M9.38976 162.203C7.35779 162.532 5.2673 162.111 3.56748 161.03C1.86765 159.95 0.694143 158.295 0.2991 156.423C-0.0766936 154.51 0.364672 152.536 1.5304 150.917C2.69613 149.298 4.49541 148.16 6.54995 147.742C6.54995 147.742 19.6066 143.215 62.8022 137.848L64.6954 146.987C64.6954 146.987 29.7581 160.171 10.0589 162.077C9.91203 162.092 9.38976 162.203 9.38976 162.203Z" fill="#F4987F"/>
<path d="M76.8978 163.819C78.9039 164.279 81.0252 163.992 82.8049 163.02C84.5846 162.049 85.8803 160.469 86.4128 158.623C86.9299 156.742 86.6398 154.749 85.6035 153.061C84.5671 151.374 82.8648 150.122 80.8529 149.569C80.8529 149.569 70.9788 143.734 28.3109 135.57L25.5908 143.472C25.5908 143.472 56.7743 160.459 76.2831 163.648C76.3864 163.668 76.8978 163.819 76.8978 163.819Z" fill="#FAA284"/>
<path d="M93.2241 103.513C93.4378 102.381 93.4047 101.222 93.1267 100.102C92.8486 98.9825 92.3312 97.9256 91.6049 96.9935C90.8786 96.0615 89.9581 95.2732 88.8974 94.6749C87.8368 94.0766 86.6575 93.6805 85.4288 93.5097C84.2002 93.339 82.947 93.3972 81.743 93.6808C80.5391 93.9644 79.4086 94.4678 78.4181 95.1613C77.4276 95.8548 76.597 96.7244 75.9753 97.719C75.3536 98.7135 74.9533 99.813 74.7979 100.953C74.6782 101.692 71.5338 155.045 71.5338 155.045C71.3798 155.991 71.4289 156.956 71.6781 157.884C71.9274 158.813 72.372 159.687 72.9865 160.456C74.2277 162.01 76.0857 163.045 78.1518 163.332C80.218 163.62 82.323 163.137 84.0039 161.989C85.6847 160.842 86.8037 159.124 87.1146 157.213L93.2241 103.513Z" fill="#FAA284"/>
<path d="M92.2447 126.663L94.9267 103.525C95.1314 100.993 94.293 98.4826 92.5795 96.4983C90.8661 94.5139 88.4045 93.2021 85.6885 92.8259C82.9726 92.4497 80.2032 93.037 77.9361 94.47C75.669 95.9029 74.0718 98.0756 73.465 100.552C73.3997 100.944 72.6924 112.247 71.9199 124.756C76.6257 125.692 84.4107 126.904 92.2447 126.663Z" fill="#E8EBEF"/>
<path d="M56.3826 139.074C56.3826 139.074 71.4793 134.164 74.2103 133.611C76.3102 133.183 80.5482 132.102 83.4152 131.177C84.2747 130.905 87.0819 129.481 87.3866 130.045C87.5987 130.422 88.208 131.171 86.5705 132.68C84.933 134.189 78.791 135.568 78.791 135.568L83.7797 136.886C86.07 137.494 88.6215 137.746 88.8989 138.284C88.8989 138.284 89.7367 140.11 86.4672 140.296C86.4672 140.296 88.6433 140.557 88.5725 141.392C88.4039 143.374 86.663 143.233 84.6991 143.153C82.7351 143.072 79.1391 142.434 77.4581 142.746L83.1323 145.452C83.1323 145.452 85.3084 146.548 85.526 147.021C85.7436 147.494 85.4825 148.626 83.3499 148.123C80.9453 147.554 77.1698 144.602 72.0777 146.111L56.3826 141.639V139.074Z" fill="#F4987F"/>
<path d="M86.4673 140.296C86.4673 140.296 76.8761 139.29 76.8761 138.47C76.8761 137.65 83.2031 139.728 86.4673 140.296Z" fill="#E2846F"/>
<path d="M78.7911 135.569C78.7911 135.569 75.4834 135.151 75.7119 134.9C75.9404 134.648 77.7411 135.106 78.7911 135.569Z" fill="#E2846F"/>
<path d="M77.4582 142.746C77.4582 142.746 75.3473 142.303 75.4834 142.022C75.8043 141.373 77.4582 142.746 77.4582 142.746Z" fill="#E2846F"/>
<path d="M27.7288 145.327C23.599 146.527 19.1472 146.369 15.1292 144.879L8.60091 145.93C8.3318 145.865 8.08388 145.74 7.87845 145.566C7.67302 145.393 7.51622 145.176 7.42152 144.934C7.32681 144.692 7.29703 144.432 7.33474 144.178C7.37244 143.923 7.4765 143.68 7.63798 143.47C7.63798 143.47 6.74034 143.47 6.75666 142.324C6.86317 141.73 7.0572 141.153 7.33333 140.608C6.54993 140.312 6.34864 138.848 7.43669 138.093C7.17433 137.779 7.04455 137.388 7.07158 136.991C7.09861 136.595 7.28059 136.222 7.58358 135.941C8.55194 134.829 11.7617 132.103 13.2523 131.474C14.743 130.845 21.478 132.666 28.213 134.693C35.269 136.806 33.3758 144.124 27.7288 145.327Z" fill="#FAA284"/>
<path d="M7.63794 143.472C7.63794 143.472 12.1425 141.419 12.4145 141.963C12.6865 142.506 7.63794 143.472 7.63794 143.472Z" fill="#EF8D72"/>
<path d="M7.34424 140.609C7.34424 140.609 12.2405 137.37 12.4254 137.958C12.6104 138.547 7.34424 140.609 7.34424 140.609Z" fill="#EF8D72"/>
<path d="M7.44751 138.079C7.44751 138.079 11.6093 134.332 11.7997 134.679C11.9901 135.026 7.44751 138.079 7.44751 138.079Z" fill="#EF8D72"/>
</svg>
