<svg width="172" height="187" viewBox="0 0 172 187" fill="none" xmlns="http://www.w3.org/2000/svg">
<path d="M121.742 104.235C121.438 103.113 121.379 101.949 121.571 100.807C121.763 99.6651 122.2 98.5688 122.859 97.5805C123.518 96.5922 124.385 95.7312 125.411 95.0468C126.436 94.3623 127.601 93.8678 128.837 93.5915C130.073 93.3151 131.358 93.2623 132.617 93.4361C133.876 93.6099 135.084 94.0068 136.174 94.6043C137.264 95.2018 138.213 95.988 138.968 96.9183C139.723 97.8485 140.268 98.9044 140.573 100.026C140.776 100.764 149.609 154.743 149.609 154.743C150.08 156.641 149.712 158.632 148.583 160.287C147.454 161.942 145.655 163.13 143.571 163.596C141.487 164.062 139.285 163.769 137.438 162.779C135.59 161.79 134.243 160.183 133.687 158.303L121.742 104.235Z" fill="#FAA284"/>
<path d="M133.619 158.052C133.139 156.15 133.501 154.153 134.629 152.492C135.757 150.83 137.56 149.637 139.649 149.17C141.755 148.698 143.981 148.989 145.856 149.979C147.73 150.97 149.106 152.583 149.693 154.477C149.693 154.477 155.592 166.787 163.861 206.874L153.692 209.147C153.692 209.147 136.986 177.023 133.77 158.549C133.744 158.431 133.619 158.052 133.619 158.052Z" fill="#FAA284"/>
<path d="M126.603 139.913L118.85 104.816C118.087 101.868 118.639 98.7659 120.386 96.1851C122.133 93.6044 124.934 91.7541 128.178 91.0373C131.422 90.3204 134.848 90.7951 137.708 92.3578C140.568 93.9206 142.632 96.4449 143.449 99.3811C143.595 99.9208 146.42 117.027 149.536 136.017C144.123 137.371 134.945 139.393 126.603 139.913Z" fill="#DEDFE0"/>
<path d="M83.3633 62.8375L82.6768 85.5547L104.073 86.0865L104.759 63.3693L83.3633 62.8375Z" fill="#FAA284"/>
<path d="M83.0743 72.5417L83.3667 62.8359L104.771 63.3662L104.311 78.5167C101.153 78.8386 88.6028 79.3074 83.0743 72.5417Z" fill="#EF8D72"/>
<path d="M107.089 84.0845C98.0237 82.2651 88.6589 82.0337 79.4983 83.4028C79.4983 83.4028 83.043 91.3047 94.2618 91.584C105.481 91.8634 107.089 84.0845 107.089 84.0845Z" fill="#FAA284"/>
<path d="M38.4601 97.0821C39.0621 95.1238 40.2441 93.3525 41.8776 91.9603C43.5112 90.5681 45.5339 89.6083 47.7264 89.1849C47.7264 89.1849 65.8937 85.0848 80.819 82.5234C80.819 82.5234 83.8051 90.397 95.901 90.5201C106.384 90.6242 105.616 83.1389 105.616 83.1389C112.34 84.2705 129.302 88.3185 135.947 91.3344C138.072 92.1453 139.901 93.4845 141.223 95.1977C142.545 96.9108 143.306 98.928 143.418 101.016C143.418 101.016 143.418 104.331 135.613 108.691C134.919 116.408 133.494 127.071 130.716 141.407C127.474 158.134 128.284 166.973 127.631 190.172C127.631 190.172 105.465 197.961 57.3478 188.392C57.3478 188.392 59.8275 163.976 57.9794 145.445C56.4864 130.517 50.629 115.85 49.5849 107.825C36.0117 102.309 38.4601 97.0821 38.4601 97.0821Z" fill="#E8EBEF"/>
<path d="M70.0231 41.1905C70.0231 41.1905 63.2365 8.64062 97.0965 8.64062C122.505 8.64062 120.996 34.8794 120.996 34.8794C120.996 43.1979 121.205 57.3305 114.893 65.7722C112.236 69.3325 108.916 72.6325 103.231 73.1249C78.7361 75.2412 72.8161 57.8324 71.9547 54.5513C70.8949 50.4702 70.0231 41.1905 70.0231 41.1905Z" fill="#FAA284"/>
<path d="M103.251 34.0871C103.251 34.0871 104.849 12.2561 89.4955 19.3343C89.4955 19.3343 77.4884 17.9139 76.1154 33.9166L69.5011 33.6704C69.7673 24.0546 73.8237 8.64844 97.1122 8.64844C114.308 8.64844 119.174 20.6694 120.526 28.4388L119.649 29.0448C119.649 29.0448 117.608 35.8862 103.251 34.0871Z" fill="#DB7C65"/>
<path d="M107.517 45.3099C107.517 47.2037 108.822 48.6904 110.388 48.5767C111.954 48.4631 113.202 46.8155 113.181 44.898C113.16 42.9805 111.876 41.5176 110.31 41.6312C108.743 41.7448 107.496 43.3877 107.517 45.3099Z" fill="#502F26"/>
<path d="M86.0343 44.7396C86.0343 46.6334 87.3394 48.1201 88.9004 48.0064C90.4613 47.8928 91.7142 46.2452 91.6933 44.3277C91.6724 42.4102 90.3882 40.9473 88.8273 41.0609C87.2664 41.1745 86.0134 42.8221 86.0343 44.7396Z" fill="#502F26"/>
<path d="M99.8999 56.1935C104.656 57.9358 107.209 55.9047 107.407 53.8689C107.471 53.2262 107.298 52.5825 106.915 52.0385C106.533 51.4945 105.962 51.0809 105.293 50.8625C102.401 49.8351 100.359 45.7965 100.338 45.7539C100.338 46.7008 101.383 50.1712 105.037 52.1124C105.83 52.529 106.326 52.9741 106.264 53.6274C106.159 54.7732 104.337 56.4681 99.9051 56.1935H99.8999Z" fill="#DB7C65"/>
<path d="M117.18 37.5666L117.383 35.4929C117.075 35.4597 112.163 33.5233 106.42 34.2288L106.368 37.4767C111.077 36.454 117.101 37.5571 117.18 37.5666Z" fill="#7A2C21"/>
<path d="M82.1293 37.8198C86.1178 36.2764 93.2333 36.9866 93.3012 36.9771L93.0558 33.9565C92.7739 33.9991 86.3214 33.3126 81.7848 35.9544L82.1293 37.8198Z" fill="#7A2C21"/>
<path d="M91.6359 59.1797C91.6359 59.1797 100.584 60.8368 108.9 59.1797C108.9 59.1797 107.428 66.1158 100.271 66.1016C93.5152 66.1016 91.7142 60.529 91.6359 59.1797Z" fill="#B22828"/>
<path d="M100.458 62.4971C105.961 62.4971 107.574 60.4281 108.289 59.3013C101.837 60.4565 96.6319 59.7747 92.1057 59.2539C92.5651 60.518 95.2745 62.4971 100.458 62.4971Z" fill="white"/>
<path d="M69.7882 40.9305C69.7882 40.9305 72.5394 41.4749 73.4947 48.5057C74.4501 55.5365 72.5185 56.1094 71.9286 56.3508C71.9286 56.3508 64.9123 58.131 62.4795 47.6014C60.4696 38.852 69.7882 40.9305 69.7882 40.9305Z" fill="#FAA284"/>
<path d="M71.7302 51.5052C71.7302 51.5052 66.6194 49.1853 70.6078 46.8559C70.6078 46.8559 69.2662 41.5485 65.8468 42.7463C62.4274 43.9442 65.1681 48.9012 65.8468 49.9523C67.272 52.1018 71.7302 54.7436 71.7302 51.5052Z" fill="#DB7C65"/>
<path d="M120.949 35.7172C120.949 35.7172 119.143 33.2315 119.654 29.0462C119.654 29.0462 118.553 33.2315 106.473 32.8338C106.473 32.8338 106.086 6.83183 89.4955 19.3168C89.4955 19.3168 76.1363 12.215 76.1363 33.5204C76.1363 35.1774 74.5702 42.6154 73.8602 44.1399L70.4982 41.5691C69.8598 41.142 69.1161 40.8624 68.3317 40.7547C67.1519 35.3195 65.5231 27.498 64.4895 21.2106C62.2081 7.32422 83.2049 7.24373 83.2049 7.24373C84.4265 3.20518 88.8169 -2.40524 97.0183 1.10778C101.195 2.90217 107.741 1.67593 111.343 1.193C118.694 0.208223 123.22 8.17643 127.135 13.5028C131.051 18.8291 122.567 27.7064 122.567 27.7064C122.698 33.3878 120.845 44.0357 120.845 44.0357C120.97 40.9678 120.954 38.1034 120.949 35.7172Z" fill="#893626"/>
<path d="M70.1328 10.2578C74.0273 14.6041 77.6085 17.5064 80.887 19.2534C79.3939 20.2287 78.0418 21.9568 77.17 24.897C72.7952 24.8117 68.6606 24.4993 64.9906 24.0921C64.8131 23.0836 64.6408 22.1083 64.4686 21.1709C63.5759 15.622 66.4106 12.27 70.1328 10.2578Z" fill="#9B4135"/>
<path d="M99.9052 16.4475C104.196 12.0917 107.083 5.88001 108.712 1.56212L111.322 1.19282C116.793 0.458971 120.719 4.6869 123.956 9.09475C118.777 15.2496 111.834 19.1556 104.249 21.556C103.304 19.2929 101.91 17.3376 99.9052 16.4475Z" fill="#9B4135"/>
<path d="M120.844 44.0325C120.97 40.9645 120.954 38.1001 120.949 35.7139C120.949 35.7139 119.143 33.2283 119.654 29.043L122.567 27.7031C122.698 33.3893 120.844 44.0325 120.844 44.0325Z" fill="#7A2C21"/>
<path d="M76.1154 33.9032C75.9327 36.1142 74.518 42.7047 73.8602 44.125L70.4982 41.5542C69.8598 41.1271 69.1161 40.8476 68.3317 40.7398C67.5904 37.3262 66.729 33.2214 65.8624 28.7852C68.9993 30.9177 72.4506 32.6405 76.1154 33.9032Z" fill="#7A2C21"/>
<path d="M83.2048 7.23047C86.6358 10.5706 88.8345 14.797 89.4955 19.3225C89.4955 19.3225 84.3429 10.4642 83.2048 7.23047Z" fill="#7A2C21"/>
<path d="M43.3151 95.1059C44.9614 93.3128 47.3256 92.1862 49.8877 91.974C52.4499 91.7618 55 92.4813 56.9771 93.9743C58.9543 95.4673 60.1965 97.6115 60.4305 99.9351C60.6645 102.259 59.8711 104.571 58.2248 106.365C57.7028 106.947 15.0097 145.41 15.0097 145.41C13.6162 146.926 11.6155 147.879 9.44796 148.057C7.28039 148.235 5.12343 147.626 3.45157 146.362C1.77972 145.098 0.729931 143.284 0.533146 141.318C0.336361 139.352 1.0087 137.396 2.40226 135.88L43.3151 95.1059Z" fill="#FAA284"/>
<path d="M3.12794 145.914C1.62204 144.526 0.775897 142.658 0.771017 140.711C0.766138 138.763 1.60291 136.892 3.10184 135.498C4.6188 134.091 6.67987 133.275 8.8488 133.222C11.0177 133.168 13.1243 133.883 14.7226 135.214C14.7226 135.214 26.8811 142.865 57.1808 173.005L49.8721 179.794C49.8721 179.794 17.0249 160.453 3.56646 146.283C3.45683 146.169 3.12794 145.914 3.12794 145.914Z" fill="#FAA284"/>
<path d="M14.4563 119.616L41.0494 93.1645C43.2066 90.8321 46.297 89.3723 49.6409 89.1064C52.9847 88.8405 56.3081 89.7901 58.88 91.7465C61.4518 93.7028 63.0613 96.5056 63.3545 99.5382C63.6478 102.571 62.6006 105.585 60.4435 107.917C60.052 108.348 46.5257 120.54 31.5012 134.061C27.0899 130.908 19.8595 125.402 14.4563 119.616Z" fill="#E8EBEF"/>
<path d="M47.053 172.618C48.8123 168.409 51.2815 169.138 51.2815 169.138L54.8576 169.389C58.0212 168.049 59.7544 165.829 61.3675 165.412C64.2962 164.664 65.3246 162.131 65.9354 162.358C66.2156 162.443 66.4704 162.585 66.6801 162.773C66.8899 162.962 67.0489 163.192 67.1449 163.445C67.2408 163.698 67.2711 163.968 67.2334 164.234C67.1956 164.499 67.0909 164.753 66.9273 164.976C66.0503 166.397 64.0508 167.713 64.0508 167.713C65.3194 167.329 70.6182 166.018 72.4923 165.852C74.1055 165.705 78.6786 168.328 79.2268 168.627C79.9106 168.996 80.8764 169.63 80.5371 170.222C79.9628 171.221 78.6473 171.169 77.6554 170.88C76.5539 170.554 74.0846 168.863 73.171 169.057C72.649 169.171 69.3914 169.962 69.1356 170.052C69.1356 170.052 73.0666 171.543 74.7528 172.135C76.7053 172.817 80.7877 174.455 80.7877 174.455C83.9774 176.387 79.9211 177.442 79.9211 177.442C80.1612 177.632 80.9652 178.309 80.6781 178.863C80.156 179.904 78.4855 179.866 78.0678 179.838C76.8097 179.772 72.8369 178.493 72.7273 178.493H66.943C68.6449 179.757 69.642 180.458 71.7615 181.864C72.1217 182.101 74.403 183.46 74.5597 183.787C74.604 183.869 74.6291 183.958 74.6332 184.049C74.6374 184.141 74.6205 184.232 74.5836 184.317C74.5468 184.402 74.4908 184.479 74.4193 184.544C74.3477 184.608 74.2622 184.658 74.1681 184.691C73.2891 185.013 72.3064 185.013 71.4274 184.691C70.3496 184.267 69.3033 183.78 68.2951 183.233C64.6042 181.149 62.5212 180.472 59.0235 182.65C53.991 185.785 48.7601 178.986 48.7601 178.986C48.7601 178.986 45.3093 176.827 47.053 172.618Z" fill="#FAA284"/>
<path d="M64.0665 167.711L61.3989 168.516C61.3989 168.516 61.117 167.952 64.0665 167.711Z" fill="#EF8D72"/>
<path d="M79.9421 177.44C79.9421 177.44 74.5754 175.579 73.3486 175.248C72.1218 174.916 66.0399 174.85 66.562 173.657C66.5515 173.657 68.457 172.256 79.9421 177.44Z" fill="#EF8D72"/>
<path d="M69.1513 170.051C69.1513 170.051 66.1182 169.577 66.8595 169.312C67.6008 169.047 68.5614 169.824 69.1513 170.051Z" fill="#EF8D72"/>
</svg>
