<svg width="146" height="180" viewBox="0 0 146 180" fill="none" xmlns="http://www.w3.org/2000/svg">
<path fill-rule="evenodd" clip-rule="evenodd" d="M29.5769 44.7959C29.5769 44.7959 15.5456 42.7598 11.8372 57.5933C-1.75979 62.5369 1.9486 77.3691 1.9486 77.3691C1.9486 77.3691 -4.8811 89.0216 8.68532 94.9919C9.77047 106.929 23.3369 104.76 23.3369 104.76C23.3369 104.76 26.5924 113.984 36.9033 110.185C48.0285 118.837 68.993 117.101 76.4364 106.524C91.1968 117.542 116.881 104.093 113.658 94.0343C130.897 92.9903 139.254 74.7074 129.155 59.1765C136.913 46.8918 128.068 39.6411 128.068 39.6411C128.068 39.6411 130.509 11.4231 110.974 7.62443C100.937 -7.57038 79.2296 4.63993 79.2296 4.63993C79.2296 4.63993 64.8503 1.65543 59.6942 14.1367C43.6254 16.6072 44.3798 25.4411 43.1433 32.8579C28.764 33.6721 29.5769 44.7959 29.5769 44.7959Z" fill="#253368"/>
<path fill-rule="evenodd" clip-rule="evenodd" d="M34.6923 178.897L33.7241 178.547C26.5849 175.979 22.8805 168.109 25.4506 160.971L49.9084 93.0234C52.4772 85.8842 60.3455 82.1811 67.4847 84.7499L68.4543 85.0992C75.5921 87.668 79.2952 95.5377 76.7251 102.676L52.2686 170.623C49.6999 177.762 41.8302 181.467 34.6923 178.897Z" fill="#FFC999"/>
<path fill-rule="evenodd" clip-rule="evenodd" d="M66.4128 131.153L76.9973 101.747C79.5488 94.658 75.6027 86.686 68.2271 84.0309C60.8515 81.3758 52.7295 85.0045 50.1779 92.0932L39.6943 121.221L66.4128 131.153Z" fill="#CEA234"/>
<path d="M77.0047 101.749C77.0804 101.539 77.3121 101.43 77.5223 101.506C77.7091 101.573 77.816 101.763 77.7843 101.953L77.7658 102.023L67.1799 131.43C67.1122 131.618 66.9195 131.725 66.7294 131.691L66.6585 131.672L39.9414 121.74C39.732 121.662 39.6254 121.429 39.7032 121.22C39.7724 121.033 39.964 120.929 40.1528 120.962L40.2232 120.981L66.5569 130.771L77.0047 101.749Z" fill="#684E00"/>
<path fill-rule="evenodd" clip-rule="evenodd" d="M74.1645 31.0177C85.4304 32.9954 88.8572 24.4696 88.8572 24.4696C88.8572 24.4696 93.5047 12.4625 94.6961 19.8341C95.3283 23.751 101.385 18.5523 104.17 22.7296C106.043 25.5401 101.36 29.1621 107.448 36.6559C110.975 40.9965 97.059 44.4605 105.645 52.4631C105.645 52.4631 99.5401 62.2308 110.025 65.4158L111.137 76.869C111.782 83.5354 106.538 89.3038 99.8416 89.2932C93.4555 89.2839 88.3406 84.0016 88.5345 77.6195L88.9595 63.6546C72.6795 63.6546 71.8839 41.2808 74.1645 31.0177Z" fill="#FFC999"/>
<path d="M93.9289 45.9452C94.2017 45.6724 94.6441 45.6724 94.9169 45.9452C95.1898 46.2181 95.1898 46.6604 94.9169 46.9333C94.5518 47.2984 93.8899 47.8212 92.959 48.339C91.1234 49.36 89.0179 49.891 86.6996 49.6662C86.3156 49.629 86.0344 49.2875 86.0717 48.9034C86.1089 48.5194 86.4504 48.2382 86.8345 48.2755C88.8479 48.4707 90.6771 48.0093 92.2798 47.1179C92.7526 46.8549 93.1685 46.5737 93.5227 46.2939L93.7802 46.0814C93.8481 46.0225 93.8979 45.9763 93.9289 45.9452Z" fill="#F5222D"/>
<path d="M85.5645 32.2531L85.565 32.1597C85.5853 31.9364 85.7472 31.7497 85.9654 31.698L86.0497 31.6851C86.3095 31.6666 86.5385 31.8408 86.5967 32.0863L86.6108 32.1929L86.6118 32.2154C86.6296 32.7118 86.5405 33.4684 86.2557 34.4528C85.8748 35.7693 85.2153 37.2095 84.2208 38.7523L84.0481 39.0151L84.3245 39.1859C85.2796 39.773 86.1199 40.265 86.8478 40.6695L87.4931 41.0209C87.6698 41.1149 87.8283 41.1971 87.9687 41.268L88.2377 41.4001C88.5005 41.5214 88.6151 41.8327 88.4938 42.0955C88.3725 42.3582 88.0612 42.4729 87.7984 42.3516L87.5799 42.2454L87.179 42.0401C87.0084 41.9508 86.8196 41.8498 86.6126 41.7365L86.0566 41.4276C85.1911 40.9393 84.1832 40.3388 83.0298 39.6155C82.7761 39.4564 82.7071 39.1172 82.8786 38.8716C84.0814 37.1489 84.8418 35.5693 85.249 34.1616C85.5023 33.2859 85.5784 32.6403 85.5645 32.2531Z" fill="#DD936F"/>
<path d="M101.269 31.5578C101.654 31.5578 101.965 31.8691 101.965 32.2532C101.965 34.9251 99.9526 37.1138 97.4402 37.1138C94.9281 37.1138 92.917 34.9253 92.917 32.2532C92.917 31.8691 93.2283 31.5578 93.6123 31.5578C93.9963 31.5578 94.3076 31.8691 94.3076 32.2532C94.3076 34.1823 95.7236 35.7231 97.4402 35.7231C99.1572 35.7231 100.574 34.1819 100.574 32.2532C100.574 31.8691 100.885 31.5578 101.269 31.5578Z" fill="#253368"/>
<path d="M82.9591 32.036C83.3233 32.036 83.6185 32.3312 83.6185 32.6955C83.6185 35.3353 81.8119 37.5202 79.515 37.5202C77.217 37.5202 75.4102 35.3356 75.4102 32.6955C75.4102 32.3312 75.7054 32.036 76.0696 32.036C76.4338 32.036 76.7291 32.3312 76.7291 32.6955C76.7291 34.6566 78.0067 36.2013 79.515 36.2013C81.0222 36.2013 82.2996 34.6564 82.2996 32.6955C82.2996 32.3312 82.5949 32.036 82.9591 32.036Z" fill="#253368"/>
<path d="M93.3462 23.9139C96.0044 23.0601 98.8164 22.948 101.472 24.0696C101.959 24.2751 102.433 24.5207 102.892 24.8078C103.218 25.0112 103.317 25.4402 103.114 25.7659C102.91 26.0916 102.481 26.1907 102.156 25.9873C101.759 25.7393 101.35 25.5277 100.931 25.3507C98.6275 24.3778 96.1407 24.4769 93.7715 25.2379C93.3729 25.3659 93.0136 25.5027 92.7004 25.6388L92.4355 25.759C92.3915 25.78 92.3577 25.797 92.3344 25.8093C91.9948 25.9885 91.5742 25.8585 91.395 25.5188C91.2157 25.1792 91.3458 24.7586 91.6854 24.5794L91.9103 24.4675C92.2481 24.3079 92.7353 24.1101 93.3462 23.9139Z" fill="#253368"/>
<path d="M98.6821 60.6692C98.9363 60.5309 99.2545 60.6248 99.3928 60.879C99.5312 61.1332 99.4372 61.4514 99.183 61.5897C95.878 63.3879 92.4376 64.2949 88.9796 64.343C88.6902 64.347 88.4524 64.1157 88.4483 63.8264C88.4443 63.537 88.6756 63.2992 88.965 63.2952C92.2524 63.2494 95.526 62.3864 98.6821 60.6692Z" fill="#DD936F"/>
<path fill-rule="evenodd" clip-rule="evenodd" d="M62.2347 101.336C59.4388 107.429 54.2601 117.915 53.6159 124.843C52.5706 136.074 59.8838 144.433 59.8838 144.433C59.8838 144.433 59.9568 141.128 60.6674 170.229C94.1651 176.105 115.521 169.857 115.521 169.857L114.869 162.143L120.31 143.909C120.31 143.909 123.614 137.118 130.404 121.97C135.126 111.438 134.798 98.3808 134.158 91.401C133.885 88.4098 136.084 86.3657 133.192 85.5528C123.091 82.7131 114.984 82.1539 114.984 82.1539L114.031 75.4903C113.869 74.3493 112.892 73.5006 111.739 73.5006H87.1149C86.059 73.5006 85.1345 74.2178 84.8715 75.2419L83.0678 82.2788L63.7994 83.4064C61.4073 83.8753 63.632 87.7138 63.3823 90.1392L62.2347 101.336Z" fill="#CEA234"/>
<path d="M108.087 82.0793C108.32 82.0793 108.509 82.2683 108.509 82.5016C108.509 82.709 108.36 82.8814 108.163 82.9172L108.087 82.924H85.9165C85.6832 82.924 85.4941 82.7349 85.4941 82.5016C85.4941 82.2943 85.6436 82.1218 85.8406 82.0861L85.9165 82.0793H108.087Z" fill="#684E00"/>
<path d="M114.827 80.3782C115.013 80.1437 115.354 80.1044 115.588 80.2903C115.799 80.4577 115.852 80.7506 115.725 80.9784L115.676 81.0517L91.6473 111.35C91.3972 111.665 90.9136 111.603 90.7403 111.26L90.7081 111.183L81.3097 82.7004C81.2159 82.4162 81.3703 82.1098 81.6545 82.016C81.9103 81.9316 82.1841 82.0482 82.3046 82.2795L82.3389 82.3608L91.4216 109.888L114.827 80.3782Z" fill="#CCD7EE"/>
<path fill-rule="evenodd" clip-rule="evenodd" d="M84.5124 113.304C82.0538 117.451 83.1615 122.651 86.9868 124.919C90.8121 127.188 95.9071 125.665 98.3656 121.518C100.824 117.373 99.7165 112.171 95.8912 109.903C92.0659 107.634 86.9722 109.157 84.5124 113.304Z" fill="#CCD7EE"/>
<path fill-rule="evenodd" clip-rule="evenodd" d="M83.6286 113.284C81.17 117.43 82.2778 122.63 86.103 124.899C89.9283 127.167 95.0233 125.645 97.4832 121.499C99.9404 117.352 98.8327 112.151 95.0074 109.882C91.1821 107.615 86.0884 109.137 83.6286 113.284Z" fill="#E4EBF7"/>
<path fill-rule="evenodd" clip-rule="evenodd" d="M85.1906 114.007C83.282 117.226 84.1413 121.264 87.1112 123.025C90.0824 124.786 94.0379 123.604 95.9465 120.385C97.8552 117.164 96.9958 113.127 94.0246 111.366C91.0547 109.605 87.0993 110.787 85.1906 114.007Z" fill="#FAAD14"/>
<path d="M62.5111 95.1675C62.7183 95.1753 62.885 95.3311 62.9133 95.5294L62.9173 95.6055L62.657 102.527L62.605 102.714L58.8126 109.577C58.7088 109.768 58.6211 109.93 58.5533 110.057L58.1014 110.913C57.0895 112.855 56.3689 114.416 55.7992 115.931C54.5804 119.173 54.0371 122.315 54.0371 126.41C54.0371 128.046 54.3104 129.911 54.8235 131.962C55.3541 134.084 56.125 136.342 57.0733 138.663C57.7402 140.295 58.455 141.862 59.1697 143.306L59.4608 143.887C59.6016 144.165 59.735 144.423 59.8599 144.66L60.1194 145.144L60.1719 145.333L60.7086 160.204C60.8463 164.155 60.9429 167.095 60.9876 168.751L61.0114 169.772L61.6899 169.895C77.6552 172.741 93.1631 172.792 106.931 171.13L107.808 171.021C109.857 170.762 111.678 170.484 113.25 170.206L114.162 170.039L114.803 169.914L114.057 162.319L114.077 162.144L122.862 135.953C122.936 135.731 123.176 135.612 123.397 135.687C123.593 135.752 123.709 135.949 123.681 136.147L123.663 136.221L114.906 162.327L115.682 170.209C115.7 170.395 115.594 170.567 115.427 170.639L115.352 170.662L114.848 170.767L114.32 170.869C114.132 170.905 113.933 170.942 113.722 170.98L113.397 171.038C111.812 171.318 109.977 171.598 107.914 171.859C93.5571 173.678 77.275 173.65 60.5162 170.54C60.316 170.503 60.1708 170.329 60.1708 170.125L60.158 169.355C60.1372 168.471 60.0918 166.975 60.0252 164.956L59.7027 155.661L59.3308 145.463L59.1125 145.054L58.8478 144.544C58.7101 144.276 58.5646 143.988 58.4126 143.681C57.6894 142.219 56.9664 140.635 56.2913 138.983C55.3289 136.627 54.5454 134.332 54.004 132.167C53.4754 130.054 53.1924 128.122 53.1924 126.41C53.1924 122.216 53.753 118.973 55.0085 115.634C55.6329 113.973 56.4303 112.267 57.5746 110.099L58.0584 109.195C58.6569 108.095 59.7978 106.033 60.6758 104.45L61.8163 102.393L62.0731 95.5737C62.0809 95.3665 62.2367 95.1998 62.435 95.1715L62.5111 95.1675Z" fill="#684E00"/>
<path fill-rule="evenodd" clip-rule="evenodd" d="M33.3576 161.675C33.1796 166.048 36.4019 169.783 40.6734 170.156L123.116 177.36C130.715 177.767 137.183 171.758 137.499 163.998C137.818 156.17 131.756 149.623 124.082 149.506L40.9749 153.829C36.8322 154.045 33.5303 157.446 33.3576 161.675Z" fill="#FFC999"/>
<path fill-rule="evenodd" clip-rule="evenodd" d="M120.803 177.098L121.385 177.182C128.755 178.242 135.468 173.423 136.378 166.418L144.984 100.174C145.894 93.1694 140.657 86.632 133.287 85.5707L132.705 85.487C125.335 84.4271 118.622 89.2446 117.714 96.2509L109.105 162.494C108.197 169.499 113.433 176.038 120.803 177.098Z" fill="#FFC999"/>
<path fill-rule="evenodd" clip-rule="evenodd" d="M112.998 131.177L116.774 97.9335C117.471 90.0997 124.554 84.3738 132.512 85.2079C140.471 86.042 146.412 93.1334 145.715 100.967L142.85 133.154L112.998 131.177Z" fill="#CEA234"/>
<path d="M116.324 97.4733L116.399 97.4742C116.602 97.495 116.757 97.6591 116.772 97.8562L116.771 97.9315L113.457 130.421L142.463 132.694C142.667 132.71 142.826 132.87 142.846 133.067L142.846 133.142C142.83 133.346 142.67 133.504 142.473 133.524L142.398 133.525L112.966 131.219C112.759 131.203 112.599 131.038 112.583 130.838L112.584 130.761L115.942 97.8468C115.962 97.6431 116.126 97.4887 116.324 97.4733Z" fill="#684E00"/>
<path fill-rule="evenodd" clip-rule="evenodd" d="M119.032 161.974C119.32 166.491 116.504 170.402 112.641 170.851L39.129 179.756C32.2462 180.29 25.1203 173.939 24.6089 165.921C24.0923 157.832 29.4051 150.972 36.365 150.737L111.894 153.974C115.658 154.134 118.753 157.604 119.032 161.974Z" fill="#FFC999"/>
<path fill-rule="evenodd" clip-rule="evenodd" d="M137.419 159.485C139.979 162.723 135.111 165.101 135.111 165.101C135.111 165.101 136.914 167.614 132.822 168.352C129.188 169.008 106.654 171.658 106.654 171.658L106.219 154.609L114.808 153.448C114.808 153.448 119.686 148.858 122.205 147.062C124.722 145.268 131.249 145.831 134.629 144.181C138.01 142.53 136.34 149.138 128.298 150.213C140.968 150.319 142.613 146.951 142.916 150.262C143.18 153.164 139.966 153.306 139.966 153.306C139.966 153.306 143.57 156.426 137.419 159.485Z" fill="#FFC999"/>
<path d="M134.203 144.036C135.206 143.546 136.054 143.626 136.4 144.35C136.685 144.945 136.487 145.812 135.924 146.703C135.153 147.921 133.865 149.007 132.189 149.796L131.859 149.943L132.113 149.931C133.9 149.83 135.519 149.65 137.058 149.4L137.517 149.323C137.706 149.29 141.084 148.605 141.619 148.608C142.634 148.615 143.043 149.178 143.163 150.495C143.302 152.018 142.618 153.05 141.432 153.619C141.224 153.718 141.018 153.798 140.819 153.86L140.64 153.911L140.661 153.941C141.934 155.843 141.396 157.99 138.004 159.868L137.889 159.93L137.916 159.971C138.925 161.633 138.381 163.222 136.876 164.576L136.722 164.711C136.457 164.937 136.178 165.144 135.896 165.331L135.613 165.51L135.515 165.569L135.532 165.609C135.709 166.038 135.803 166.479 135.767 166.914L135.744 167.1C135.563 168.167 134.623 168.867 132.877 169.072L130.604 169.311C127.327 169.671 120.459 170.449 110.617 171.576L67.7491 176.51L37.5959 179.997C37.3383 180.027 37.1053 179.842 37.0754 179.584C37.0456 179.327 37.2302 179.094 37.4878 179.064L121.055 169.44C127.47 168.711 131.399 168.273 132.435 168.173L132.561 168.161C134.072 168.026 134.711 167.577 134.818 166.944C134.868 166.649 134.805 166.308 134.664 165.966C134.599 165.807 134.534 165.689 134.497 165.631C134.345 165.394 134.434 165.078 134.686 164.955L134.818 164.886C134.9 164.842 135.004 164.782 135.124 164.708C135.462 164.503 135.8 164.264 136.113 163.996C137.552 162.768 137.955 161.475 136.83 160.053C136.645 159.819 136.722 159.474 136.989 159.341L137.329 159.166C140.446 157.515 140.869 155.94 139.881 154.463C139.71 154.208 139.541 154.027 139.439 153.939C139.119 153.661 139.302 153.133 139.726 153.115L139.843 153.105C139.917 153.096 140.012 153.083 140.123 153.062C140.433 153.003 140.742 152.908 141.026 152.772C141.879 152.363 142.329 151.685 142.228 150.581C142.146 149.688 142.047 149.55 141.613 149.547C141.192 149.545 137.996 150.193 137.677 150.248C134.88 150.732 131.851 150.991 128.073 150.96C127.49 150.955 127.437 150.102 128.015 150.025C131.418 149.57 133.974 148.028 135.13 146.201C135.539 145.555 135.667 144.993 135.553 144.755C135.491 144.626 135.251 144.594 134.746 144.818L134.615 144.879C133.396 145.475 131.987 145.789 129.472 146.118L127.509 146.363C124.492 146.748 123.188 147.058 122.257 147.722L121.897 147.985C121.205 148.504 120.335 149.218 119.327 150.086L118.812 150.533C118.148 151.113 117.464 151.724 116.782 152.343L115.87 153.177L114.911 154.068C114.838 154.136 114.746 154.179 114.647 154.192L114.573 154.195L48.0292 151.905C47.7701 151.896 47.5672 151.679 47.5761 151.42C47.5841 151.189 47.7567 151.004 47.9769 150.971L48.0615 150.967L114.41 153.249L115.467 152.272C116.148 151.646 116.84 151.021 117.52 150.419L118.456 149.598L119.259 148.909C120.233 148.083 121.062 147.421 121.712 146.958C122.856 146.141 124.278 145.818 127.706 145.392L128.675 145.273C131.406 144.936 132.884 144.645 134.058 144.104L134.203 144.036Z" fill="#DD936F"/>
<path fill-rule="evenodd" clip-rule="evenodd" d="M62.4568 151.658C62.4568 151.658 50.6874 135.582 46.3136 135.212C41.9398 134.843 34.195 136.162 32.9079 138.459C29.8783 143.878 29.6963 151.288 29.6963 151.288L44.4422 151.046L62.4568 151.658Z" fill="#FFC999"/>
<path d="M32.4737 138.215C31.8496 139.332 31.3171 140.575 30.8686 141.923C30.1873 143.971 29.7289 146.16 29.4505 148.348C29.3726 148.96 29.3135 149.537 29.2705 150.071L29.2413 150.463C29.2149 150.848 29.2024 151.125 29.1984 151.276C29.1917 151.559 29.4217 151.791 29.7048 151.786L44.4506 151.544L62.4402 152.156C62.8555 152.17 63.1045 151.7 62.859 151.364L62.3296 150.653L61.4115 149.443C61.2472 149.229 61.0774 149.008 60.9025 148.783C59.4032 146.848 57.8372 144.914 56.2813 143.107C55.4783 142.175 54.6973 141.299 53.9444 140.491L53.3975 139.91C50.3388 136.7 47.9649 134.852 46.3558 134.716C41.2125 134.282 33.7788 135.886 32.4737 138.215ZM46.272 135.709C47.6183 135.822 50.0847 137.809 53.2155 141.17C53.9591 141.968 54.7315 142.834 55.5265 143.757C57.07 145.55 58.6256 147.471 60.1151 149.393L60.8618 150.364L61.438 151.125L44.4594 150.548L30.2187 150.78L30.2351 150.531C30.2776 149.911 30.3438 149.219 30.4387 148.473C30.7095 146.345 31.155 144.218 31.8138 142.237C32.2436 140.946 32.7516 139.76 33.3427 138.702C34.3868 136.839 41.4931 135.305 46.272 135.709Z" fill="#DD936F"/>
<path d="M39.7165 139.367C40.8723 139.316 41.9393 139.32 42.8996 139.387C43.1159 139.402 43.2789 139.59 43.2638 139.806C43.2487 140.022 43.0611 140.185 42.8449 140.17C41.9169 140.105 40.8791 140.101 39.7512 140.151C38.1816 140.22 36.5007 140.391 34.7954 140.632C34.1567 140.722 33.5483 140.817 32.9817 140.914L31.8741 141.113C31.8076 141.126 31.7517 141.137 31.7071 141.146C31.4946 141.189 31.2874 141.052 31.2443 140.84C31.2011 140.627 31.3383 140.42 31.5507 140.377L32.2572 140.244L32.4278 140.213C33.1177 140.091 33.8777 139.969 34.6856 139.854C36.414 139.61 38.1191 139.437 39.7165 139.367Z" fill="#DD936F"/>
<path d="M37.2281 143.221L37.9636 143.199C39.7514 143.157 41.1513 143.208 42.0526 143.375C42.2658 143.414 42.4066 143.619 42.3671 143.832C42.3276 144.045 42.1228 144.186 41.9096 144.147C40.9614 143.971 39.3416 143.932 37.2555 144.005C36.4459 144.034 35.5929 144.078 34.7189 144.134L34.0598 144.179C33.5757 144.213 33.1095 144.249 32.6697 144.286L31.5267 144.388C31.311 144.409 31.1189 144.251 31.0976 144.036C31.0764 143.82 31.234 143.628 31.4497 143.607L32.1709 143.541L33.0561 143.467C33.3625 143.443 33.6794 143.419 34.0043 143.396C35.1169 143.317 36.2058 143.256 37.2281 143.221Z" fill="#DD936F"/>
<path d="M30.1304 147.264L41.9662 147.313C42.183 147.314 42.358 147.49 42.3571 147.707C42.3563 147.9 42.2167 148.059 42.0335 148.092L41.9629 148.098L30.1272 148.049C29.9104 148.048 29.7354 147.871 29.7363 147.655C29.7371 147.462 29.8766 147.302 30.0599 147.27L30.1304 147.264Z" fill="#DD936F"/>
</svg>
