<svg width="99" height="192" viewBox="0 0 99 192" fill="none" xmlns="http://www.w3.org/2000/svg">
<path d="M20.9974 34.7643C20.9974 34.7643 24.2615 56.8561 20.9974 64.9443C17.7332 73.0326 -6.45959 113.499 49.031 119.771C104.522 126.044 101.257 95.3256 96.3612 84.7877C91.4649 74.2498 83.9628 56.4386 86.2804 38.8587C86.2804 38.8587 80.2961 23.306 48.4598 23.2657C16.6234 23.2255 20.9974 34.7643 20.9974 34.7643Z" fill="#7A2C21"/>
<path d="M33.1835 24.4609C18.2228 27.4236 20.9974 34.7624 20.9974 34.7624C20.9974 34.7624 24.2615 56.8542 20.9974 64.9424C19.9093 67.6435 16.4765 73.9964 14.4691 81.4509C16.8573 77.7337 20.0562 72.8647 22.7437 69.1676C26.2581 64.2583 33.8092 49.7216 33.1835 24.4609Z" fill="#893626"/>
<path d="M96.3394 84.7825C91.4432 74.2447 83.9629 56.4385 86.2858 38.8586C86.2858 38.8586 83.4678 31.2583 70.2915 26.5703C72.3316 39.085 76.5369 60.709 82.8041 72.7105C87.9451 82.5543 96.6495 95.8485 96.5081 106.552C100.49 98.7358 98.5863 89.6264 96.3394 84.7825Z" fill="#893626"/>
<path d="M14.0828 101.028C14.3046 99.9143 14.7615 98.8522 15.4272 97.9021C16.093 96.952 16.9546 96.1324 17.9629 95.4902C18.9713 94.848 20.1065 94.3957 21.3039 94.1591C22.5013 93.9225 23.7374 93.9063 24.9415 94.1114C26.1457 94.3165 27.2944 94.7389 28.322 95.3544C29.3496 95.97 30.236 96.7667 30.9306 97.699C31.6252 98.6312 32.1144 99.6809 32.3703 100.788C32.6262 101.895 32.6437 103.038 32.4219 104.151C32.275 104.886 16.4874 156.292 16.4874 156.292C16.1086 158.194 14.9284 159.879 13.2062 160.976C11.484 162.073 9.36101 162.492 7.30424 162.142C5.24746 161.792 3.42538 160.701 2.23884 159.108C1.05229 157.516 0.598478 155.553 0.977225 153.652L14.0828 101.028Z" fill="#F4987F"/>
<path d="M7.04852 123.463L12.4072 100.738C13.0531 98.2514 14.6988 96.0858 17.0098 94.6812C19.3208 93.2765 22.1235 92.7382 24.8484 93.1757C27.5732 93.6132 30.0156 94.9937 31.6791 97.0365C33.3425 99.0793 34.1022 101.631 33.8037 104.173C33.7275 104.561 30.5395 115.496 27.0088 127.593C22.2051 127.1 14.4037 125.973 7.04852 123.463Z" fill="#E8EBEF"/>
<path d="M89.8002 209.586C89.7764 208.812 89.7074 208.039 89.5935 207.272C89.5173 206.709 89.4194 206.15 89.2888 205.597C85.3609 185.638 74.0235 168.305 74.0235 168.305L26.1492 168.556C26.1492 168.556 13.381 182.137 11.3518 205.401C11.1994 206.301 11.3518 210.285 11.3518 210.285C11.4546 214.473 13.2117 218.482 16.2914 221.555C19.3712 224.627 23.5608 226.552 28.0697 226.965L71.238 227C76.1624 226.867 80.8413 224.982 84.2994 221.738C87.7575 218.493 89.728 214.14 89.8002 209.586Z" fill="#492932"/>
<path d="M51.0058 226.297C50.8996 226.297 50.7956 226.269 50.7067 226.215C50.6177 226.161 50.5477 226.085 50.5053 225.995C50.5053 225.945 48.0952 220.824 45.2173 209.954C42.3394 199.084 45.0868 174.654 45.2173 173.617C45.2337 173.486 45.3058 173.365 45.4179 173.282C45.53 173.199 45.673 173.161 45.8158 173.175C45.8869 173.182 45.9558 173.201 46.0186 173.233C46.0814 173.265 46.1369 173.307 46.1819 173.359C46.2268 173.41 46.2604 173.469 46.2807 173.532C46.3009 173.596 46.3075 173.662 46.2999 173.728C46.2999 173.98 43.4438 198.974 46.2999 209.718C49.1561 220.462 51.5063 225.542 51.528 225.592C51.5568 225.653 51.5724 225.719 51.5737 225.785C51.5751 225.851 51.5623 225.917 51.536 225.979C51.5097 226.041 51.4705 226.097 51.4205 226.144C51.3706 226.192 51.311 226.23 51.2451 226.256C51.1702 226.288 51.0879 226.302 51.0058 226.297Z" fill="#603B46"/>
<path d="M46.1096 217.11H46.0225C40.5823 216.351 38.6292 210.33 38.553 210.068C34.9788 199.897 38.5204 174.114 38.6727 173.022C38.6817 172.956 38.7046 172.892 38.7402 172.834C38.7758 172.777 38.8233 172.726 38.8802 172.685C38.937 172.644 39.002 172.614 39.0714 172.596C39.1408 172.579 39.2133 172.574 39.2848 172.582C39.3562 172.59 39.4252 172.611 39.4878 172.644C39.5504 172.677 39.6053 172.721 39.6495 172.774C39.6937 172.826 39.7263 172.886 39.7454 172.951C39.7645 173.015 39.7697 173.082 39.7608 173.148C39.7227 173.415 36.0995 199.807 39.603 209.776C39.603 209.847 41.4364 215.445 46.1912 216.109C46.3354 216.119 46.4698 216.18 46.5647 216.281C46.6596 216.382 46.7072 216.514 46.6971 216.647C46.687 216.781 46.62 216.905 46.5108 216.993C46.4017 217.08 46.2593 217.125 46.115 217.115L46.1096 217.11Z" fill="#603B46"/>
<path d="M47.7579 181.353C31.9812 181.353 22.6403 176.866 22.5043 176.801C22.3766 176.738 22.2811 176.631 22.2387 176.503C22.1964 176.375 22.2107 176.237 22.2785 176.119C22.3463 176.001 22.4621 175.913 22.6003 175.874C22.7386 175.835 22.888 175.848 23.0157 175.91C23.217 176.011 43.8518 185.875 75.6283 175.88C75.764 175.839 75.912 175.848 76.0403 175.906C76.1685 175.965 76.2668 176.067 76.3138 176.192C76.3606 176.318 76.3514 176.456 76.2881 176.576C76.2249 176.696 76.1128 176.788 75.9765 176.831C66.903 179.762 57.369 181.29 47.7579 181.353Z" fill="#603B46"/>
<path d="M41.8172 178.682C43.0581 178.682 44.064 177.752 44.064 176.605C44.064 175.457 43.0581 174.527 41.8172 174.527C40.5763 174.527 39.5704 175.457 39.5704 176.605C39.5704 177.752 40.5763 178.682 41.8172 178.682Z" fill="#603B46"/>
<path d="M64.2419 180.887C64.2419 180.887 64.3561 195.232 80.345 194.85C80.345 194.85 77.5705 184.151 74.0343 178.684C74.0343 178.684 67.2395 180.761 64.2419 180.887Z" fill="#603B46"/>
<path d="M24.0765 178.623C24.0765 178.623 22.352 186.671 15.4592 188.683C15.4592 188.683 18.2283 180.705 20.5839 177.023C21.7166 177.613 22.8825 178.147 24.0765 178.623Z" fill="#603B46"/>
<path d="M79.752 198.424C74.0017 198.424 69.4156 196.915 66.0372 193.952C60.2215 188.811 60.2705 181.196 60.2759 180.874C60.2759 180.741 60.3333 180.613 60.4353 180.518C60.5373 180.424 60.6757 180.371 60.82 180.371C60.9642 180.371 61.1026 180.424 61.2046 180.518C61.3067 180.613 61.364 180.741 61.364 180.874C61.364 180.95 61.3259 188.389 66.8042 193.218C70.2969 196.301 75.2747 197.694 81.6017 197.352C81.6732 197.348 81.7448 197.358 81.8124 197.379C81.88 197.401 81.9424 197.434 81.996 197.478C82.0495 197.522 82.0932 197.576 82.1245 197.635C82.1558 197.695 82.1741 197.759 82.1784 197.825C82.1827 197.891 82.1729 197.957 82.1495 198.02C82.1261 198.083 82.0896 198.14 82.0421 198.19C81.9946 198.239 81.9371 198.28 81.8727 198.309C81.8083 198.337 81.7385 198.354 81.667 198.358C81.0305 198.404 80.3994 198.424 79.752 198.424Z" fill="#603B46"/>
<path d="M14.8009 191.821C14.6773 191.825 14.5561 191.789 14.4573 191.721C14.3584 191.652 14.2877 191.555 14.2569 191.444C14.2223 191.315 14.2448 191.178 14.3192 191.064C14.3937 190.95 14.5141 190.867 14.654 190.835C24.5172 188.491 25.9969 179.211 26.0132 179.115C26.0335 178.984 26.1088 178.866 26.2229 178.786C26.337 178.706 26.4806 178.671 26.6225 178.688C26.7653 178.705 26.8947 178.775 26.9824 178.88C27.0701 178.986 27.1089 179.119 27.0904 179.251C27.0904 179.352 25.491 189.311 14.9206 191.826C14.8806 191.829 14.8405 191.827 14.8009 191.821Z" fill="#603B46"/>
<path d="M45.5329 82.6898L45.4785 95.139L61.9515 95.1994L62.0223 79.0078C57.157 81.9727 51.3253 83.2748 45.5329 82.6898Z" fill="#FAA284"/>
<path d="M62.0223 79.0085L62.0767 66.5291L45.6036 66.4688L45.5329 82.6905C51.3254 83.2756 57.1571 81.9734 62.0223 79.0085Z" fill="#EF8D72"/>
<path d="M51.4083 93.127C57.3382 93.2578 62.1093 89.9581 63.6054 88.3082C60.412 87.7801 55.6137 86.7489 52.8337 86.7188C50.1897 86.7188 46.3054 87.5135 43.5853 87.9511C43.6778 89.1583 45.0813 92.9962 51.4083 93.127Z" fill="#FAA284"/>
<path d="M94.4407 98.8912C94.4407 92.9809 85.4262 91.7888 85.4262 91.7888C80.7313 90.9689 73.1258 89.9277 68.148 88.8161C68.148 88.8161 65.7978 88.3131 62.7513 87.8101C61.2552 89.4599 57.4307 92.2164 51.4954 92.0856C45.1738 91.9498 44.2762 88.7457 44.1674 87.5586C41.284 88.0314 39.0753 88.5193 39.0753 88.5193C30.2458 90.2396 23.1734 91.7888 23.1734 91.7888C23.1734 91.7888 14.0556 92.9809 14.0556 98.8912C14.0556 101.562 20.2411 105.46 22.9613 106.849V107.503C14.2569 113.795 12.9675 118.508 12.9675 123.88C12.9675 135.107 23.1408 137.859 23.1408 137.859L26.1384 168.542C45.1357 177.736 74.0126 168.29 74.0126 168.29C77.1571 148.477 82.0696 135.741 84.3491 123.075C85.2411 117.639 85.7155 112.151 85.769 106.652C88.7176 105.149 94.4407 101.456 94.4407 98.8912Z" fill="#E8EBEF"/>
<path d="M15.7203 128.673C15.7203 128.673 17.8964 130.358 22.5587 130.73C32.0139 131.485 47.5186 133.059 61.1845 131.027C66.9185 130.177 71.1347 127.506 75.4543 124.367C75.4543 124.367 72.8811 137.948 54.9119 137.682C36.9428 137.415 16.8519 139.447 15.7203 128.673Z" fill="#D4D5D6"/>
<path d="M77.663 43.3078C77.663 43.3078 83.4623 9.10377 52.8174 9.12892C21.4435 9.12892 24.3758 38.8663 24.4465 41.9396C25.2517 45.6769 26.2527 51.6475 25.9371 56.8033C25.1592 69.665 36.8883 78.0299 47.3119 78.0199C67.3266 78.0199 74.7035 59.7811 74.7035 59.7811C76.2984 54.3983 77.2902 48.8782 77.663 43.3078Z" fill="#FAA284"/>
<path d="M52.8167 9.12892C21.4427 9.12892 24.375 38.8663 24.4458 41.9396C24.6362 42.8048 24.832 43.7957 24.9898 44.8671C27.1955 44.2792 29.1781 43.1299 30.7114 41.5504C32.2447 39.9709 33.267 38.0247 33.6615 35.9338C35.2283 27.9663 32.6225 17.4888 42.9481 20.6124C42.9481 20.6124 51.9462 18.359 52.017 23.3387C52.0877 28.3184 49.8409 48.2372 77.3685 46.6326C77.6025 44.5854 77.6623 43.3279 77.6623 43.3279C77.6623 43.3279 83.4616 9.10377 52.8167 9.12892Z" fill="#DB7C65"/>
<g opacity="0.9">
<path opacity="0.09" d="M35.2399 50.792C36.887 51.0793 38.4048 51.8119 39.6013 52.8971C40.7979 53.9823 41.6193 55.3714 41.9616 56.8884C42.3039 58.4054 42.1518 59.9823 41.5245 61.4193C40.8971 62.8564 39.8227 64.0891 38.4374 64.9613C37.052 65.8336 35.4178 66.3062 33.7418 66.3194C32.0658 66.3326 30.4232 65.8858 29.0219 65.0354C27.6207 64.1851 26.5238 62.9695 25.87 61.5426C25.2163 60.1156 25.0352 58.5414 25.3495 57.0192C25.7703 54.9819 27.0479 53.1821 28.902 52.0147C30.7562 50.8472 33.0355 50.4075 35.2399 50.792Z" fill="#EA7460"/>
<path opacity="0.18" d="M35.0876 51.5267C36.5752 51.7871 37.946 52.4495 39.0264 53.4302C40.1068 54.411 40.8484 55.6659 41.1573 57.0364C41.4662 58.4069 41.3286 59.8312 40.7619 61.1294C40.1952 62.4275 39.2248 63.5411 37.9735 64.3293C36.7222 65.1175 35.2462 65.5448 33.7322 65.5573C32.2182 65.5698 30.7342 65.1669 29.4679 64.3995C28.2015 63.6321 27.2098 62.5347 26.6181 61.2461C26.0265 59.9575 25.8614 58.5356 26.1438 57.1603C26.3306 56.2472 26.7101 55.3771 27.2608 54.5998C27.8114 53.8224 28.5224 53.153 29.353 52.6298C30.1836 52.1066 31.1176 51.7399 32.1016 51.5506C33.0855 51.3613 34.1002 51.3532 35.0876 51.5267Z" fill="#EA7460"/>
<path opacity="0.27" d="M34.9353 52.267C36.2626 52.5007 37.4852 53.0929 38.4485 53.969C39.4118 54.845 40.0726 55.9654 40.3473 57.1886C40.622 58.4118 40.4983 59.6828 39.9919 60.841C39.4855 61.9992 38.6191 62.9926 37.5021 63.6956C36.3852 64.3986 35.0679 64.7796 33.7168 64.7906C32.3657 64.8015 31.0414 64.4418 29.9114 63.757C28.7813 63.0721 27.8962 62.0929 27.3679 60.9431C26.8397 59.7932 26.692 58.5244 26.9436 57.297C27.2825 55.6504 28.3147 54.1956 29.8132 53.2524C31.3118 52.3091 33.1542 51.9547 34.9353 52.267Z" fill="#EA7460"/>
<path opacity="0.36" d="M34.783 53.0068C35.9535 53.211 37.0323 53.7317 37.8828 54.5028C38.7333 55.274 39.3173 56.2611 39.5611 57.3392C39.8048 58.4173 39.6972 59.538 39.252 60.5595C38.8068 61.5811 38.0439 62.4577 37.0598 63.0783C36.0757 63.699 34.9147 64.0359 33.7235 64.0464C32.5323 64.0568 31.3645 63.7405 30.3678 63.1373C29.3711 62.5341 28.5903 61.6711 28.1241 60.6576C27.6579 59.644 27.5273 58.5254 27.7487 57.4432C28.0456 55.9926 28.9533 54.7104 30.2724 53.8785C31.5915 53.0465 33.2139 52.733 34.783 53.0068Z" fill="#EA7460"/>
<path opacity="0.45" d="M34.6306 53.7518C35.6426 53.9286 36.575 54.379 37.3101 55.0459C38.0451 55.7128 38.5497 56.5663 38.7601 57.4985C38.9704 58.4306 38.8771 59.3994 38.4918 60.2825C38.1066 61.1655 37.4467 61.9231 36.5957 62.4594C35.7447 62.9956 34.7409 63.2865 33.7111 63.2952C32.6812 63.3039 31.6718 63.03 30.8104 62.5082C29.9489 61.9864 29.2742 61.2401 28.8716 60.3637C28.469 59.4873 28.3565 58.5201 28.5484 57.5846C28.8056 56.3308 29.5908 55.2228 30.7313 54.504C31.8719 53.7853 33.2744 53.5147 34.6306 53.7518Z" fill="#EA7460"/>
<path opacity="0.55" d="M34.4783 54.4888C35.3314 54.638 36.1175 55.0178 36.7372 55.5802C37.3569 56.1425 37.7823 56.8621 37.9597 57.648C38.137 58.4339 38.0584 59.2508 37.7336 59.9953C37.4089 60.7399 36.8527 61.3787 36.1353 61.8309C35.4179 62.2832 34.5716 62.5286 33.7033 62.5362C32.8351 62.5438 31.9839 62.3131 31.2574 61.8734C30.5309 61.4337 29.9618 60.8047 29.6219 60.066C29.2821 59.3272 29.1868 58.5119 29.3481 57.723C29.4552 57.1992 29.6729 56.7 29.9887 56.254C30.3045 55.8079 30.7122 55.4238 31.1886 55.1234C31.665 54.8231 32.2007 54.6125 32.7652 54.5036C33.3296 54.3947 33.9117 54.3896 34.4783 54.4888Z" fill="#EA7460"/>
<path opacity="0.64" d="M34.326 55.2298C35.0205 55.3517 35.6603 55.6613 36.1645 56.1194C36.6688 56.5775 37.0148 57.1635 37.1588 57.8034C37.3028 58.4433 37.2383 59.1083 36.9735 59.7143C36.7088 60.3204 36.2556 60.8402 35.6713 61.2081C35.087 61.576 34.3978 61.7754 33.6909 61.7812C32.9841 61.7869 32.2912 61.5988 31.7 61.2404C31.1088 60.8821 30.6458 60.3698 30.3695 59.7682C30.0932 59.1665 30.0161 58.5027 30.1479 57.8605C30.2354 57.4341 30.4128 57.0279 30.6702 56.6649C30.9275 56.3019 31.2596 55.9894 31.6476 55.7451C32.0356 55.5008 32.4718 55.3296 32.9314 55.2412C33.3909 55.1528 33.8648 55.1489 34.326 55.2298Z" fill="#EA7460"/>
<path opacity="0.73" d="M34.1736 55.9697C34.7104 56.064 35.2048 56.3035 35.5941 56.6579C35.9835 57.0122 36.2502 57.4656 36.3605 57.9603C36.4708 58.4551 36.4197 58.969 36.2137 59.4368C36.0077 59.9047 35.656 60.3054 35.2033 60.5882C34.7506 60.8711 34.2172 61.0232 33.6709 61.0254C33.1245 61.0275 32.5898 60.8796 32.1345 60.6004C31.6792 60.3212 31.3238 59.9232 31.1135 59.457C30.9032 58.9908 30.8473 58.4773 30.953 57.9817C31.0952 57.3219 31.5132 56.7405 32.1161 56.3638C32.7191 55.9871 33.4584 55.8455 34.1736 55.9697Z" fill="#EA7460"/>
<path opacity="0.82" d="M34.0213 56.7148C34.3989 56.7808 34.7468 56.9489 35.021 57.1977C35.2952 57.4466 35.4835 57.765 35.5619 58.1128C35.6403 58.4606 35.6054 58.8221 35.4616 59.1515C35.3177 59.4809 35.0715 59.7635 34.7539 59.9635C34.4363 60.1635 34.0617 60.2719 33.6775 60.275C33.2932 60.278 32.9167 60.1757 32.5954 59.9808C32.2741 59.786 32.0225 59.5074 31.8725 59.1803C31.7225 58.8532 31.6809 58.4924 31.7527 58.1434C31.849 57.6759 32.142 57.263 32.5674 56.9951C32.9927 56.7273 33.5156 56.6265 34.0213 56.7148Z" fill="#EA7460"/>
<path opacity="0.91" d="M33.8744 57.4511C34.0927 57.4904 34.2935 57.5886 34.4516 57.7332C34.6096 57.8779 34.7178 58.0626 34.7624 58.2641C34.8071 58.4655 34.7862 58.6747 34.7025 58.8652C34.6187 59.0557 34.4758 59.219 34.2918 59.3345C34.1078 59.45 33.8909 59.5126 33.6686 59.5143C33.4462 59.516 33.2282 59.4568 33.0421 59.3441C32.8561 59.2314 32.7103 59.0703 32.6232 58.8811C32.536 58.692 32.5114 58.4831 32.5524 58.281C32.6104 58.0097 32.7817 57.7705 33.0291 57.6151C33.2766 57.4598 33.5803 57.4009 33.8744 57.4511Z" fill="#EA7460"/>
<path d="M33.9669 58.529C33.951 58.6041 33.904 58.6703 33.8358 58.7136C33.7676 58.7569 33.6838 58.7737 33.6024 58.7604C33.5212 58.7458 33.4496 58.7022 33.4028 58.6392C33.356 58.5762 33.3378 58.4987 33.3521 58.4234C33.3692 58.348 33.4174 58.2816 33.4865 58.2385C33.5555 58.1953 33.64 58.1786 33.7221 58.192C33.7621 58.1992 33.8002 58.2137 33.8342 58.2346C33.8682 58.2554 33.8974 58.2823 33.9201 58.3136C33.9429 58.3449 33.9587 58.38 33.9667 58.417C33.9747 58.454 33.9748 58.492 33.9669 58.529Z" fill="#EA7460"/>
</g>
<g opacity="0.9">
<path opacity="0.09" d="M62.0984 50.2244C63.8608 50.5329 65.4846 51.3176 66.7646 52.4793C68.0446 53.641 68.9232 55.1276 69.2895 56.751C69.6557 58.3745 69.493 60.0618 68.8221 61.5998C68.1511 63.1378 67.002 64.4572 65.52 65.3914C64.038 66.3255 62.2897 66.8323 60.4961 66.8478C58.7026 66.8632 56.9443 66.3866 55.4438 65.4782C53.9432 64.5697 52.7677 63.2703 52.0658 61.7442C51.364 60.218 51.1674 58.5337 51.5008 56.9043C51.7222 55.8223 52.172 54.7912 52.8244 53.8699C53.4768 52.9486 54.3192 52.1552 55.3032 51.5349C56.2873 50.9146 57.3939 50.4796 58.5599 50.2548C59.7258 50.0299 60.9282 50.0196 62.0984 50.2244Z" fill="#EA7460"/>
<path opacity="0.18" d="M61.9352 51.0198C63.5272 51.2986 64.9941 52.0075 66.1504 53.057C67.3067 54.1065 68.1004 55.4494 68.4313 56.916C68.7621 58.3825 68.6152 59.9069 68.0091 61.2962C67.4031 62.6856 66.365 63.8776 65.0263 64.7216C63.6875 65.5655 62.1082 66.0235 60.488 66.0376C58.8677 66.0517 57.2794 65.6213 55.9237 64.8008C54.568 63.9803 53.5059 62.8066 52.8716 61.428C52.2374 60.0494 52.0595 58.5279 52.3604 57.0558C52.5596 56.0778 52.9654 55.1458 53.5546 54.3129C54.1438 53.4801 54.9048 52.7628 55.7942 52.2022C56.6835 51.6416 57.6836 51.2486 58.7374 51.0457C59.7911 50.8428 60.8778 50.834 61.9352 51.0198Z" fill="#EA7460"/>
<path opacity="0.27" d="M61.7992 51.8C63.2225 52.0481 64.5343 52.6808 65.5686 53.6182C66.6029 54.5557 67.3133 55.7556 67.6099 57.0663C67.9066 58.3771 67.7762 59.7397 67.2353 60.9819C66.6943 62.2241 65.7671 63.2901 64.5708 64.0451C63.3746 64.8 61.9631 65.21 60.5148 65.2232C59.0665 65.2364 57.6465 64.8522 56.4344 64.1192C55.2223 63.3862 54.2725 62.3373 53.7052 61.1052C53.1379 59.8731 52.9785 58.5131 53.2472 57.1972C53.6087 55.4337 54.7123 53.8749 56.3157 52.863C57.9191 51.8511 59.8913 51.4688 61.7992 51.8Z" fill="#EA7460"/>
<path opacity="0.36" d="M61.6143 52.605C62.8687 52.8256 64.0242 53.3854 64.9344 54.2135C65.8446 55.0416 66.4685 56.1008 66.7272 57.257C66.986 58.4131 66.8678 59.6143 66.3878 60.7083C65.9077 61.8024 65.0873 62.7401 64.0305 63.4028C62.9737 64.0655 61.7279 64.4234 60.451 64.4311C59.1741 64.4388 57.9234 64.096 56.8573 63.4461C55.7912 62.7962 54.9577 61.8684 54.4622 60.7802C53.9668 59.6921 53.8317 58.4924 54.0741 57.3333C54.3983 55.7829 55.374 54.4147 56.7874 53.5284C58.2008 52.6421 59.9365 52.3101 61.6143 52.605Z" fill="#EA7460"/>
<path opacity="0.45" d="M61.4511 53.4007C62.5338 53.5925 63.5306 54.0767 64.3158 54.7921C65.101 55.5076 65.6392 56.4221 65.8624 57.4202C66.0857 58.4183 65.9839 59.4552 65.5701 60.3999C65.1562 61.3446 64.4489 62.1547 63.5373 62.7278C62.6257 63.3009 61.5509 63.6114 60.4486 63.6199C59.3462 63.6285 58.2659 63.3348 57.344 62.7759C56.4222 62.217 55.7002 61.418 55.2692 60.4799C54.8383 59.5418 54.7177 58.5066 54.9228 57.5052C55.0592 56.839 55.3364 56.2043 55.7385 55.6373C56.1406 55.0703 56.6597 54.5822 57.2661 54.2009C57.8725 53.8197 58.5543 53.5527 59.2724 53.4154C59.9905 53.2781 60.7309 53.2731 61.4511 53.4007Z" fill="#EA7460"/>
<path opacity="0.55" d="M61.2878 54.1934C62.2011 54.3537 63.0425 54.7607 63.7056 55.3631C64.3687 55.9654 64.8237 56.7361 65.0131 57.5775C65.2026 58.419 65.1179 59.2935 64.7698 60.0904C64.4217 60.8874 63.8259 61.571 63.0576 62.0549C62.2893 62.5388 61.3831 62.8011 60.4536 62.8089C59.524 62.8166 58.6129 62.5693 57.8353 62.0982C57.0578 61.6272 56.4488 60.9536 56.0853 60.1625C55.7218 59.3715 55.6201 58.4985 55.7932 57.654C55.9081 57.0932 56.1414 56.5588 56.4798 56.0813C56.8181 55.6039 57.2549 55.1927 57.7652 54.8713C58.2754 54.55 58.8491 54.3247 59.4536 54.2084C60.058 54.0921 60.6813 54.087 61.2878 54.1934Z" fill="#EA7460"/>
<path opacity="0.64" d="M61.1246 54.9866C61.8625 55.1193 62.5413 55.4509 63.0757 55.9396C63.6101 56.4284 63.9761 57.0524 64.1276 57.7331C64.2791 58.4138 64.2094 59.1207 63.9272 59.7649C63.645 60.409 63.1629 60.9615 62.5417 61.3528C61.9205 61.7441 61.188 61.9566 60.4363 61.9637C59.6847 61.9708 58.9477 61.772 58.318 61.3925C57.6883 61.013 57.1942 60.4697 56.8979 59.831C56.6015 59.1923 56.5162 58.4869 56.6527 57.8034C56.7441 57.346 56.9326 56.9098 57.2074 56.5201C57.4821 56.1304 57.8377 55.7949 58.2535 55.533C58.6693 55.2711 59.1371 55.0879 59.6299 54.9942C60.1227 54.9004 60.6308 54.8978 61.1246 54.9866Z" fill="#EA7460"/>
<path opacity="0.73" d="M60.9614 55.7776C61.5357 55.8775 62.0649 56.1326 62.4824 56.5106C62.8998 56.8887 63.1865 57.3727 63.3064 57.9015C63.4263 58.4302 63.3739 58.98 63.1558 59.4812C62.9377 59.9824 62.5637 60.4125 62.0812 60.7172C61.5987 61.0219 61.0293 61.1875 60.445 61.1929C59.8607 61.1984 59.2878 61.0435 58.7987 60.7479C58.3097 60.4523 57.9264 60.0292 57.6974 59.5321C57.4684 59.0351 57.404 58.4865 57.5123 57.9556C57.6575 57.2439 58.1023 56.6147 58.7491 56.2063C59.3959 55.7979 60.1917 55.6437 60.9614 55.7776Z" fill="#EA7460"/>
<path opacity="0.82" d="M60.7982 56.5722C61.2034 56.6426 61.5769 56.8225 61.8714 57.0892C62.166 57.3559 62.3683 57.6974 62.4528 58.0705C62.5374 58.4436 62.5003 58.8315 62.3464 59.1851C62.1924 59.5386 61.9284 59.8421 61.5879 60.0569C61.2473 60.2717 60.8455 60.3884 60.4333 60.392C60.021 60.3956 59.6169 60.286 59.272 60.0772C58.9271 59.8684 58.657 59.5697 58.4958 59.2188C58.3346 58.868 58.2896 58.4808 58.3664 58.1063C58.4694 57.605 58.7832 57.1618 59.2391 56.8742C59.6951 56.5866 60.2558 56.478 60.7982 56.5722Z" fill="#EA7460"/>
<path opacity="0.91" d="M60.635 57.3676C60.8699 57.4082 61.0864 57.5124 61.2573 57.6669C61.4281 57.8214 61.5455 58.0192 61.5947 58.2355C61.6438 58.4517 61.6225 58.6765 61.5334 58.8815C61.4443 59.0865 61.2915 59.2625 61.0942 59.3871C60.8969 59.5118 60.6641 59.5795 60.4251 59.5818C60.1862 59.584 59.9519 59.5207 59.7519 59.3998C59.5519 59.2789 59.3952 59.1059 59.3016 58.9026C59.2079 58.6994 59.1817 58.475 59.226 58.2579C59.2547 58.1136 59.3141 57.9761 59.4006 57.8531C59.4871 57.7302 59.5991 57.6243 59.73 57.5415C59.861 57.4587 60.0084 57.4008 60.1637 57.3709C60.3191 57.3411 60.4792 57.3399 60.635 57.3676Z" fill="#EA7460"/>
<path d="M60.7384 58.5253C60.7301 58.5649 60.7136 58.6027 60.6896 58.6364C60.6656 58.6701 60.6346 58.6991 60.5985 58.7218C60.5624 58.7444 60.5218 58.7603 60.4791 58.7684C60.4363 58.7766 60.3923 58.7768 60.3494 58.7693C60.3065 58.7617 60.2657 58.7463 60.2292 58.7241C60.1928 58.702 60.1614 58.6733 60.1369 58.64C60.1124 58.6066 60.0952 58.569 60.0864 58.5295C60.0776 58.49 60.0773 58.4492 60.0855 58.4096C60.1021 58.3296 60.1524 58.2589 60.2254 58.2131C60.2983 58.1674 60.3879 58.1503 60.4745 58.1657C60.5611 58.181 60.6375 58.2275 60.687 58.2949C60.7365 58.3624 60.755 58.4453 60.7384 58.5253Z" fill="#EA7460"/>
</g>
<path d="M47.1106 59.9133C43.6288 61.3821 41.4473 60.6226 40.9957 58.4647C40.702 57.0563 41.5887 55.4467 42.5408 54.6721C44.4938 53.0675 45.3643 48.3745 45.3697 48.3242C45.522 49.3302 45.3044 53.2536 42.9216 55.9698C42.6691 56.2178 42.4756 56.5121 42.3538 56.8335C42.232 57.155 42.1845 57.4965 42.2143 57.836C42.3449 59.4405 44.0096 60.693 47.067 59.9385L47.1106 59.9133Z" fill="#DB7C65"/>
<path d="M34.4837 45.6672C34.4837 45.6672 31.4372 45.7427 30.9965 44.6914C30.952 44.9119 30.9556 45.1385 31.0071 45.3577C31.0585 45.577 31.1568 45.7845 31.2962 45.9681C31.4355 46.1518 31.6131 46.3079 31.8186 46.4272C32.024 46.5466 32.2532 46.6268 32.4926 46.6632C31.8659 47.438 31.5436 48.3872 31.5787 49.3542C31.6167 51.3662 32.9714 52.9809 34.6089 52.9557C36.2464 52.9306 37.5466 51.2958 37.514 49.2838C37.4813 47.2718 36.1213 45.6421 34.4837 45.6672Z" fill="#502F26"/>
<path d="M57.3328 45.338C57.3328 45.338 54.2863 45.4185 53.8402 44.3672C53.7965 44.5874 53.8007 44.8134 53.8525 45.032C53.9043 45.2507 54.0027 45.4576 54.142 45.6407C54.2813 45.8238 54.4586 45.9794 54.6637 46.0984C54.8687 46.2174 55.0974 46.2975 55.3362 46.3339C54.7131 47.1102 54.3928 48.0588 54.4277 49.025C54.4604 51.037 55.815 52.6516 57.4579 52.6315C59.1009 52.6114 60.3957 50.9565 60.3576 48.9395C60.3195 46.9224 58.9703 45.3128 57.3328 45.338Z" fill="#502F26"/>
<path d="M38.6183 40.0248C38.6183 40.0248 33.7221 38.7975 27.0088 40.6032C27.0088 40.6032 26.9653 40.1455 28.2275 39.1496C29.4896 38.1536 33.8255 37.1979 37.6173 38.6466C37.6173 38.6365 39.5867 39.6073 38.6183 40.0248Z" fill="#7A2C21"/>
<path d="M50.9187 39.7628C50.9187 39.7628 55.815 38.455 62.5391 40.1451C62.5391 40.1451 62.5718 39.6874 61.2933 38.7116C60.0148 37.7357 55.6572 36.8555 51.8925 38.3544C51.898 38.3544 49.9504 39.3604 50.9187 39.7628Z" fill="#7A2C21"/>
<path d="M54.3189 62.8672C54.3189 62.8672 46.5448 64.4516 39.2712 63.0835C39.2712 63.0835 40.6584 69.2301 46.8875 69.1195C52.7793 69.0491 54.27 64.0794 54.3189 62.8672Z" fill="#B22828"/>
<path d="M46.6753 65.9398C41.8825 66.0102 40.4462 64.1944 39.826 63.1985C45.4676 64.1441 49.9939 63.4651 53.9381 62.957C53.53 64.0787 51.2016 65.8845 46.6753 65.9398Z" fill="white"/>
<path d="M76.9449 43.4009C76.9449 43.4009 74.0779 43.9844 73.0824 51.449C72.0868 58.9135 74.0997 59.5322 74.7144 59.7887C74.7144 59.7887 82.0261 61.6749 84.5613 50.4882C86.6558 41.1928 76.9449 43.4009 76.9449 43.4009Z" fill="#FAA284"/>
<path d="M74.9211 54.641C74.9211 54.641 80.2472 52.1763 76.0908 49.7015C76.0908 49.7015 77.4835 44.0629 81.0523 45.3355C84.6211 46.6081 81.7595 51.8745 81.0523 52.9861C79.5671 55.2747 74.9211 58.0765 74.9211 54.641Z" fill="#DB7C65"/>
<path d="M42.9488 20.6139C42.9488 20.6139 56.3916 13.3758 56.5984 24.3009C56.8051 35.2261 58.1924 46.4732 78.8272 46.5989C78.8272 46.5989 83.9139 46.3575 84.5504 50.5022C84.5504 50.5022 90.6271 27.5403 80.8347 14.4623C72.0813 2.7524 50.2115 -5.03907 42.1164 3.82379C42.1164 3.82379 22.0528 -2.66994 18.2718 14.4421C15.5571 26.7505 22.0854 39.2602 24.9905 44.6926C24.9905 44.6926 31.0564 39.8738 30.9748 34.5068C30.8932 29.1398 29.2448 13.0689 42.9488 20.6139Z" fill="#893626"/>
<path d="M34.1791 19.3461C30.0173 15.2013 27.2537 8.9591 25.6379 4.31641C22.3139 5.95619 19.4741 9.00437 18.2772 14.4418C17.9094 16.1272 17.6983 17.8386 17.6462 19.5573C21.9485 21.7556 26.5324 23.4455 31.2903 24.5873C31.731 22.3339 32.5797 20.3571 34.1791 19.3461Z" fill="#9B4135"/>
<path d="M68.5669 4.45312C63.4966 11.5907 58.9268 16.4094 54.8303 19.4476C55.8693 20.363 56.5548 21.8871 56.5983 24.2814C56.5983 24.7844 56.5983 25.3327 56.6419 25.8558C66.8478 24.6486 76.1234 21.696 83.3589 18.7283C82.6799 17.2239 81.8359 15.7879 80.8401 14.4427C77.8915 10.5092 73.4577 7.03352 68.5669 4.45312Z" fill="#9B4135"/>
<path d="M42.1164 3.82219C42.1164 3.82219 41.4853 14.3047 42.9324 19.7522C40.4571 14.5986 39.5179 8.92652 40.2123 3.32422L42.1164 3.82219Z" fill="#7A2C21"/>
<path d="M10.2366 162.203C8.20459 162.532 6.1141 162.111 4.41428 161.03C2.71446 159.95 1.54094 158.295 1.1459 156.423C0.770108 154.51 1.21147 152.536 2.3772 150.917C3.54293 149.298 5.34221 148.16 7.39675 147.742C7.39675 147.742 20.4534 143.215 63.649 137.848L65.5422 146.987C65.5422 146.987 30.6049 160.171 10.9057 162.077C10.7588 162.092 10.2366 162.203 10.2366 162.203Z" fill="#F4987F"/>
<path d="M77.7446 163.819C79.7507 164.279 81.872 163.992 83.6517 163.02C85.4314 162.049 86.7271 160.469 87.2596 158.623C87.7767 156.742 87.4866 154.749 86.4503 153.061C85.4139 151.374 83.7116 150.122 81.6997 149.569C81.6997 149.569 71.8256 143.734 29.1577 135.57L26.4376 143.472C26.4376 143.472 57.6211 160.459 77.1299 163.648C77.2332 163.668 77.7446 163.819 77.7446 163.819Z" fill="#FAA284"/>
<path d="M94.0709 103.513C94.2846 102.381 94.2515 101.222 93.9735 100.102C93.6954 98.9825 93.178 97.9256 92.4517 96.9935C91.7254 96.0615 90.8049 95.2732 89.7442 94.6749C88.6836 94.0766 87.5043 93.6805 86.2756 93.5097C85.047 93.339 83.7938 93.3972 82.5898 93.6808C81.3859 93.9644 80.2554 94.4678 79.2649 95.1613C78.2744 95.8548 77.4438 96.7244 76.8221 97.719C76.2004 98.7135 75.8001 99.813 75.6447 100.953C75.525 101.692 72.3806 155.045 72.3806 155.045C72.2266 155.991 72.2757 156.956 72.5249 157.884C72.7742 158.813 73.2188 159.687 73.8333 160.456C75.0745 162.01 76.9325 163.045 78.9986 163.332C81.0648 163.62 83.1698 163.137 84.8507 161.989C86.5315 160.842 87.6505 159.124 87.9614 157.213L94.0709 103.513Z" fill="#FAA284"/>
<path d="M93.0916 126.663L95.7737 103.525C95.9784 100.993 95.1399 98.4826 93.4264 96.4983C91.713 94.5139 89.2514 93.2021 86.5354 92.8259C83.8195 92.4497 81.0502 93.037 78.783 94.47C76.5159 95.9029 74.9187 98.0756 74.3119 100.552C74.2466 100.944 73.5394 112.247 72.7668 124.756C77.4727 125.692 85.2577 126.904 93.0916 126.663Z" fill="#E8EBEF"/>
<path d="M57.2294 139.074C57.2294 139.074 72.3261 134.164 75.0571 133.611C77.1571 133.183 81.395 132.102 84.262 131.177C85.1216 130.905 87.9288 129.481 88.2334 130.045C88.4456 130.422 89.0549 131.171 87.4174 132.68C85.7799 134.189 79.6378 135.568 79.6378 135.568L84.6265 136.886C86.9169 137.494 89.4684 137.746 89.7458 138.284C89.7458 138.284 90.5836 140.11 87.314 140.296C87.314 140.296 89.4901 140.557 89.4194 141.392C89.2508 143.374 87.5099 143.233 85.5459 143.153C83.582 143.072 79.986 142.434 78.305 142.746L83.9791 145.452C83.9791 145.452 86.1552 146.548 86.3729 147.021C86.5905 147.494 86.3293 148.626 84.1968 148.123C81.7922 147.554 78.0166 144.602 72.9246 146.111L57.2294 141.639V139.074Z" fill="#F4987F"/>
<path d="M87.3141 140.296C87.3141 140.296 77.7229 139.29 77.7229 138.47C77.7229 137.65 84.0499 139.728 87.3141 140.296Z" fill="#E2846F"/>
<path d="M79.6379 135.569C79.6379 135.569 76.3302 135.151 76.5587 134.9C76.7872 134.648 78.5879 135.106 79.6379 135.569Z" fill="#E2846F"/>
<path d="M78.305 142.746C78.305 142.746 76.1941 142.303 76.3302 142.022C76.6511 141.373 78.305 142.746 78.305 142.746Z" fill="#E2846F"/>
<path d="M28.5756 145.327C24.4458 146.527 19.994 146.369 15.976 144.879L9.44771 145.93C9.1786 145.865 8.93068 145.74 8.72525 145.566C8.51982 145.393 8.36302 145.176 8.26832 144.934C8.17361 144.692 8.14383 144.432 8.18154 144.178C8.21924 143.923 8.3233 143.68 8.48478 143.47C8.48478 143.47 7.58714 143.47 7.60346 142.324C7.70997 141.73 7.904 141.153 8.18013 140.608C7.39673 140.312 7.19544 138.848 8.28349 138.093C8.02113 137.779 7.89136 137.388 7.91838 136.991C7.94541 136.595 8.1274 136.222 8.43038 135.941C9.39875 134.829 12.6085 132.103 14.0991 131.474C15.5898 130.845 22.3248 132.666 29.0598 134.693C36.1158 136.806 34.2226 144.124 28.5756 145.327Z" fill="#FAA284"/>
<path d="M8.4848 143.472C8.4848 143.472 12.9893 141.419 13.2613 141.963C13.5334 142.506 8.4848 143.472 8.4848 143.472Z" fill="#EF8D72"/>
<path d="M8.19098 140.609C8.19098 140.609 13.0872 137.37 13.2722 137.958C13.4571 138.547 8.19098 140.609 8.19098 140.609Z" fill="#EF8D72"/>
<path d="M8.29437 138.079C8.29437 138.079 12.4562 134.332 12.6466 134.679C12.837 135.026 8.29437 138.079 8.29437 138.079Z" fill="#EF8D72"/>
</svg>
