<svg width="22" height="24" viewBox="0 0 22 24" fill="none" xmlns="http://www.w3.org/2000/svg">
<path d="M6.23901 7.5V5.25C6.23901 2.39062 8.58276 0 11.489 0C14.3484 0 16.739 2.39062 16.739 5.25V7.5H19.739C20.9578 7.5 21.989 8.53125 21.989 9.75V19.5C21.989 21.9844 19.9734 24 17.489 24H5.48901C2.95776 24 0.989014 21.9844 0.989014 19.5V9.75C0.989014 8.53125 1.97339 7.5 3.23901 7.5H6.23901ZM8.48901 7.5H14.489V5.25C14.489 3.60938 13.1296 2.25 11.489 2.25C9.80151 2.25 8.48901 3.60938 8.48901 5.25V7.5ZM3.23901 9.75V19.5C3.23901 20.7656 4.22339 21.75 5.48901 21.75H17.489C18.7078 21.75 19.739 20.7656 19.739 19.5V9.75H16.739V12.375C16.739 13.0312 16.2234 13.5 15.614 13.5C14.9578 13.5 14.489 13.0312 14.489 12.375V9.75H8.48901V12.375C8.48901 13.0312 7.97339 13.5 7.36401 13.5C6.70776 13.5 6.23901 13.0312 6.23901 12.375V9.75H3.23901Z" fill="white"/>
</svg>
