<svg width="21" height="23" viewBox="0 0 21 23" fill="none" xmlns="http://www.w3.org/2000/svg">
<path d="M12 2.125V2.89844C15.0938 3.41406 17.5 6.12109 17.5 9.34375V10.8047C17.5 12.7383 18.1445 14.6289 19.3477 16.1758L19.9922 16.9492C20.25 17.293 20.293 17.7227 20.1211 18.0664C19.9492 18.4102 19.6055 18.625 19.2188 18.625H2.03125C1.60156 18.625 1.25781 18.4102 1.08594 18.0664C0.914062 17.7227 0.957031 17.293 1.21484 16.9492L1.85938 16.1758C3.0625 14.6289 3.75 12.7383 3.75 10.8047V9.34375C3.75 6.12109 6.11328 3.41406 9.25 2.89844V2.125C9.25 1.39453 9.85156 0.75 10.625 0.75C11.3555 0.75 12 1.39453 12 2.125ZM10.2812 4.875C7.78906 4.875 5.8125 6.89453 5.8125 9.34375V10.8047C5.8125 12.8672 5.21094 14.8438 4.09375 16.5625H17.1133C15.9961 14.8438 15.4375 12.8672 15.4375 10.8047V9.34375C15.4375 6.89453 13.418 4.875 10.9688 4.875H10.2812ZM13.375 20C13.375 20.7305 13.0742 21.4609 12.5586 21.9766C12.043 22.4922 11.3125 22.75 10.625 22.75C9.89453 22.75 9.16406 22.4922 8.64844 21.9766C8.13281 21.4609 7.875 20.7305 7.875 20H13.375Z" fill="#6A00E0"/>
</svg>
