<svg width="24" height="24" viewBox="0 0 24 24" fill="none" xmlns="http://www.w3.org/2000/svg">
<path d="M12.375 6.41016C15.5742 6.41016 18.2148 9.05078 18.2148 12.25C18.2148 15.5 15.5742 18.0898 12.375 18.0898C9.125 18.0898 6.53516 15.5 6.53516 12.25C6.53516 9.05078 9.125 6.41016 12.375 6.41016ZM12.375 16.0586C14.457 16.0586 16.1328 14.3828 16.1328 12.25C16.1328 10.168 14.457 8.49219 12.375 8.49219C10.2422 8.49219 8.56641 10.168 8.56641 12.25C8.56641 14.3828 10.293 16.0586 12.375 16.0586ZM19.7891 6.20703C19.7891 5.44531 19.1797 4.83594 18.418 4.83594C17.6562 4.83594 17.0469 5.44531 17.0469 6.20703C17.0469 6.96875 17.6562 7.57812 18.418 7.57812C19.1797 7.57812 19.7891 6.96875 19.7891 6.20703ZM23.6484 7.57812C23.75 9.45703 23.75 15.0938 23.6484 16.9727C23.5469 18.8008 23.1406 20.375 21.8203 21.7461C20.5 23.0664 18.875 23.4727 17.0469 23.5742C15.168 23.6758 9.53125 23.6758 7.65234 23.5742C5.82422 23.4727 4.25 23.0664 2.87891 21.7461C1.55859 20.375 1.15234 18.8008 1.05078 16.9727C0.949219 15.0938 0.949219 9.45703 1.05078 7.57812C1.15234 5.75 1.55859 4.125 2.87891 2.80469C4.25 1.48438 5.82422 1.07812 7.65234 0.976562C9.53125 0.875 15.168 0.875 17.0469 0.976562C18.875 1.07812 20.5 1.48438 21.8203 2.80469C23.1406 4.125 23.5469 5.75 23.6484 7.57812ZM21.2109 18.9531C21.8203 17.4805 21.668 13.9258 21.668 12.25C21.668 10.625 21.8203 7.07031 21.2109 5.54688C20.8047 4.58203 20.043 3.76953 19.0781 3.41406C17.5547 2.80469 14 2.95703 12.375 2.95703C10.6992 2.95703 7.14453 2.80469 5.67188 3.41406C4.65625 3.82031 3.89453 4.58203 3.48828 5.54688C2.87891 7.07031 3.03125 10.625 3.03125 12.25C3.03125 13.9258 2.87891 17.4805 3.48828 18.9531C3.89453 19.9688 4.65625 20.7305 5.67188 21.1367C7.14453 21.7461 10.6992 21.5938 12.375 21.5938C14 21.5938 17.5547 21.7461 19.0781 21.1367C20.043 20.7305 20.8555 19.9688 21.2109 18.9531Z" fill="#CCBDFF"/>
</svg>
