<svg width="25" height="22" viewBox="0 0 25 22" fill="none" xmlns="http://www.w3.org/2000/svg">
<path d="M9.48901 20.375C9.48901 21.0312 8.97339 21.5 8.36401 21.5H4.98901C2.45776 21.5 0.489014 19.5312 0.489014 17V5C0.489014 2.51562 2.45776 0.5 4.98901 0.5H8.36401C8.97339 0.5 9.48901 1.01562 9.48901 1.625C9.48901 2.28125 8.97339 2.75 8.36401 2.75H4.98901C3.72339 2.75 2.73901 3.78125 2.73901 5V17C2.73901 18.2656 3.72339 19.25 4.98901 19.25H8.36401C8.97339 19.25 9.48901 19.7656 9.48901 20.375ZM24.1609 10.25L18.2078 3.875C17.7859 3.40625 17.0828 3.40625 16.614 3.82812C16.1453 4.25 16.1453 4.95312 16.5671 5.42188L20.739 9.875H9.06714C8.45776 9.875 7.98901 10.3906 7.98901 11C7.98901 11.6562 8.45776 12.125 9.06714 12.125H20.6921L16.4734 16.625C16.0515 17.0938 16.0515 17.7969 16.5203 18.2188C16.8015 18.4062 17.0828 18.5 17.3171 18.5C17.5984 18.5 17.8796 18.4062 18.114 18.1719L24.0671 11.7969C24.5828 11.375 24.5828 10.6719 24.1609 10.25Z" fill="#6A00E0"/>
</svg>
