<svg width="25" height="29" viewBox="0 0 25 29" fill="none" xmlns="http://www.w3.org/2000/svg">
<path d="M24.75 10.9141C22.4648 10.9648 20.332 10.2539 18.5039 8.93359V18.0234C18.5039 24.3711 11.5977 28.332 6.11328 25.1836C0.628906 21.9844 0.628906 14.0625 6.11328 10.8633C7.6875 9.94922 9.56641 9.59375 11.3945 9.84766V14.418C8.60156 13.5039 5.91016 15.9922 6.51953 18.8359C7.17969 21.6797 10.6328 22.7969 12.8164 20.8164C13.5781 20.1055 14.0352 19.0898 14.0352 18.0234V0.25H18.5039C18.5039 0.65625 18.5039 1.01172 18.6055 1.41797C18.9102 3.09375 19.875 4.56641 21.3477 5.48047C22.3125 6.14062 23.5312 6.49609 24.75 6.49609V10.9141Z" fill="#CCBDFF"/>
</svg>
